<svg width="184" height="240" viewBox="0 0 184 240" fill="none" xmlns="http://www.w3.org/2000/svg">
<path fill-rule="evenodd" clip-rule="evenodd" d="M8.03739 1C8.03739 1.55 7.36239 2 6.53739 2C5.71239 2 5.03739 2.675 5.03739 3.5C5.03739 4.325 4.36239 5 3.53739 5C2.71239 5 2.03739 5.638 2.03739 6.417C2.03739 7.196 1.59139 7.983 1.04639 8.167C-0.229614 8.596 -0.399614 228.101 0.875386 228.924C1.36639 229.241 2.07639 230.489 2.45339 231.699C2.83139 232.908 4.01639 234.176 5.08839 234.516C6.16039 234.856 7.03739 235.554 7.03739 236.067C7.03739 236.58 7.74439 237 8.60839 237C9.47339 237 10.8554 237.675 11.6804 238.5C12.9904 239.81 23.9504 240 98.1084 240H183.037V236V232H98.0374C23.1484 232 13.0374 231.822 13.0374 230.5C13.0374 229.675 12.5554 229 11.9664 229C7.93339 229 6.05039 221.656 6.04339 205.899C6.03539 189.675 8.28539 183 13.7594 183C15.0124 183 16.0374 182.55 16.0374 182C16.0374 181.341 44.5374 181 99.5374 181H183.037V92.082C183.037 43.177 183.31 2.452 183.644 1.582C184.195 0.147 176.075 0 96.1444 0C38.0734 0 8.03739 0.341 8.03739 1ZM145.814 41.75L145.537 56.5L111.787 56.763L78.0374 57.027V42.013V27H112.064H146.09L145.814 41.75ZM19.0374 206C19.0374 206.658 45.7044 207 97.0374 207C148.37 207 175.037 206.658 175.037 206C175.037 205.342 148.37 205 97.0374 205C45.7044 205 19.0374 205.342 19.0374 206ZM19.0374 214C19.0374 214.658 45.7044 215 97.0374 215C148.37 215 175.037 214.658 175.037 214C175.037 213.342 148.37 213 97.0374 213C45.7044 213 19.0374 213.342 19.0374 214ZM19.0374 222C19.0374 222.658 45.7044 223 97.0374 223C148.37 223 175.037 222.658 175.037 222C175.037 221.342 148.37 221 97.0374 221C45.7044 221 19.0374 221.342 19.0374 222Z" fill="#A2A2A2"/>
</svg>
