<?xml version="1.0" standalone="no"?>
<!DOCTYPE svg PUBLIC "-//W3C//DTD SVG 20010904//EN"
 "http://www.w3.org/TR/2001/REC-SVG-20010904/DTD/svg10.dtd">
<svg version="1.0" xmlns="http://www.w3.org/2000/svg"
 width="960.000000pt" height="640.000000pt" viewBox="0 0 960.000000 640.000000"
 preserveAspectRatio="xMidYMid meet">

<g transform="translate(0.000000,640.000000) scale(0.100000,-0.100000)"
fill="#000000" stroke="none">
<path d="M170 5820 c0 -5 15 -10 33 -10 24 0 28 3 17 10 -20 13 -50 13 -50 0z"/>
<path d="M2699 5704 c0 -5 1 -151 3 -324 2 -173 3 -349 3 -391 l0 -76 83 -7
c81 -6 107 -3 98 13 -3 4 -6 81 -7 170 -1 154 -2 162 -22 173 l-21 11 23 9
c15 5 21 13 17 24 -3 9 -6 98 -6 199 l0 182 -62 7 c-35 4 -73 10 -85 13 -13 3
-23 1 -24 -3z"/>
<path d="M2530 5670 c-8 -5 -10 -10 -5 -10 6 0 17 5 25 10 8 5 11 10 5 10 -5
0 -17 -5 -25 -10z"/>
<path d="M2485 5650 c-3 -6 1 -7 9 -4 18 7 21 14 7 14 -6 0 -13 -4 -16 -10z"/>
<path d="M801 5628 c1 -13 5 -34 9 -48 7 -20 8 -16 9 23 1 26 -3 47 -9 47 -5
0 -10 -10 -9 -22z"/>
<path d="M3440 5265 c1 -238 -3 -362 -10 -376 -6 -11 -10 -25 -8 -31 4 -10
205 -20 221 -11 13 7 -14 45 -28 39 -10 -3 -16 6 -21 31 -8 45 1 642 11 665 8
20 -4 23 -102 33 l-63 6 0 -356z m63 -402 c-13 -2 -33 -2 -45 0 -13 2 -3 4 22
4 25 0 35 -2 23 -4z"/>
<path d="M823 5515 c0 -22 2 -30 4 -17 2 12 2 30 0 40 -3 9 -5 -1 -4 -23z"/>
<path d="M9335 5543 c-72 -8 -93 -14 -91 -26 1 -18 -13 -308 -25 -487 -5 -85
-11 -172 -12 -193 -1 -24 -6 -36 -14 -33 -7 3 -15 1 -18 -4 -4 -6 14 -10 42
-10 30 0 43 3 35 9 -8 5 14 7 54 5 37 -1 76 1 85 7 11 5 19 5 21 -1 2 -5 3 60
4 145 0 103 -3 155 -10 155 -6 0 -5 4 2 9 9 5 16 51 22 147 5 76 12 172 15
212 l6 72 -43 -1 c-24 -1 -56 -4 -73 -6z"/>
<path d="M4111 5488 c-7 -27 -12 -163 -14 -356 -2 -270 0 -313 13 -317 38 -11
170 -16 170 -7 0 22 -13 42 -26 42 -15 0 -16 28 -14 471 l1 196 -23 7 c-13 3
-39 6 -59 6 -34 0 -37 -2 -48 -42z"/>
<path d="M8738 5491 c-26 -4 -49 -9 -51 -11 -4 -4 -39 -593 -41 -688 l-1 -32
87 -4 c59 -2 88 0 91 8 3 8 9 7 20 -3 15 -12 17 -11 17 8 0 11 -5 21 -11 21
-8 0 -9 30 -4 98 3 53 8 124 10 157 18 283 26 404 30 428 4 27 4 27 -48 26
-28 -1 -73 -5 -99 -8z m69 -727 c-3 -3 -12 -4 -19 -1 -8 3 -5 6 6 6 11 1 17
-2 13 -5z"/>
<path d="M832 5430 c0 -19 2 -27 5 -17 2 9 2 25 0 35 -3 9 -5 1 -5 -18z"/>
<path d="M4688 5133 c-2 -181 -1 -334 1 -340 1 -7 8 -10 14 -6 6 3 39 5 74 4
52 -2 63 0 63 14 0 8 -7 18 -15 21 -13 5 -15 50 -15 314 l0 308 -31 6 c-17 3
-44 6 -60 6 l-28 0 -3 -327z"/>
<path d="M843 5340 c0 -30 2 -43 4 -27 2 15 2 39 0 55 -2 15 -4 2 -4 -28z"/>
<path d="M5220 5106 c0 -156 -3 -298 -6 -315 -6 -30 -5 -31 27 -32 l34 -1 -30
-8 c-22 -6 -12 -8 38 -7 48 1 67 5 67 14 0 8 -7 16 -15 19 -13 5 -15 48 -15
304 l0 297 -37 7 c-21 3 -44 6 -50 6 -10 0 -13 -63 -13 -284z"/>
<path d="M5689 5188 c0 -73 -1 -207 -2 -298 l-2 -165 25 -3 c14 -2 35 -8 47
-14 13 -6 26 -8 30 -5 3 4 0 7 -8 7 -12 0 -14 48 -14 302 l0 303 -37 3 -38 3
-1 -133z"/>
<path d="M836 5215 c3 -38 10 -74 15 -80 11 -10 9 10 -11 105 -8 39 -9 36 -4
-25z"/>
<path d="M6296 4954 c-4 -152 -5 -278 -3 -280 2 -2 18 -7 35 -10 l32 -6 0 173
c0 96 3 225 7 287 l6 112 -35 0 -35 0 -7 -276z"/>
<path d="M872 5015 c0 -16 2 -22 5 -12 2 9 2 23 0 30 -3 6 -5 -1 -5 -18z"/>
<path d="M883 4925 c0 -22 2 -30 4 -17 2 12 2 30 0 40 -3 9 -5 -1 -4 -23z"/>
<path d="M5790 4730 c0 -5 5 -10 11 -10 5 0 7 5 4 10 -3 6 -8 10 -11 10 -2 0
-4 -4 -4 -10z"/>
<path d="M6370 4676 c0 -9 7 -16 16 -16 9 0 14 5 12 12 -6 18 -28 21 -28 4z"/>
<path d="M8390 4670 c0 -5 5 -10 10 -10 6 0 10 5 10 10 0 6 -4 10 -10 10 -5 0
-10 -4 -10 -10z"/>
<path d="M2715 4639 c-6 -9 15 -772 21 -778 6 -7 164 -5 170 2 2 2 0 164 -6
360 -5 196 -7 370 -4 386 l6 30 -92 3 c-51 2 -94 0 -95 -3z m165 -699 c0 -5
-4 -10 -10 -10 -5 0 -10 5 -10 10 0 6 5 10 10 10 6 0 10 -4 10 -10z"/>
<path d="M3450 4393 c0 -125 3 -292 7 -370 l6 -143 75 0 75 0 -4 353 c-2 193
-2 359 1 367 4 12 -9 16 -77 18 l-83 3 0 -228z"/>
<path d="M4110 4593 c-3 -37 2 -688 4 -692 2 -3 33 -5 68 -3 l63 3 0 344 0
343 -29 6 c-41 8 -106 7 -106 -1z"/>
<path d="M4690 4245 l0 -335 60 0 60 0 0 311 c0 180 4 318 10 328 8 16 4 19
-37 25 -25 3 -56 6 -69 6 l-24 0 0 -335z"/>
<path d="M9195 4572 c-5 -4 -12 -69 -14 -144 -3 -133 -3 -137 17 -132 11 3 23
1 26 -5 4 -6 18 -11 32 -11 20 0 24 -5 24 -30 0 -28 -3 -30 -35 -30 -25 0 -37
6 -45 21 -7 11 -14 18 -17 15 -7 -7 -8 -12 -18 -161 -5 -60 -9 -121 -11 -135
-1 -14 -3 -34 -3 -45 -1 -27 -37 43 -45 90 -11 56 -67 71 -80 22 -8 -32 -7
-107 2 -107 4 1 18 7 32 15 32 18 40 18 40 0 0 -26 -42 -45 -84 -38 -37 6 -38
7 -32 42 l6 36 -24 -29 c-22 -26 -28 -29 -50 -18 -16 7 -26 21 -28 39 -4 37
-47 61 -65 36 -16 -21 -17 76 -1 287 5 80 12 174 14 209 l3 64 -76 -7 c-42 -3
-79 -9 -82 -12 -6 -6 -29 -426 -30 -555 -1 -47 -4 -89 -7 -92 -4 -4 -22 13
-41 37 -19 24 -47 50 -63 56 -25 10 -29 17 -24 37 4 15 0 30 -11 43 -16 17
-16 37 -9 222 5 112 8 213 6 226 -3 19 -9 22 -48 22 -25 0 -44 -5 -44 -11 0
-7 -22 -9 -67 -4 -97 9 -326 5 -338 -6 -5 -6 15 -7 53 -3 l63 7 -6 -90 c-4
-69 -2 -93 8 -102 11 -8 16 -5 25 14 17 36 28 31 49 -22 14 -38 18 -73 16
-168 -2 -195 -14 -351 -25 -332 -11 20 -71 23 -86 4 -12 -14 -6 -76 9 -92 14
-14 11 -25 -6 -25 -9 0 -18 -7 -21 -15 -10 -24 -41 -18 -48 9 -10 39 -52 43
-89 9 l-30 -28 6 33 c4 18 11 151 17 295 5 144 12 279 14 300 4 40 -2 77 -14
77 -4 0 -7 -12 -8 -27 0 -16 -5 -118 -11 -228 -6 -110 -11 -237 -12 -282 l-2
-81 -46 1 -46 2 -1 -60 -1 -60 -59 2 c-32 1 -91 5 -131 8 -64 6 -73 9 -85 33
-7 15 -22 29 -33 30 -41 8 -46 21 -44 121 l2 96 -124 5 c-121 5 -124 6 -127
29 -2 13 -12 26 -23 28 -14 4 -16 9 -9 23 14 26 1 52 -24 48 -17 -2 -21 -10
-21 -36 0 -26 -5 -34 -22 -38 -13 -4 -23 -10 -23 -15 0 -4 -10 -17 -22 -28
-18 -18 -20 -24 -10 -46 7 -14 12 -41 12 -59 0 -30 -3 -33 -31 -34 -37 -1 -59
-18 -59 -44 0 -31 -44 -20 -48 12 -7 50 -40 65 -69 31 -22 -27 -59 -9 -74 36
-9 29 -15 34 -37 31 -20 -2 -30 -11 -38 -36 -10 -33 -10 -33 -29 -12 -10 11
-24 20 -32 20 -7 0 -13 5 -13 10 0 6 7 10 15 10 10 0 15 11 15 35 0 38 -5 41
-47 23 -15 -6 -32 -12 -38 -12 -5 -1 -12 -14 -15 -31 -4 -23 -10 -29 -25 -27
-29 6 -32 12 -7 19 25 6 29 31 7 39 -8 4 -15 12 -15 20 0 11 4 12 19 2 15 -9
29 -9 63 2 57 18 68 28 67 59 -1 14 0 104 1 199 1 96 -1 176 -3 178 -2 3 -41
2 -85 -2 -78 -7 -81 -8 -70 -27 15 -28 4 -282 -13 -322 -13 -30 -63 -85 -78
-85 -4 0 -12 5 -19 12 -9 9 -12 8 -12 -4 0 -9 5 -20 11 -24 8 -5 6 -10 -5 -16
-9 -5 -16 -19 -16 -31 -1 -20 -2 -20 -11 -4 -6 10 -22 17 -39 17 -22 0 -30 -6
-38 -29 -6 -16 -7 -32 -4 -36 4 -3 0 -10 -8 -16 -13 -8 -13 -10 0 -19 8 -5 24
-10 35 -10 11 0 27 -5 35 -11 11 -7 4 -8 -25 -3 -22 3 -53 15 -68 26 -33 23
-56 21 -71 -7 -6 -11 -12 -22 -14 -24 -5 -9 -31 35 -32 53 0 10 -8 25 -17 32
-12 8 -18 26 -18 56 0 41 -1 43 -30 43 -28 0 -30 -2 -29 -37 1 -28 -3 -38 -14
-38 -15 0 -102 -87 -102 -102 0 -4 -11 -8 -24 -8 -22 0 -26 -6 -32 -45 -4 -27
-11 -44 -18 -42 -11 4 -12 10 -15 51 -1 19 -2 19 -24 -2 -24 -23 -56 -16 -41
9 6 12 5 12 -9 0 -9 -7 -17 -12 -18 -10 -15 67 19 93 42 32 l9 -25 35 31 c20
17 45 31 55 31 23 0 24 8 10 45 -8 22 -14 24 -37 19 -25 -7 -27 -6 -14 9 9 11
10 17 2 17 -6 0 -11 8 -11 18 0 10 -6 26 -13 36 -11 15 -18 16 -34 8 -18 -10
-19 -17 -13 -52 6 -34 5 -40 -11 -40 -10 0 -21 -11 -27 -27 l-9 -28 -7 32 c-4
18 -14 37 -23 41 -24 14 -12 47 18 50 l26 3 6 283 c3 156 7 290 9 297 2 10
-10 15 -44 17 l-48 3 0 -280 c0 -270 -1 -281 -20 -291 -11 -6 -20 -21 -20 -33
-1 -12 -14 -38 -30 -57 -30 -34 -30 -34 -30 -9 0 14 -11 36 -25 49 -15 14 -25
35 -25 51 0 19 -6 30 -20 34 -28 9 -38 0 -46 -43 -4 -20 -13 -42 -21 -47 -8
-6 -19 -22 -26 -35 -7 -14 -23 -26 -35 -28 -25 -4 -26 -2 -11 32 14 29 -1 56
-31 56 -13 0 -17 5 -13 21 4 12 0 25 -8 30 -12 8 -12 11 1 20 11 8 12 12 3 16
-17 6 -17 53 0 53 9 0 8 3 -2 9 -10 7 -12 48 -10 207 3 117 8 202 14 206 6 5
5 8 -4 8 -11 0 -11 3 -1 15 20 24 2 35 -56 35 l-54 0 0 -315 0 -315 55 0 55 0
0 -41 c0 -32 -3 -40 -15 -35 -24 9 -45 -4 -45 -28 0 -13 -2 -25 -5 -28 -10
-10 -73 57 -77 82 -2 19 -9 25 -28 25 -21 0 -25 -5 -26 -32 0 -18 -8 -41 -17
-51 -9 -10 -17 -24 -17 -30 0 -6 -7 -18 -16 -26 -10 -11 -14 -25 -9 -44 6 -28
7 -28 65 -24 54 4 60 2 60 -15 0 -10 -6 -25 -12 -32 -11 -10 -9 -12 7 -11 55
6 95 -1 95 -15 0 -8 -5 -15 -11 -15 -17 0 -41 -71 -35 -102 5 -25 4 -27 -13
-19 -18 10 -31 6 -31 -11 0 -4 7 -8 17 -8 15 0 15 -1 0 -18 -10 -10 -17 -28
-17 -39 0 -28 -10 -53 -21 -53 -4 0 -11 16 -15 35 -7 40 -24 37 -24 -4 0 -15
-9 -38 -20 -51 -11 -13 -20 -26 -20 -30 0 -12 -32 -22 -41 -13 -5 5 -6 19 -2
31 4 16 12 22 27 20 17 -3 22 3 26 37 7 48 16 65 36 65 9 0 14 7 12 18 -2 12
-19 20 -54 27 l-51 10 4 38 c2 27 0 37 -10 37 -17 0 -41 -112 -38 -177 2 -73
-16 -47 -21 30 -4 53 -2 75 8 83 8 6 14 20 14 30 0 28 11 40 45 51 41 13 42
34 6 84 -17 23 -42 67 -56 98 -38 84 -40 86 -68 89 -18 2 -27 -2 -32 -17 -3
-12 -13 -21 -21 -21 -9 0 -23 -18 -31 -40 -9 -22 -19 -40 -23 -40 -12 0 -66
53 -79 78 -17 33 -55 26 -59 -10 -5 -39 -31 -44 -45 -8 -18 48 -62 50 -73 4
-3 -13 -11 -24 -18 -24 -6 0 -24 -18 -40 -40 -17 -22 -35 -40 -42 -40 -33 0
-44 13 -44 51 0 36 -3 40 -30 46 -17 3 -33 10 -36 14 -7 12 -51 12 -58 0 -3
-4 -1 -22 4 -40 5 -17 5 -31 1 -31 -5 0 -25 -13 -46 -30 -21 -16 -48 -30 -61
-30 -13 0 -23 -3 -22 -7 0 -5 -2 -16 -6 -25 -10 -23 -26 -13 -26 16 0 31 -23
49 -51 41 -17 -6 -20 -12 -15 -38 5 -23 2 -33 -14 -44 -24 -17 -25 -31 -6 -69
11 -20 12 -32 4 -47 -9 -18 -8 -19 12 -14 17 4 20 3 12 -5 -6 -6 -25 -11 -42
-11 -21 0 -30 -5 -30 -16 0 -23 -86 -26 -108 -5 -11 11 -12 18 -4 23 6 4 13
22 14 41 2 28 -1 37 -20 45 -17 7 -22 18 -22 46 0 45 -20 65 -49 49 -23 -12
-27 -40 -9 -58 9 -9 6 -16 -13 -31 -13 -10 -30 -36 -38 -57 -18 -49 -42 -83
-60 -84 -7 0 -31 -5 -53 -12 -38 -11 -39 -12 -38 -57 1 -68 -13 -154 -26 -158
-15 -5 -25 29 -27 91 -1 27 -7 51 -13 53 -7 2 -10 -5 -7 -20 5 -25 -15 -37
-64 -37 -17 0 -23 -6 -23 -22 -1 -19 -2 -20 -10 -7 -7 12 -21 15 -58 12 l-49
-4 -6 38 c-10 60 -8 101 6 106 20 9 -26 6 -53 -3 -24 -8 -24 -8 -2 -9 21 -1
22 -5 21 -73 -1 -40 -3 -66 -6 -56 -3 14 -10 15 -41 6 -20 -5 -42 -16 -49 -25
-6 -8 -22 -13 -35 -11 -20 3 -24 10 -30 68 -10 82 -6 92 34 90 54 -3 58 -1 56
25 -2 25 -30 45 -36 26 -2 -6 -14 -8 -28 -5 -19 5 -23 3 -18 -10 3 -9 1 -16
-5 -16 -6 0 -11 6 -12 13 0 6 -4 3 -8 -8 -4 -11 -5 -47 -2 -81 8 -74 2 -104
-24 -118 -11 -6 -23 -15 -27 -21 -14 -20 -22 8 -26 95 -4 89 -4 90 19 91 13 1
27 1 32 0 4 0 7 4 7 9 0 6 -25 10 -57 9 -32 0 -52 -3 -45 -6 18 -7 17 -199 -2
-206 -7 -3 -19 0 -25 6 -16 16 -13 0 5 -28 15 -24 15 -25 -8 -34 -21 -8 -119
-16 -156 -12 -7 0 -16 11 -21 24 -8 20 -16 24 -55 23 -41 -1 -46 1 -46 22 0
12 -6 23 -15 23 -8 1 -19 3 -25 4 -5 1 -14 3 -20 4 -5 0 -10 28 -10 60 0 54
-2 60 -22 63 -22 3 -23 9 -29 108 -4 58 -7 181 -8 274 l-1 169 -37 -7 c-21 -3
-73 -6 -116 -6 l-78 0 6 -257 c4 -174 2 -251 -4 -235 -6 12 -18 22 -28 23 -10
0 -42 4 -70 8 -52 7 -52 7 -46 -17 6 -23 4 -24 -38 -19 -24 3 -36 4 -27 1 16
-5 17 -7 2 -21 -13 -14 -17 -14 -30 -1 -12 12 -12 17 5 35 22 24 18 33 -16 33
-16 0 -23 6 -23 20 0 11 7 23 15 26 8 4 15 12 15 20 0 8 6 14 13 14 8 0 7 3
-3 9 -10 7 -18 4 -28 -10 -7 -10 -21 -19 -30 -19 -14 1 -14 3 4 18 19 16 20
21 8 37 -10 13 -17 15 -26 8 -7 -6 -26 -15 -43 -21 l-30 -10 28 -1 c27 -1 38
-23 17 -36 -5 -3 -7 -18 -4 -34 5 -21 1 -30 -12 -35 -24 -9 -53 19 -36 36 18
18 14 30 -7 19 -15 -9 -18 -18 -13 -57 3 -32 1 -45 -6 -40 -6 3 -12 1 -14 -6
-3 -7 -3 18 -2 54 1 36 7 74 13 85 12 24 6 33 -23 33 -17 0 -18 2 -6 10 10 7
11 10 2 10 -7 0 -15 -7 -18 -15 -8 -20 -23 -19 -31 3 -21 59 -87 80 -135 43
-16 -13 -33 -18 -48 -14 -18 5 -31 -3 -64 -38 l-41 -44 -3 33 c-2 22 -9 32
-20 33 -12 0 -11 3 5 9 13 5 23 13 23 19 0 13 -47 20 -59 8 -6 -6 -12 -9 -14
-6 -54 77 -62 114 -14 72 19 -17 19 -17 13 5 -9 28 7 29 34 0 l20 -22 -3 96
-2 96 -85 -5 c-47 -3 -128 -11 -180 -18 -52 -7 -96 -12 -98 -10 -8 8 25 45 40
45 28 0 47 11 42 24 -3 7 -1 24 5 38 8 21 7 24 -12 23 -11 -1 -25 -11 -30 -24
-10 -20 -15 -21 -99 -18 -88 4 -137 21 -87 30 13 3 50 10 83 16 76 14 89 24
73 59 -6 15 -14 29 -18 32 -3 3 -9 15 -13 28 -6 18 -4 22 13 22 16 0 21 6 21
25 0 22 -9 30 -32 26 -4 0 -6 20 -5 46 2 34 -2 47 -13 50 -12 4 -13 3 -1 -5
11 -8 9 -11 -8 -17 -13 -4 -28 -1 -37 6 -13 10 -17 10 -25 -2 -11 -18 -12 -96
0 -103 5 -3 11 -15 14 -27 5 -17 2 -20 -14 -16 -16 4 -17 2 -9 -14 6 -10 19
-23 30 -29 20 -11 28 -50 10 -50 -6 0 -9 4 -8 8 4 11 -69 82 -82 82 -6 0 -10
-5 -10 -11 0 -8 -4 -8 -14 0 -12 10 -17 8 -25 -8 -9 -15 -7 -23 7 -37 16 -17
16 -18 0 -11 -15 5 -18 0 -18 -33 l0 -40 -99 0 -98 0 -25 -67 -25 -68 58 -3
c49 -2 58 -6 63 -25 10 -38 7 -157 -4 -157 -7 0 -7 -6 -2 -17 16 -30 23 -108
13 -135 -8 -21 -14 -24 -40 -20 -17 2 -31 5 -31 6 0 0 -3 40 -7 89 -5 76 -4
87 11 87 10 0 16 9 16 25 0 18 -5 25 -20 25 -16 0 -20 7 -20 31 0 30 -2 31
-33 25 -17 -3 -121 -9 -230 -12 l-197 -7 0 -24 c0 -14 -7 -32 -16 -40 -12 -13
-13 -18 -3 -24 19 -11 -19 -79 -40 -71 -11 4 -8 -5 8 -32 17 -26 25 -59 29
-105 l4 -68 -30 5 c-34 5 -36 10 -46 112 -16 155 -17 213 -5 220 8 5 5 10 -10
15 -11 3 -21 11 -21 16 0 5 -5 9 -11 9 -8 0 -8 -4 1 -15 6 -8 9 -19 5 -25 -3
-5 -1 -10 5 -10 6 0 10 -15 9 -32 0 -18 4 -78 10 -133 15 -145 16 -142 -18
-147 -27 -4 -30 -1 -36 28 -3 18 -8 83 -10 144 -2 62 -6 115 -9 118 -3 3 -6
34 -6 69 0 39 -4 63 -11 63 -7 0 -9 -12 -6 -32 4 -18 11 -105 17 -193 5 -88
12 -177 14 -197 2 -21 0 -38 -5 -38 -5 0 -9 7 -9 15 0 8 -3 15 -7 15 -5 0 -25
4 -45 9 l-38 9 0 -128 0 -128 32 10 c18 6 40 14 50 19 9 4 33 6 55 4 21 -2 29
-2 18 1 -11 3 -28 13 -38 22 -18 16 -17 17 9 24 16 4 38 5 51 2 20 -5 23 -13
23 -49 0 -34 -4 -44 -20 -48 -27 -7 -30 -87 -3 -87 9 0 14 -3 11 -6 -4 -3 -44
-8 -90 -10 -78 -5 -82 -5 -63 11 18 15 18 16 2 11 -10 -3 -23 -6 -28 -6 -5 0
-9 -67 -9 -154 l0 -154 84 29 c86 30 176 50 187 43 15 -9 -4 -44 -25 -44 -11
0 -31 -3 -44 -6 l-23 -7 23 -24 23 -25 -45 5 c-25 3 -53 8 -63 12 -10 4 -28 3
-40 -3 -12 -6 -34 -13 -50 -16 l-27 -6 0 -1330 0 -1330 4005 0 4004 0 16 29
c17 35 111 113 169 143 24 13 68 23 108 26 58 4 69 2 74 -13 9 -23 -19 -46
-143 -121 -51 -30 -93 -57 -93 -60 0 -2 329 -4 730 -4 l730 0 0 213 0 214 -42
-7 c-56 -9 -327 -90 -493 -147 -221 -76 -267 -90 -345 -108 -41 -10 -102 -26
-135 -37 -33 -10 -69 -17 -80 -16 -22 4 -23 3 170 63 61 19 153 47 205 63 52
17 127 42 165 57 39 14 86 31 105 36 62 17 174 51 195 60 19 8 56 16 193 41
l62 11 0 1075 c0 1022 -1 1074 -17 1061 -10 -8 -52 -43 -94 -79 -107 -92 -143
-120 -153 -120 -5 0 1 11 14 25 24 26 23 28 -25 38 -11 3 2 5 28 4 43 0 52 4
92 43 24 23 48 39 54 35 6 -3 10 -2 9 3 -2 6 18 26 45 46 l47 37 0 458 c0 410
-2 460 -16 465 -9 3 -19 4 -23 1 -5 -2 -8 10 -9 28 l-1 32 25 -30 24 -30 -2
255 c-3 226 -5 255 -19 258 -9 2 -24 -4 -32 -13 -10 -9 -18 -11 -22 -5 -3 5
-22 10 -41 10 -28 0 -36 -5 -45 -27 -6 -15 -8 -35 -6 -45 6 -23 -13 -28 -41
-10 -46 30 -46 14 -9 570 l4 52 -91 0 c-50 0 -95 -4 -101 -8z m-478 -38 c-3
-3 -12 -4 -19 -1 -8 3 -5 6 6 6 11 1 17 -2 13 -5z m-367 -84 c0 -5 -4 -10 -10
-10 -5 0 -10 5 -10 10 0 6 5 10 10 10 6 0 10 -4 10 -10z m46 -445 c-10 -8 -16
-21 -13 -29 4 -10 1 -13 -9 -9 -8 3 -14 -1 -14 -10 0 -9 -4 -19 -10 -22 -17
-10 -11 18 10 53 11 17 28 32 37 32 17 -1 17 -2 -1 -15z m-1776 -9 c0 -18 -44
-29 -81 -21 -56 13 -31 27 59 33 13 1 22 -4 22 -12z m680 -66 c12 -7 13 -15 3
-39 -6 -17 -9 -39 -6 -50 3 -10 0 -22 -6 -25 -6 -4 -11 -16 -11 -27 0 -10 -7
-19 -15 -19 -17 0 -20 16 -6 25 13 8 8 100 -7 118 -21 24 16 38 48 17z m2148
-35 c-6 -13 -14 -22 -19 -20 -4 3 -2 16 4 29 7 13 15 22 19 20 4 -3 2 -16 -4
-29z m-2264 -52 c-2 -43 -6 -88 -9 -100 -4 -17 -1 -23 11 -23 22 0 12 -24 -12
-29 -10 -2 -22 -8 -26 -15 -11 -17 -40 17 -32 37 3 9 9 15 13 13 19 -12 28 11
21 49 -6 31 -8 34 -9 13 -1 -38 -21 -36 -21 2 0 17 5 30 11 30 6 0 8 9 4 20
-5 15 -2 20 13 20 14 0 21 9 26 30 10 52 14 33 10 -47z m1386 69 c0 -5 -7 -9
-15 -9 -8 0 -12 4 -9 9 3 4 9 8 15 8 5 0 9 -4 9 -8z m-2125 -12 c3 -5 1 -10
-4 -10 -6 0 -11 5 -11 10 0 6 2 10 4 10 3 0 8 -4 11 -10z m1915 0 c0 -5 -4
-10 -10 -10 -5 0 -10 5 -10 10 0 6 5 10 10 10 6 0 10 -4 10 -10z m-7415 -33
c-3 -12 1 -36 9 -52 9 -17 16 -46 16 -66 0 -23 6 -39 15 -42 34 -14 52 -79 56
-197 4 -112 3 -115 -18 -118 -33 -5 -41 23 -39 136 1 56 -1 107 -5 113 -4 6
-14 -8 -23 -32 l-16 -44 2 50 c2 94 -5 110 -14 35 -5 -41 -9 -82 -9 -91 0 -12
-6 -15 -20 -12 -15 4 -19 0 -20 -18 -2 -24 -4 -42 -9 -69 -6 -36 -19 66 -26
193 l-7 137 35 0 c30 0 37 4 42 25 9 37 25 75 31 75 3 0 3 -10 0 -23z m7372
-2 c-7 -14 -15 -25 -19 -25 -11 0 -10 8 2 31 16 28 30 23 17 -6z m-887 -29 c0
-47 -11 -96 -21 -96 -5 0 -9 10 -9 23 0 13 -5 28 -12 35 -9 9 -9 12 0 12 7 0
12 7 12 15 0 8 -5 15 -12 15 -12 0 21 29 35 30 4 0 7 -15 7 -34z m-949 -19
c-13 -13 -15 1 -4 30 7 17 8 17 11 -1 2 -10 -1 -23 -7 -29z m2029 33 c0 -5 -6
-10 -12 -10 -7 0 -30 -3 -50 -6 -24 -4 -38 -3 -38 4 0 9 22 15 83 20 9 1 17
-2 17 -8z m180 -39 c0 -16 -54 -28 -87 -19 -57 15 -48 28 21 28 36 0 66 -4 66
-9z m358 -29 c-2 -9 -11 -16 -21 -16 -54 4 -53 4 -36 17 26 20 61 19 57 -1z
m-3708 -37 c0 -7 6 -15 13 -18 22 -8 2 -16 -56 -23 -56 -7 -57 -6 -57 19 0 24
3 26 43 24 30 -1 41 2 39 11 -1 8 2 11 8 7 5 -3 10 -12 10 -20z m730 10 c6 3
10 -3 10 -14 0 -17 -6 -21 -30 -21 -22 0 -30 5 -30 18 0 26 11 34 26 21 7 -6
18 -8 24 -4z m285 -7 c7 -7 -2 -8 -25 -3 -19 4 -39 11 -45 16 -6 6 4 7 25 3
19 -4 40 -11 45 -16z m2178 15 c4 -3 -2 -12 -13 -20 -20 -14 -29 -40 -10 -28
5 3 13 -9 18 -27 7 -28 5 -36 -16 -55 -29 -26 -29 -26 -37 -13 -4 6 -1 9 7 8
7 -2 14 7 16 20 2 12 8 22 14 22 6 0 4 8 -5 18 -9 10 -20 33 -23 50 -6 29 -4
32 18 32 14 0 28 -3 31 -7z m-76 -10 c-4 -3 0 -18 9 -31 16 -24 16 -26 -6 -44
-22 -18 -23 -18 -36 8 -12 22 -11 29 4 50 9 13 21 24 26 24 5 0 6 -3 3 -7z
m305 -46 c3 -23 1 -47 -4 -53 -5 -7 -2 -26 7 -47 17 -42 19 -50 6 -42 -6 3
-14 -3 -20 -12 -8 -15 -13 -16 -30 -5 -55 33 -123 3 -137 -61 l-6 -29 -20 20
c-19 19 -17 49 3 37 5 -4 9 1 9 9 0 9 5 16 10 16 6 0 10 7 10 15 0 20 41 61
57 57 7 -2 13 1 13 5 0 5 14 17 30 27 29 17 30 20 24 66 -6 47 -6 48 19 43 21
-4 26 -12 29 -46z m113 32 c3 -5 -1 -6 -9 -3 -13 5 -16 -1 -15 -27 1 -24 3
-27 6 -11 5 24 28 30 36 10 3 -7 6 -4 7 7 1 19 1 19 11 2 23 -40 -12 -67 -89
-67 -23 0 -24 2 -18 42 4 23 11 45 16 48 16 10 49 9 55 -1z m-1865 -50 c0 -5
-9 -1 -20 8 -11 10 -20 24 -20 33 1 11 6 8 20 -9 11 -13 20 -27 20 -32z m1977
45 c-3 -3 -12 -4 -19 -1 -8 3 -5 6 6 6 11 1 17 -2 13 -5z m-676 -36 c11 -21
11 -22 -4 -9 -10 7 -17 17 -17 22 0 15 9 10 21 -13z m-1216 2 c3 -5 1 -10 -4
-10 -6 0 -11 5 -11 10 0 6 2 10 4 10 3 0 8 -4 11 -10z m325 -5 c0 -8 -2 -15
-4 -15 -2 0 -6 7 -10 15 -3 8 -1 15 4 15 6 0 10 -7 10 -15z m-650 -5 c0 -12
-80 -110 -102 -124 -22 -14 -26 -9 -30 43 -3 41 0 47 31 68 34 23 101 32 101
13z m2780 -20 c0 -16 -4 -30 -9 -30 -8 0 -9 43 -2 58 5 11 11 -3 11 -28z
m-2444 -1 c3 -5 -2 -12 -11 -16 -15 -5 -34 10 -35 29 0 9 39 -2 46 -13z m1374
-9 c0 -5 -4 -10 -10 -10 -5 0 -10 5 -10 10 0 6 5 10 10 10 6 0 10 -4 10 -10z
m-1290 -10 c-19 -13 -30 -13 -30 0 0 6 10 10 23 10 18 0 19 -2 7 -10z m140 0
c18 -12 2 -12 -25 0 -13 6 -15 9 -5 9 8 0 22 -4 30 -9z m-2001 -46 c-9 -11
-15 -12 -23 -4 -8 8 -6 15 9 26 23 17 34 2 14 -22z m2047 4 c-25 -32 -41 -37
-26 -8 6 11 8 20 5 20 -4 0 -4 4 -1 8 2 4 13 8 24 8 19 0 19 -1 -2 -28z m399
11 c13 -6 -7 -8 -59 -4 -43 3 -96 5 -118 5 -21 0 -38 4 -38 8 0 10 189 2 215
-9z m-2285 -29 c-7 -40 -25 -70 -41 -70 -16 0 -9 25 11 43 11 9 20 28 20 42 0
14 4 25 9 25 4 0 5 -18 1 -40z m576 -3 c4 -14 -2 -26 -21 -43 -16 -13 -34 -24
-42 -24 -7 0 -13 -4 -13 -9 0 -5 -6 -11 -14 -14 -10 -4 -12 0 -8 16 4 15 -3
28 -26 46 -28 24 -29 28 -16 46 14 19 16 19 25 2 10 -17 12 -16 35 2 21 16 30
18 49 9 14 -6 27 -20 31 -31z m1254 19 c0 -18 -12 -26 -47 -32 l-28 -5 24 25
c27 29 51 34 51 12z m-3166 -11 c-7 -16 -24 -21 -24 -6 0 8 7 13 27 20 1 1 0
-6 -3 -14z m126 -1 c0 -8 -4 -12 -10 -9 -5 3 -10 10 -10 16 0 5 5 9 10 9 6 0
10 -7 10 -16z m2960 -16 c0 -5 -9 -12 -20 -15 -11 -3 -20 -10 -20 -16 0 -6 -2
-8 -5 -5 -3 3 -1 17 4 31 7 18 15 25 26 21 8 -3 15 -11 15 -16z m-2820 -27 c1
-3 5 -25 9 -48 6 -31 5 -48 -5 -60 -13 -17 -14 -17 -8 0 5 14 0 17 -25 17 -18
0 -31 5 -31 13 0 6 -8 2 -18 -9 -9 -12 -27 -25 -38 -28 -18 -5 -22 -1 -28 25
-10 49 -7 73 10 97 15 21 17 22 28 6 10 -13 17 -14 34 -5 12 6 22 16 22 22 0
10 50 -19 50 -30z m3161 19 c4 -8 10 -24 14 -34 4 -15 8 -17 17 -8 7 7 24 12
39 12 15 0 39 4 53 10 14 5 26 6 26 1 0 -11 -25 -21 -55 -21 -42 0 -55 -11
-55 -44 0 -18 -5 -37 -12 -44 -9 -9 1 -12 45 -12 64 0 73 -10 24 -28 -41 -15
-107 -16 -107 -2 0 6 9 29 20 51 24 46 21 55 -22 65 -18 3 -40 11 -50 17 -16
11 -16 13 4 35 24 25 46 26 59 2z m-6084 4 c-3 -3 -12 -4 -19 -1 -8 3 -5 6 6
6 11 1 17 -2 13 -5z m2360 -16 c-3 -8 -6 -5 -6 6 -1 11 2 17 5 13 3 -3 4 -12
1 -19z m4081 -10 c-18 -27 -23 -29 -26 -15 -4 21 15 47 35 47 11 0 9 -8 -9
-32z m522 16 c0 -7 -9 -16 -21 -19 -14 -5 -19 -13 -16 -26 4 -15 2 -17 -13 -9
-23 12 -34 40 -16 40 7 0 19 6 25 13 14 17 41 18 41 1z m-8175 -4 c3 -6 -1 -7
-9 -4 -18 7 -21 14 -7 14 6 0 13 -4 16 -10z m6392 -32 c-3 -8 -6 -5 -6 6 -1
11 2 17 5 13 3 -3 4 -12 1 -19z m628 13 c8 -13 -12 -24 -52 -27 -23 -2 -33 2
-30 9 3 10 26 18 69 26 4 0 9 -3 13 -8z m-3448 -48 c-3 -10 -5 -2 -5 17 0 19
2 27 5 18 2 -10 2 -26 0 -35z m1020 7 c-9 -24 -9 -35 1 -51 8 -12 9 -18 3 -15
-16 10 -25 -15 -31 -89 l-5 -70 -12 83 c-10 78 -10 85 8 103 10 10 19 27 19
37 0 20 8 32 21 32 4 0 2 -14 -4 -30z m1418 20 c-3 -5 0 -10 7 -10 9 0 9 -3
-2 -10 -8 -5 -19 -10 -25 -10 -5 0 -3 5 5 10 11 7 11 10 2 10 -7 0 -10 5 -7
10 3 6 11 10 16 10 6 0 7 -4 4 -10z m1685 -11 c0 -5 -7 -9 -15 -9 -15 0 -20
12 -9 23 8 8 24 -1 24 -14z m-2350 3 c0 -4 -11 -16 -25 -26 -14 -10 -25 -25
-25 -32 0 -18 -11 -18 -36 0 -19 14 -19 15 1 21 49 16 66 26 60 35 -3 6 1 10
9 10 9 0 16 -3 16 -8z m-890 -17 c0 -8 -4 -15 -10 -15 -5 0 -7 7 -4 15 4 8 8
15 10 15 2 0 4 -7 4 -15z m95 -5 c3 -6 -4 -10 -17 -10 -18 0 -20 2 -8 10 19
12 18 12 25 0z m2865 1 c0 -5 -9 -7 -20 -4 -11 3 -20 7 -20 9 0 2 9 4 20 4 11
0 20 -4 20 -9z m1660 -13 c0 -40 -13 -48 -40 -26 -24 19 -24 20 -5 34 28 20
45 17 45 -8z m-1530 2 c-21 -7 -19 -8 18 -9 35 -1 42 -4 42 -21 0 -10 -10 -28
-22 -40 l-22 -20 22 0 c13 0 25 7 29 16 5 13 8 13 15 2 6 -9 7 -6 3 10 -5 17
-2 22 12 21 43 -1 52 -12 39 -49 -7 -19 -17 -34 -23 -33 -6 1 -9 -6 -5 -19 3
-13 1 -19 -5 -15 -7 5 -9 0 -6 -12 7 -26 -9 -33 -39 -17 -18 9 -31 10 -43 3
-16 -8 -17 -6 -13 17 4 20 -1 32 -23 51 -31 26 -38 55 -14 55 8 0 15 5 15 11
0 7 -10 9 -26 6 -19 -3 -24 -1 -19 11 3 8 0 21 -6 28 -9 12 -2 14 42 13 42 -1
49 -3 29 -9z m-2334 -14 c19 -15 19 -15 -1 -30 -20 -16 -20 -16 5 -37 l25 -20
-25 7 c-14 4 -28 11 -32 17 -10 16 -59 17 -75 1 -11 -10 -13 -25 -8 -55 6 -33
4 -40 -6 -37 -8 3 -13 12 -13 21 1 13 -2 14 -16 7 -10 -5 -20 -17 -24 -25 -4
-13 -10 -14 -26 -5 -14 8 -26 8 -41 -1 -21 -11 -22 -10 -16 27 8 48 54 96 94
98 16 1 40 8 54 17 23 16 49 25 75 28 5 0 19 -5 30 -13z m-981 -24 c-8 -8 -25
10 -19 20 4 6 9 5 15 -3 4 -7 6 -15 4 -17z m135 2 c-15 -39 -12 -52 12 -56 12
-2 24 -9 26 -17 3 -10 0 -12 -14 -7 -11 4 -23 8 -29 9 -5 1 -14 -35 -19 -80
-5 -46 -13 -83 -17 -83 -4 0 -9 30 -11 68 -2 37 -8 75 -12 85 -7 14 -4 19 12
24 21 5 39 39 28 50 -3 3 -13 0 -21 -7 -12 -10 -19 -10 -27 -2 -9 9 -8 12 5
12 9 0 17 4 17 9 0 8 8 11 52 20 4 0 3 -11 -2 -25z m1356 7 c-3 -4 3 -16 14
-26 20 -18 20 -18 -7 -32 -23 -12 -29 -12 -40 0 -11 11 -12 19 -2 40 7 15 19
27 26 27 8 0 12 -4 9 -9z m1308 3 c15 -6 15 -8 -1 -20 -10 -7 -27 -14 -37 -14
-18 0 -18 1 -1 20 21 23 18 22 39 14z m1896 -7 c0 -14 -19 -37 -31 -37 -4 0
-2 11 4 25 13 27 27 33 27 12z m-5330 -6 c0 -5 -10 -11 -22 -14 -13 -2 -31 -8
-41 -12 -13 -5 -16 -3 -11 8 3 9 20 18 37 20 18 2 33 5 35 5 1 1 2 -2 2 -7z
m2877 3 c-3 -3 -12 -4 -19 -1 -8 3 -5 6 6 6 11 1 17 -2 13 -5z m-4727 -14 c0
-5 -2 -10 -4 -10 -3 0 -8 5 -11 10 -3 6 -1 10 4 10 6 0 11 -4 11 -10z m3896
-30 c0 -27 -21 -13 -22 14 -1 19 1 22 10 14 6 -6 12 -19 12 -28z m239 18 c11
-2 19 -10 17 -17 -2 -8 3 -11 12 -8 8 3 36 -1 62 -10 l47 -16 24 29 c12 16 23
24 23 17 0 -6 -16 -28 -36 -48 -19 -20 -34 -44 -33 -53 3 -32 -1 -41 -16 -36
-8 4 -15 15 -15 25 0 12 -7 19 -20 19 -11 0 -20 -4 -20 -10 0 -5 -15 -10 -34
-10 -27 0 -36 5 -42 23 -3 12 -12 28 -18 36 -9 11 -12 9 -17 -15 -5 -23 -7
-25 -13 -12 -9 19 43 116 53 100 3 -5 15 -12 26 -14z m2965 15 c0 -9 -52 -35
-58 -29 -2 3 9 11 25 20 33 18 33 18 33 9z m-5144 -30 c-10 -10 -19 5 -10 18
6 11 8 11 12 0 2 -7 1 -15 -2 -18z m204 8 c0 -6 -4 -13 -10 -16 -5 -3 -10 1
-10 9 0 9 5 16 10 16 6 0 10 -4 10 -9z m-3900 -11 c0 -5 -4 -10 -10 -10 -5 0
-10 5 -10 10 0 6 5 10 10 10 6 0 10 -4 10 -10z m4020 0 c0 -5 -5 -10 -11 -10
-5 0 -7 5 -4 10 3 6 8 10 11 10 2 0 4 -4 4 -10z m2930 -11 c0 -4 -7 -6 -15 -3
-8 4 -15 10 -15 15 0 4 7 6 15 3 8 -4 15 -10 15 -15z m2189 -37 c1 -7 -3 -10
-9 -7 -5 3 -10 -1 -10 -10 0 -9 4 -14 9 -11 5 3 14 -1 20 -8 17 -21 -4 -30
-24 -10 -13 14 -16 69 -5 104 2 6 18 -41 19 -58z m-7370 39 c12 -8 12 -12 2
-25 -19 -23 -28 -20 -28 9 0 27 4 30 26 16z m3906 -1 c3 -5 2 -10 -4 -10 -5 0
-13 5 -16 10 -3 6 -2 10 4 10 5 0 13 -4 16 -10z m3025 -6 c0 -10 -5 -14 -16
-10 -9 4 -13 2 -8 -5 3 -6 20 -9 36 -7 30 5 30 4 24 -34 -6 -36 -5 -38 19 -38
25 0 34 -14 16 -24 -5 -3 -7 -15 -4 -26 4 -16 0 -20 -22 -20 -24 0 -26 3 -20
29 6 28 4 29 -42 38 -44 8 -48 11 -46 35 1 26 38 78 55 78 4 0 8 -7 8 -16z
m-6977 -14 c-3 -11 -9 -17 -14 -14 -14 8 -10 34 5 34 9 0 12 -7 9 -20z m-1072
-35 c10 3 28 8 39 11 20 5 25 -3 20 -35 -1 -10 6 -12 25 -9 31 6 46 -11 16
-19 -26 -7 -26 -8 -3 -31 14 -14 25 -16 41 -10 37 13 56 -13 29 -40 -9 -9 -14
-7 -23 5 -14 19 -28 3 -15 -17 11 -17 164 -20 337 -7 155 11 166 19 157 101
l-7 56 29 1 c16 0 62 4 102 8 56 5 72 4 72 -6 0 -7 9 -13 21 -13 34 0 16 -22
-21 -27 -73 -8 -37 -13 81 -12 84 1 144 -3 188 -14 37 -9 71 -13 80 -8 25 13
121 23 121 12 0 -12 -29 -23 -43 -14 -7 4 -8 0 -3 -12 6 -15 4 -16 -10 -5 -10
9 -18 10 -22 3 -8 -12 -59 -27 -252 -76 -145 -37 -149 -38 -490 -66 -353 -30
-400 -33 -400 -26 0 4 9 19 20 33 17 21 18 27 7 34 -9 4 -12 17 -10 32 3 16
-2 32 -16 47 -12 13 -21 28 -21 35 0 7 -4 16 -10 19 -6 3 -7 -1 -4 -9 4 -11 0
-16 -11 -16 -9 0 -15 5 -13 12 2 6 -6 21 -19 34 -14 14 -22 34 -22 51 l2 28 4
-28 c4 -22 9 -27 24 -22z m4606 31 c-3 -8 -11 -41 -18 -75 -18 -96 -50 -123
-52 -46 -1 33 -2 35 -14 19 -7 -10 -13 -14 -13 -9 0 14 32 45 46 45 7 0 19 18
25 40 7 22 16 40 22 40 5 0 7 -6 4 -14z m1843 7 c0 -5 -5 -15 -10 -23 -7 -12
-9 -10 -7 8 1 19 17 33 17 15z m661 -20 c-12 -20 -14 -14 -5 12 4 9 9 14 11
11 3 -2 0 -13 -6 -23z m-4341 3 c0 -21 -21 -31 -30 -15 -5 7 -6 17 -4 21 9 14
34 9 34 -6z m661 -31 c10 -4 19 -11 19 -16 0 -6 -7 -6 -19 1 -27 14 -31 5 -33
-89 -2 -65 -6 -81 -18 -81 -23 0 -20 179 4 192 9 5 17 17 17 26 1 11 3 9 6 -5
2 -12 13 -25 24 -28z m-407 -64 l-6 -88 32 -7 c18 -3 60 -6 93 -6 l60 0 -7 71
c-4 39 -10 77 -13 85 -3 8 -1 14 4 14 19 0 33 -52 34 -121 l1 -69 42 0 c30 0
37 -3 26 -10 -8 -5 -22 -8 -30 -6 -8 3 -60 8 -114 11 -55 4 -110 9 -123 11
-18 3 -23 0 -23 -16 0 -20 -11 -26 -23 -13 -4 3 -2 11 3 18 6 8 6 12 -3 13
-85 6 -170 15 -202 21 l-40 8 37 7 c21 5 46 5 55 2 9 -4 52 -9 95 -13 l78 -5
0 72 c0 63 11 110 26 110 2 0 2 -40 -2 -89z m1985 57 c-8 -14 -14 -18 -17 -10
-4 13 17 46 25 38 3 -2 -1 -15 -8 -28z m-3809 2 c0 -11 -7 -20 -15 -20 -8 0
-15 9 -15 20 0 11 7 20 15 20 8 0 15 -9 15 -20z m5846 -5 c-24 -26 -46 -33
-46 -15 0 6 5 10 11 10 6 0 17 7 25 15 26 26 34 17 10 -10z m-6048 9 c-9 -9
-108 -11 -108 -2 0 4 26 8 57 8 31 0 54 -3 51 -6z m2302 2 c0 -3 -4 -8 -10
-11 -5 -3 -10 -1 -10 4 0 6 5 11 10 11 6 0 10 -2 10 -4z m3183 -21 c-1 -11 3
-22 8 -26 14 -8 0 -39 -18 -39 -10 0 -12 6 -8 19 4 14 0 23 -15 31 -31 16 -26
42 8 38 20 -2 27 -8 25 -23z m-7122 -28 c-7 -7 -15 -6 -26 3 -20 16 -19 28 3
32 21 5 38 -20 23 -35z m3499 -28 c0 -71 -17 -79 -22 -10 -4 58 0 83 13 76 5
-4 9 -33 9 -66z m1935 61 c3 -5 -1 -10 -9 -10 -8 0 -18 5 -21 10 -3 6 1 10 9
10 8 0 18 -4 21 -10z m-5623 -27 c2 -23 7 -28 28 -25 13 1 31 0 40 -3 12 -5
10 -9 -10 -20 -32 -18 -70 -19 -70 -1 0 7 -3 28 -6 45 -4 19 -2 31 4 31 6 0
12 -12 14 -27z m2156 -28 c1 -44 -1 -53 -13 -48 -17 6 -18 12 -5 33 5 9 5 19
-2 27 -7 9 -7 17 2 28 7 8 13 15 14 15 2 0 3 -25 4 -55z m3142 15 c0 -5 -4
-10 -10 -10 -5 0 -10 5 -10 10 0 6 5 10 10 10 6 0 10 -4 10 -10z m2929 -7 c-7
-10 -30 -36 -51 -57 -21 -22 -38 -45 -38 -52 0 -11 -29 -29 -35 -22 -2 2 0 24
4 50 10 61 40 92 93 96 38 2 40 1 27 -15z m-3006 -18 c-19 -26 -43 -33 -43
-12 0 19 21 37 42 37 18 0 18 -1 1 -25z m1030 -5 c-3 -12 -8 -19 -11 -16 -5 6
5 36 12 36 2 0 2 -9 -1 -20z m1021 -24 c13 -14 15 -18 4 -14 -9 4 -20 2 -26
-4 -16 -16 -29 -2 -30 32 -1 34 4 32 52 -14z m2073 38 c-3 -3 -12 -4 -19 -1
-8 3 -5 6 6 6 11 1 17 -2 13 -5z m-559 -18 c-2 -8 6 -21 16 -29 18 -13 18 -14
-12 -19 -25 -3 -33 0 -38 14 -4 13 1 25 13 33 23 18 25 18 21 1z m464 -18 c-7
-7 -12 -8 -12 -2 0 14 12 26 19 19 2 -3 -1 -11 -7 -17z m-3489 -9 c-6 -6 -48
-16 -93 -21 -68 -9 -83 -14 -90 -32 -8 -19 -9 -19 -9 6 -1 30 1 30 121 43 32
4 60 11 64 16 3 6 9 8 12 4 3 -3 1 -10 -5 -16z m-5683 1 c0 -5 -5 -10 -11 -10
-5 0 -7 5 -4 10 3 6 8 10 11 10 2 0 4 -4 4 -10z m4652 -10 c-41 -25 -50 -25
-27 0 10 11 28 20 39 20 17 0 15 -4 -12 -20z m4488 5 c-12 -15 -30 -12 -30 6
0 5 10 9 21 9 18 0 19 -2 9 -15z m-2973 -22 c-2 -25 1 -28 36 -31 20 -2 37 -7
37 -12 0 -6 -19 -7 -43 -4 -35 5 -45 3 -50 -10 -4 -10 -1 -19 7 -22 18 -7 8
-46 -11 -42 -20 4 -47 52 -40 72 4 9 16 16 27 16 14 0 20 7 20 23 0 21 7 37
16 37 2 0 2 -12 1 -27z m673 -35 c0 -68 -13 -75 -32 -16 -11 34 -19 43 -45 50
-54 14 -46 26 17 24 l60 -1 0 -57z m2236 15 c-10 -37 -17 -48 -38 -54 -41 -11
-41 0 0 38 20 19 32 32 25 29 -17 -9 -28 15 -12 25 31 20 37 11 25 -38z
m-5706 33 c0 -11 -19 -15 -25 -6 -3 5 1 10 9 10 9 0 16 -2 16 -4z m3338 -21
c2 -17 -4 -20 -48 -22 -27 -1 -50 2 -50 6 0 13 27 21 45 15 10 -4 15 0 15 11
0 24 34 15 38 -10z m-3240 8 c-10 -2 -26 -2 -35 0 -10 3 -2 5 17 5 19 0 27 -2
18 -5z m-1447 -13 c5 0 9 -26 9 -57 0 -85 7 -103 40 -103 21 0 29 6 34 24 6
26 7 26 175 41 l63 5 -6 -32 c-11 -57 -23 -62 -161 -62 -115 -1 -156 -10 -104
-23 16 -4 17 -8 7 -14 -9 -6 -6 -9 10 -9 13 0 21 4 17 9 -10 18 202 35 227 20
10 -7 9 -9 -4 -9 -10 0 -17 -6 -15 -12 1 -9 -15 -13 -53 -14 l-55 -1 50 8 c33
5 20 5 -40 1 -128 -8 -222 -8 -278 0 -55 9 -57 -7 -2 -18 41 -7 51 -31 41 -96
-4 -24 -7 -55 -8 -69 -1 -20 -5 -25 -20 -22 -10 3 -18 1 -18 -5 0 -5 -12 -15
-27 -20 -16 -5 -36 -13 -45 -17 -15 -6 -17 0 -16 46 0 45 -4 56 -30 81 -43 40
-84 38 -128 -6 -19 -19 -34 -41 -34 -49 0 -8 -7 -20 -15 -27 -8 -7 -15 -23
-15 -36 0 -15 -6 -24 -16 -24 -8 0 -22 -7 -31 -15 -9 -9 -23 -13 -34 -10 -13
4 -19 2 -19 -9 0 -8 -9 -20 -19 -26 -28 -14 -34 -13 -28 9 4 18 0 19 -46 15
-28 -3 -54 -10 -58 -15 -7 -12 -41 -9 -50 4 -3 4 -12 1 -19 -8 -8 -10 -9 -15
-2 -15 7 0 9 -8 5 -17 -6 -16 -5 -17 11 -3 16 12 83 16 95 5 2 -2 -12 -23 -30
-47 -36 -46 -41 -53 -96 -157 -20 -36 -43 -72 -52 -80 -12 -10 -13 -15 -3 -18
6 -3 12 -12 12 -21 0 -15 -1 -15 -17 0 -12 12 -18 43 -22 117 -3 56 -5 105 -3
110 2 5 21 7 44 4 45 -7 58 5 57 47 -1 22 -2 20 -10 -8 -8 -26 -14 -32 -27
-27 -9 4 -36 9 -58 12 -38 5 -42 3 -46 -20 -3 -14 -2 -31 2 -39 4 -7 11 -43
15 -80 5 -52 3 -68 -6 -68 -10 0 -10 -3 -1 -12 7 -7 12 -16 12 -20 0 -14 -37
-9 -50 7 -10 12 -10 15 1 15 8 0 6 6 -7 16 -10 8 -14 13 -8 10 8 -4 10 11 7
47 -4 61 14 147 35 163 12 9 12 13 2 19 -9 6 -11 4 -5 -4 4 -7 -14 8 -40 34
-25 26 -44 49 -41 53 3 3 1 11 -4 17 -19 23 -1 41 45 44 39 2 45 -1 45 -18 0
-22 23 -19 48 6 9 9 26 11 48 7 19 -3 42 -7 51 -8 10 0 21 -7 24 -15 3 -9 22
-16 50 -17 l44 -2 -33 27 c-46 40 -93 52 -212 58 -124 6 -160 -4 -160 -43 0
-17 -4 -24 -13 -21 -7 2 -39 0 -70 -5 -53 -9 -59 -8 -77 12 -10 12 -21 40 -25
63 -4 23 -9 50 -12 60 -4 16 -1 18 19 13 12 -3 18 -3 11 0 -7 3 -9 12 -6 20 4
10 0 13 -13 8 -15 -5 -14 -3 4 10 21 16 21 18 5 34 -11 12 -18 13 -20 5 -3 -7
-11 -9 -19 -6 -7 3 -11 9 -8 14 3 5 -2 9 -11 9 -10 0 -13 -5 -9 -11 5 -8 -1
-10 -19 -7 -15 3 -28 1 -29 -4 -6 -16 -56 3 -61 23 -3 10 -2 21 2 24 4 2 70 9
147 15 76 6 216 19 309 30 94 10 229 22 300 25 114 5 142 10 230 42 55 19 142
48 193 63 51 15 103 35 115 43 12 9 28 14 35 11 8 -2 18 -4 23 -4z m2605 -27
c18 -18 23 -30 17 -46 -10 -31 -4 -59 18 -79 20 -20 29 -22 29 -10 0 5 -10 14
-22 19 -22 10 -22 11 4 9 14 0 24 -4 21 -8 -2 -5 0 -8 6 -8 5 0 12 6 14 13 3
6 6 0 6 -14 1 -37 -20 -52 -53 -39 -15 5 -24 14 -21 20 3 5 3 10 -2 10 -4 0
-18 3 -30 6 -20 5 -23 2 -23 -20 0 -17 10 -36 28 -51 27 -24 27 -24 3 -18 -16
4 -22 2 -18 -4 4 -6 0 -13 -8 -17 -11 -4 -13 -11 -5 -31 8 -21 6 -32 -10 -53
-11 -15 -21 -37 -23 -49 -2 -11 -9 -28 -15 -36 -9 -10 -10 -17 -2 -22 27 -17
-15 -60 -68 -68 -45 -8 -83 -50 -62 -71 8 -8 9 -6 4 9 -7 19 -7 20 13 2 20
-17 23 -17 52 -3 16 9 40 16 53 15 18 0 13 -4 -17 -16 -58 -24 -119 -68 -203
-145 -40 -37 -79 -68 -85 -68 -7 0 -6 -4 3 -11 11 -8 12 -12 3 -16 -7 -2 -13
-20 -13 -38 0 -25 7 -38 28 -53 39 -27 111 -54 124 -46 8 5 9 -1 5 -17 -4 -13
-7 -43 -7 -67 0 -26 -4 -41 -10 -37 -5 3 -10 14 -10 24 0 25 -28 47 -41 34 -5
-5 -14 -39 -18 -74 -5 -35 -9 -49 -10 -31 -1 21 -6 32 -16 32 -9 0 -15 9 -15
23 -1 13 -15 33 -38 50 -40 31 -34 33 -77 -28 -14 -19 -14 -19 -13 10 0 17 -3
42 -7 58 -7 27 -7 27 21 17 27 -10 27 -10 12 7 -22 25 -30 56 -30 113 1 35 -3
50 -15 54 -25 10 -53 -3 -53 -25 0 -25 -12 -24 -30 1 -14 20 -22 23 -137 56
-78 22 -83 39 -8 30 35 -4 55 -2 55 4 0 5 -9 11 -20 11 -11 1 -24 3 -30 4 -5
1 -18 3 -28 4 -14 1 -19 9 -19 32 0 22 -9 38 -33 59 -18 16 -34 37 -35 47 0
10 -4 24 -9 31 -4 6 -2 12 3 12 6 0 11 7 11 15 0 21 -54 20 -71 -1 -10 -12
-24 -15 -57 -10 -38 5 -46 3 -68 -21 -17 -18 -24 -37 -24 -64 0 -41 -26 -66
-57 -55 -9 4 -41 1 -71 -6 -48 -11 -57 -17 -69 -47 -11 -25 -12 -40 -4 -60 6
-14 9 -42 7 -61 -2 -19 -4 -41 -5 -47 -2 -21 -28 -15 -49 12 -11 14 -24 25
-30 25 -11 0 -22 24 -22 48 0 10 -9 34 -20 55 -11 21 -32 68 -46 105 -14 37
-31 77 -39 88 -13 20 -12 22 17 28 17 3 67 6 112 6 89 0 129 13 76 24 -18 3
-50 6 -71 6 -36 0 -39 3 -49 38 -7 22 -10 106 -8 212 l3 175 24 3 c19 3 21 6
10 14 -9 6 5 8 46 3 118 -12 317 -16 310 -5 -7 12 27 14 41 1 10 -9 156 -31
247 -37 31 -2 66 -8 76 -14 31 -16 74 -13 67 5 -3 8 -1 15 3 15 5 0 17 3 27 7
13 5 16 3 11 -9 -4 -11 2 -17 18 -20 32 -7 53 7 24 15 -31 8 -15 25 31 31 69
9 115 19 125 26 6 4 37 11 69 15 33 4 69 11 80 15 12 5 54 6 95 3 59 -5 78
-10 97 -30z m104 27 c0 -5 -9 -10 -21 -10 -11 0 -17 5 -14 10 3 6 13 10 21 10
8 0 14 -4 14 -10z m851 -37 c10 -26 -2 -30 -25 -8 -8 8 -22 15 -31 15 -9 0
-13 5 -10 11 12 18 57 6 66 -18z m2884 -30 c-37 -48 -39 -61 -8 -44 52 28 84
40 80 28 -2 -6 -14 -14 -28 -18 -13 -4 -21 -7 -17 -8 4 -1 -4 -12 -18 -26 -20
-20 -23 -31 -18 -63 6 -38 5 -38 -34 -50 -52 -16 -62 -15 -62 4 0 9 5 12 12 8
7 -5 9 -2 5 9 -11 29 28 117 74 163 24 24 45 44 47 44 1 0 -13 -21 -33 -47z
m-5529 19 c-3 -3 2 -10 11 -17 14 -10 18 -44 26 -194 6 -100 7 -184 4 -188 -7
-7 -118 -5 -125 2 -2 2 -7 80 -10 173 -4 149 -3 169 11 175 9 3 19 2 22 -3 4
-6 14 -10 23 -10 14 0 13 4 -5 22 -20 20 -27 21 -78 11 -30 -5 -55 -6 -55 -1
0 4 7 8 15 8 8 0 15 7 15 15 0 19 76 21 83 3 4 -9 6 -8 6 3 1 12 9 14 31 11
17 -2 29 -7 26 -10z m2962 9 c9 -5 30 -13 46 -17 41 -12 49 -39 10 -30 -16 4
-35 13 -43 21 -10 10 -21 11 -39 4 -31 -12 -52 -5 -52 16 0 17 48 21 78 6z
m1427 -20 c-6 -5 -25 10 -25 20 0 5 6 4 14 -3 8 -7 12 -15 11 -17z m1550 1
c-3 -4 -22 -7 -40 -7 -27 -1 -35 2 -35 16 0 15 5 16 40 7 23 -6 38 -13 35 -16z
m-6402 0 c-35 -5 -29 -32 7 -32 20 0 30 5 30 15 0 8 7 15 15 15 8 0 15 -6 15
-14 0 -8 8 -17 18 -20 9 -3 -31 -4 -91 -2 -101 3 -128 8 -114 22 11 12 112 31
127 25 11 -4 9 -7 -7 -9z m2354 -4 c-3 -8 -6 -5 -6 6 -1 11 2 17 5 13 3 -3 4
-12 1 -19z m-877 -2 c0 -3 -4 -8 -10 -11 -5 -3 -10 -1 -10 4 0 6 5 11 10 11 6
0 10 -2 10 -4z m990 -5 c-1 -16 -19 -33 -29 -27 -6 4 -13 -4 -17 -19 -8 -32
-44 -35 -44 -3 0 31 26 55 60 55 17 0 30 -3 30 -6z m527 -41 c-4 -35 -3 -39
10 -29 13 11 13 8 -1 -22 -8 -19 -17 -42 -20 -52 -3 -10 -12 -17 -19 -14 -6 2
-10 11 -7 18 2 8 6 42 8 77 3 48 7 62 19 62 12 0 15 -8 10 -40z m1333 15 c0
-8 -5 -26 -12 -42 l-11 -28 -7 40 c-5 22 -6 43 -4 47 7 11 34 -3 34 -17z m450
16 c0 -5 -7 -12 -16 -15 -24 -9 -28 -7 -14 9 14 17 30 20 30 6z m56 -23 c-2
-37 -27 -49 -51 -24 -16 16 -20 31 -6 22 5 -3 12 1 15 10 4 9 13 14 21 10 8
-3 15 -1 15 4 0 6 2 10 4 10 2 0 3 -15 2 -32z m610 17 c-3 -9 0 -15 8 -15 7 0
13 -7 13 -15 0 -17 -3 -17 -45 -9 -21 4 -31 13 -35 30 -4 22 -1 24 30 24 27 0
34 -3 29 -15z m88 0 c-10 -8 -28 -14 -39 -14 -16 1 -13 4 10 14 40 19 53 19
29 0z m701 -75 c-17 -50 -85 -136 -98 -123 -4 3 -7 1 -7 -5 0 -6 -6 -9 -14 -6
-8 3 -23 -7 -35 -23 -11 -15 -24 -32 -29 -38 -4 -5 -23 -32 -42 -60 -18 -27
-37 -52 -41 -55 -10 -7 -79 -191 -79 -212 0 -15 4 -16 38 -4 20 8 53 22 74 31
l36 18 56 -49 c31 -27 56 -52 56 -56 0 -11 -32 3 -54 24 -11 10 -24 18 -28 18
-5 0 -6 5 -3 10 3 6 -1 10 -9 10 -9 0 -16 5 -16 10 0 6 -4 10 -10 10 -5 0 -10
-7 -10 -15 0 -9 -6 -15 -12 -14 -7 1 -26 1 -43 0 -23 -1 -27 -3 -15 -11 12 -8
10 -10 -11 -10 -35 0 -42 -10 -23 -32 14 -14 14 -21 4 -32 -10 -13 -7 -20 14
-40 19 -17 23 -26 14 -30 -10 -5 -10 -7 0 -12 6 -3 12 -16 12 -29 0 -26 -37
-40 -73 -29 -12 4 -60 45 -107 92 l-85 85 30 13 c17 7 40 13 53 14 12 0 22 5
22 10 0 6 10 8 23 5 33 -8 40 2 73 96 l30 87 -39 -14 c-22 -8 -49 -14 -61 -13
-13 0 -5 5 19 13 53 17 97 59 111 107 7 21 10 39 7 39 -2 0 -18 -13 -36 -30
-18 -16 -35 -30 -39 -30 -20 0 -3 26 43 68 35 31 49 51 46 64 -4 13 0 18 17
18 13 0 37 7 55 16 23 12 35 13 45 5 30 -25 144 113 147 180 2 24 2 24 6 1 2
-12 -3 -45 -12 -72z m-3875 44 c0 -14 -7 -32 -15 -40 -13 -14 -15 -12 -15 19
0 18 3 37 7 40 13 14 23 6 23 -19z m-2039 -22 c0 -15 2 -38 4 -52 2 -14 7 -78
11 -143 l7 -118 -66 2 -65 2 -4 108 c-1 60 -1 133 0 164 3 46 7 55 23 55 11 0
19 -7 20 -17 0 -15 2 -15 8 2 5 12 19 21 35 23 22 1 26 -2 27 -26z m-148 -14
c5 -29 11 -234 8 -281 -1 -13 -7 -16 -26 -11 -19 5 -25 2 -25 -10 0 -21 -26
-20 -58 3 -15 10 -45 20 -66 23 -35 4 -43 0 -83 -41 -24 -25 -46 -54 -49 -64
-6 -17 -8 -17 -31 5 -29 27 -63 89 -63 116 0 23 -44 104 -65 122 -30 25 -15
32 56 28 53 -3 74 -8 84 -21 11 -16 14 -16 26 -1 7 8 35 27 62 40 38 20 62 25
106 23 l56 -3 3 52 c3 50 4 52 31 52 25 0 30 -5 34 -32z m5462 2 c3 -5 1 -10
-4 -10 -6 0 -11 5 -11 10 0 6 2 10 4 10 3 0 8 -4 11 -10z m-5660 -25 c29 -6
33 -21 8 -29 -52 -14 -83 -17 -83 -7 0 6 9 11 20 11 27 0 25 14 -2 28 -22 11
-22 11 5 7 15 -3 38 -7 52 -10z m2661 -89 c-23 -42 -79 -103 -83 -90 -2 5 -20
8 -40 6 -25 -3 -34 -1 -29 7 4 6 1 11 -8 11 -30 0 -16 18 29 39 49 23 60 41
20 33 -18 -3 -25 0 -25 11 0 9 14 17 39 21 26 4 47 16 63 34 l23 29 14 -35
c13 -31 12 -38 -3 -66z m770 38 c-14 -20 -23 -40 -21 -44 2 -4 -2 -7 -10 -7
-23 0 -18 16 18 57 40 46 47 43 13 -6z m-5242 -22 c2 -4 1 -14 -4 -21 -6 -11
-10 -9 -19 8 -10 17 -9 21 3 21 8 0 17 -4 20 -8z m7665 -18 c2 -2 -32 -4 -77
-4 -45 0 -85 0 -89 -1 -4 0 -9 4 -11 9 -3 9 168 5 177 -4z m-6214 -4 c-3 -5
-13 -10 -21 -10 -8 0 -12 5 -9 10 3 6 13 10 21 10 8 0 12 -4 9 -10z m6245 -40
c13 -8 12 -10 -2 -10 -10 0 -18 -6 -18 -12 0 -7 -3 -24 -7 -38 -6 -23 -5 -24
11 -11 10 9 20 11 26 5 6 -6 -12 -26 -46 -54 -31 -24 -69 -59 -84 -77 -17 -19
-32 -28 -36 -22 -3 6 1 18 10 28 16 18 13 51 -6 51 -5 0 -7 -4 -3 -9 3 -6 -17
-11 -46 -13 -37 -2 -55 -8 -63 -21 -8 -13 -8 -20 3 -26 11 -7 5 -15 -25 -34
-21 -13 -39 -24 -39 -23 0 0 1 31 3 67 l4 67 36 6 c20 3 69 6 109 6 83 0 123
12 123 37 0 27 20 93 28 93 4 0 14 -5 22 -10z m70 6 c0 -2 -11 -6 -25 -8 -14
-3 -25 -1 -25 3 0 5 11 9 25 9 14 0 25 -2 25 -4z m-3580 -61 c0 -8 -17 -19
-37 -24 -47 -13 -54 -7 -14 14 17 8 31 20 31 26 0 6 5 7 10 4 6 -3 10 -12 10
-20z m2620 15 c0 -5 -12 -10 -27 -9 l-28 1 25 8 c14 4 26 8 28 9 1 1 2 -3 2
-9z m-6641 -62 c23 -122 23 -124 12 -108 -9 13 -11 12 -12 -5 0 -14 -2 -16 -6
-5 -3 8 -11 22 -18 30 -17 19 -32 116 -17 106 5 -3 13 2 16 11 4 9 1 20 -6 25
-10 6 -9 8 3 8 11 0 19 -17 28 -62z m4831 23 c0 -9 -71 -21 -121 -21 -57 0
-28 19 34 23 34 2 68 4 75 5 6 1 12 -2 12 -7z m596 -36 c-11 -8 -24 -15 -29
-15 -13 0 -104 -66 -152 -111 -22 -21 -52 -47 -66 -58 l-27 -21 -6 32 c-7 38
-8 37 40 45 23 3 52 17 69 34 48 44 148 108 170 108 20 0 20 0 1 -14z m-586
-6 c0 -5 -4 -7 -10 -4 -5 3 -22 -2 -37 -11 l-28 -16 25 21 c27 22 50 27 50 10z
m3561 -12 c-1 -12 -15 -9 -19 4 -3 6 1 10 8 8 6 -3 11 -8 11 -12z m-7223 -77
c-1 -38 -3 -70 -4 -70 -2 0 -14 11 -28 25 -40 39 -70 33 -96 -19 -24 -50 -43
-52 -59 -5 -9 26 -7 33 21 62 28 29 122 75 156 76 9 1 12 -18 10 -69z m2702
50 c0 -5 -9 -10 -20 -10 -15 0 -20 -7 -20 -29 0 -36 -23 -61 -56 -61 -13 0
-24 2 -24 4 0 2 -3 12 -6 21 -6 14 -1 16 32 13 35 -3 39 -1 42 22 2 14 5 31 7
38 5 14 45 17 45 2z m224 -16 c19 -7 21 -34 3 -34 -14 0 -37 20 -37 32 0 10
13 10 34 2z m4155 -21 c2 -2 -5 -3 -17 -3 -14 0 -22 6 -22 16 0 14 3 15 18 3
9 -7 19 -15 21 -16z m-7999 -4 c0 -6 -4 -7 -10 -4 -5 3 -10 11 -10 16 0 6 5 7
10 4 6 -3 10 -11 10 -16z m1910 14 c0 -5 -15 -20 -34 -35 -40 -32 -72 -108
-90 -212 -7 -38 -17 -71 -22 -73 -6 -2 -26 17 -45 43 -42 57 -78 76 -148 80
-29 2 -56 6 -59 9 -3 3 1 18 10 33 13 21 15 42 11 84 l-6 56 99 -4 c84 -4 149
2 277 25 4 0 7 -2 7 -6z m5164 -2 c3 -5 -5 -11 -19 -13 -20 -4 -23 -3 -14 8
13 16 25 18 33 5z m-3279 -49 c-6 -5 -35 -28 -65 -52 -48 -38 -51 -40 -25 -11
17 19 44 42 60 52 31 20 46 25 30 11z m-4032 -27 c-3 -9 -8 -14 -10 -11 -3 3
-2 9 2 15 9 16 15 13 8 -4z m2921 -27 c3 -13 6 -30 6 -38 -1 -13 -2 -13 -9 0
-16 27 -22 60 -13 60 5 0 12 -10 16 -22z m2886 -42 c0 -2 -19 -19 -42 -36
l-43 -32 37 36 c35 33 48 42 48 32z m-670 -31 c-20 -21 -23 -34 -21 -88 2 -63
1 -65 -28 -77 -30 -12 -106 -6 -116 9 -2 4 -2 25 2 45 5 33 9 37 33 34 15 -1
34 2 41 8 8 6 22 14 32 17 9 4 17 15 17 25 0 11 10 27 23 35 34 24 43 20 17
-8z m-745 7 c-6 -4 -28 -21 -50 -36 l-40 -27 39 35 c22 20 44 36 50 36 6 0 6
-3 1 -8z m3900 -12 c-3 -5 -11 -10 -16 -10 -6 0 -7 5 -4 10 3 6 11 10 16 10 6
0 7 -4 4 -10z m-4638 -49 c-6 -22 -12 -39 -14 -37 -7 7 10 86 17 81 4 -2 3
-23 -3 -44z m43 27 c0 -16 -3 -19 -11 -11 -6 6 -8 16 -5 22 11 17 16 13 16
-11z m30 -8 c-6 -11 -12 -20 -14 -20 -2 0 -2 9 1 20 3 11 9 20 15 20 5 0 4 -9
-2 -20z m27 -12 c-3 -7 -5 -2 -5 12 0 14 2 19 5 13 2 -7 2 -19 0 -25z m30 10
c-3 -8 -6 -5 -6 6 -1 11 2 17 5 13 3 -3 4 -12 1 -19z m51 5 c-2 -10 -11 -19
-21 -21 -16 -3 -17 -1 -7 17 13 25 33 28 28 4z m-283 -67 c-12 -18 -26 -26
-45 -26 -16 0 -40 -4 -54 -10 -39 -15 -31 -1 9 16 19 8 35 21 35 29 0 7 10 21
22 29 19 14 24 14 36 2 12 -12 11 -18 -3 -40z m4665 50 c0 -2 -8 -10 -17 -17
-16 -13 -17 -12 -4 4 13 16 21 21 21 13z m-3935 -36 c-10 -11 -21 -18 -23 -15
-6 6 31 44 37 39 2 -2 -4 -13 -14 -24z m-3178 -2 c-3 -8 -6 -5 -6 6 -1 11 2
17 5 13 3 -3 4 -12 1 -19z m3122 -44 c-41 -44 -67 -52 -164 -48 -107 5 -147
12 -125 23 8 4 62 4 119 0 107 -9 139 -2 170 35 8 9 16 16 19 16 3 0 -5 -12
-19 -26z m3894 -9 c-32 -40 -162 -150 -169 -142 -9 9 167 169 194 176 2 1 -10
-15 -25 -34z m-1803 11 c0 -2 -7 -7 -16 -10 -8 -3 -12 -2 -9 4 6 10 25 14 25
6z m1620 -4 c0 -5 -12 -14 -26 -20 -54 -25 -163 -104 -264 -191 -93 -80 -220
-163 -220 -143 0 4 -44 8 -98 10 -53 1 -155 9 -225 17 -71 8 -131 15 -134 15
-2 0 -2 4 1 8 2 4 58 2 123 -4 65 -7 172 -13 238 -15 105 -2 125 1 162 19 41
21 96 80 87 93 -2 4 -24 7 -49 7 -24 0 -48 3 -53 6 -5 3 -37 6 -70 7 -34 1
-62 6 -62 11 0 20 57 27 178 21 l128 -6 79 59 c75 55 132 89 180 105 11 4 21
7 23 8 1 1 2 -3 2 -7z m-2680 -60 c0 -9 -71 -54 -85 -54 -5 0 -15 -4 -22 -9
-7 -7 -14 -6 -18 1 -4 6 -38 10 -83 9 -112 -1 -187 10 -171 25 2 3 68 0 145
-6 l141 -11 44 26 c53 30 49 29 49 19z m-4180 -22 c0 -11 -7 -20 -15 -20 -13
0 -14 4 -5 20 6 11 13 20 15 20 3 0 5 -9 5 -20z m6797 -56 c-3 -3 -12 -4 -19
-1 -8 3 -5 6 6 6 11 1 17 -2 13 -5z m-4494 -111 c-7 -2 -13 -10 -13 -18 0 -19
-32 -43 -37 -27 -3 6 -9 10 -14 6 -5 -3 -9 0 -9 5 0 6 6 11 14 11 7 0 19 7 26
15 7 8 20 15 29 14 10 0 11 -2 4 -6z m-170 -20 c-13 -2 -33 -2 -45 0 -13 2 -3
4 22 4 25 0 35 -2 23 -4z m12 -63 c3 -5 2 -10 -4 -10 -5 0 -13 5 -16 10 -3 6
-2 10 4 10 5 0 13 -4 16 -10z m502 4 c-3 -3 -12 -4 -19 -1 -8 3 -5 6 6 6 11 1
17 -2 13 -5z m-70 -20 c-3 -3 -12 -4 -19 -1 -8 3 -5 6 6 6 11 1 17 -2 13 -5z
m-422 -14 c3 -5 21 -10 40 -10 26 0 33 -4 31 -17 -2 -14 -11 -17 -42 -14 -48
4 -54 7 -54 32 0 20 15 26 25 9z m360 0 c-120 -53 -186 -77 -183 -68 2 6 13
16 24 22 25 14 34 28 27 40 -3 5 -1 6 6 2 6 -4 9 -12 6 -17 -8 -12 2 -11 28 3
24 12 72 26 97 26 9 1 7 -3 -5 -8z m-256 -72 c1 -13 -7 -18 -25 -18 -14 0 -24
3 -22 8 31 63 32 64 39 45 4 -10 8 -26 8 -35z m3801 -28 c8 -5 10 -10 4 -10
-7 0 -14 -9 -17 -21 -5 -18 5 -26 71 -56 42 -19 89 -37 104 -40 15 -3 28 -9
28 -14 0 -5 27 -9 60 -9 40 0 59 4 58 11 -3 13 47 30 67 23 9 -4 11 2 8 20 -3
14 -2 26 2 26 14 0 34 -35 26 -45 -4 -5 -13 -29 -19 -52 -13 -45 -34 -58 -87
-54 -38 2 -153 30 -174 41 -9 5 -56 22 -106 37 l-90 29 -3 56 c-2 47 0 57 15
61 29 8 37 7 53 -3z m1350 6 c0 -2 -13 -6 -29 -8 -17 -2 -28 -1 -25 4 5 8 54
12 54 4z m-980 -66 c0 -5 -5 -10 -11 -10 -5 0 -7 5 -4 10 3 6 8 10 11 10 2 0
4 -4 4 -10z m-643 -15 c8 -9 13 -19 10 -22 -8 -8 -67 17 -67 28 0 15 40 10 57
-6z m-5744 -16 c65 -9 87 -22 87 -50 0 -15 -4 -17 -17 -9 -38 21 -142 49 -213
56 -64 7 -70 9 -40 14 36 7 84 4 183 -11z m-250 4 c-7 -2 -19 -2 -25 0 -7 3
-2 5 12 5 14 0 19 -2 13 -5z m6037 -23 c0 -5 -2 -10 -4 -10 -3 0 -8 5 -11 10
-3 6 -1 10 4 10 6 0 11 -4 11 -10z m-5630 -85 c14 -19 14 -19 -2 -6 -10 7 -18
18 -18 24 0 6 1 8 3 6 1 -2 9 -13 17 -24z m-1120 -40 c-7 -8 -20 -15 -29 -15
-11 0 -8 5 9 14 33 19 35 19 20 1z m3525 -64 c-6 -5 -28 -12 -50 -15 l-40 -6
30 15 c34 16 74 20 60 6z m-138 -137 c-10 -10 -77 -22 -77 -14 0 5 6 11 13 13
17 8 72 8 64 1z m2089 -31 c-11 -11 -17 4 -9 23 7 18 8 18 11 1 2 -10 1 -21
-2 -24z m-1988 5 c2 -12 -3 -18 -13 -18 -10 0 -15 -6 -13 -12 5 -15 -27 -49
-37 -40 -4 4 -6 3 -4 -3 3 -11 -5 -43 -29 -125 -15 -53 -83 -151 -90 -130 -2
5 9 31 25 58 41 68 49 89 68 183 9 46 18 90 20 97 7 20 69 11 73 -10z m838
-165 c14 -45 24 -87 22 -94 -2 -7 -12 12 -21 42 -23 72 -36 93 -38 59 l-1 -25
-8 25 c-5 16 -8 19 -9 8 -1 -14 -5 -13 -28 8 -15 14 -33 22 -40 20 -7 -3 -13
1 -13 9 0 8 -9 15 -20 15 -16 0 -21 -9 -26 -52 -6 -43 -9 -48 -14 -28 -4 14
-6 32 -4 40 1 8 3 32 3 52 1 29 4 36 16 32 8 -4 15 -1 15 5 0 16 33 14 56 -4
30 -23 53 -19 47 8 -12 54 39 -42 63 -120z m-227 94 c-10 -23 -103 -66 -116
-54 -6 7 97 76 114 76 10 1 10 -5 2 -22z m2726 13 c5 -9 -32 -16 -58 -11 -11
2 -131 -27 -182 -44 -22 -7 -60 -19 -85 -26 -25 -7 -50 -16 -55 -20 -6 -4 -17
-4 -25 1 -8 6 -12 10 -9 10 3 0 57 18 120 40 143 51 279 74 294 50z m-7105
-29 c0 -28 -21 -61 -40 -61 -16 0 -20 7 -20 35 0 32 2 35 30 35 17 0 30 -4 30
-9z m3775 -11 c3 -5 1 -10 -4 -10 -6 0 -11 5 -11 10 0 6 2 10 4 10 3 0 8 -4
11 -10z m190 -30 c10 -11 16 -20 13 -20 -3 0 -13 9 -23 20 -10 11 -16 20 -13
20 3 0 13 -9 23 -20z m190 -9 c10 -17 -15 -23 -31 -7 -14 15 -14 16 5 16 11 0
22 -4 26 -9z m-149 -18 c-10 -10 70 -44 88 -37 9 3 16 10 16 15 0 5 7 9 15 9
14 0 14 -4 -1 -32 -10 -19 -16 -53 -15 -82 1 -44 -1 -48 -14 -35 -8 8 -16 29
-18 48 -3 26 -11 36 -33 46 -37 15 -58 40 -50 60 3 8 9 15 12 15 4 0 4 -3 0
-7z m211 1 c-3 -3 -12 -4 -19 -1 -8 3 -5 6 6 6 11 1 17 -2 13 -5z m2453 -24
c0 -5 -8 -10 -17 -10 -15 0 -16 2 -3 10 19 12 20 12 20 0z m-3935 -19 c34 -8
28 -9 -45 -10 -94 -1 -233 -21 -325 -45 -109 -28 -284 -107 -354 -160 -41 -30
-54 -26 -23 7 62 66 261 153 431 188 52 11 96 21 98 23 8 7 180 5 218 -3z
m1497 -31 c17 -16 35 -30 41 -30 12 0 36 -31 37 -47 0 -7 -9 -13 -20 -13 -13
0 -25 -10 -32 -27 l-11 -28 -8 42 c-4 24 -20 63 -34 88 -31 52 -19 59 27 15z
m2373 20 c-3 -5 -11 -10 -16 -10 -6 0 -7 5 -4 10 3 6 11 10 16 10 6 0 7 -4 4
-10z m-995 -120 c0 -21 50 -30 116 -21 68 10 137 4 128 -10 -3 -5 -20 -9 -37
-9 -41 0 -199 -42 -285 -76 -128 -51 -279 -131 -404 -215 -49 -33 -88 -54 -88
-48 0 5 -5 7 -10 4 -6 -4 -7 -11 -4 -17 4 -6 2 -8 -3 -5 -6 4 -30 -11 -53 -33
-49 -46 -57 -50 -34 -15 9 14 19 25 23 25 3 0 31 23 61 51 30 27 95 75 145
106 49 31 97 62 105 68 16 12 258 118 298 130 17 5 22 14 22 41 0 19 5 34 10
34 6 0 10 -5 10 -10z m-2054 -35 c-11 -8 -22 -12 -25 -9 -6 6 19 24 34 24 6
-1 1 -7 -9 -15z m4701 -45 c32 -27 64 -50 71 -50 6 0 12 -5 12 -12 0 -6 25
-36 57 -65 31 -29 54 -56 51 -59 -9 -8 -97 40 -98 53 0 7 -16 15 -35 19 -20 3
-43 13 -51 21 -13 14 -17 13 -30 -3 -11 -14 -17 -15 -20 -6 -3 6 -13 12 -21
12 -14 0 -14 -3 2 -20 18 -19 17 -20 -3 -20 -11 0 -24 -4 -27 -10 -3 -5 -17
-10 -29 -10 -17 0 -23 6 -23 23 1 47 -3 67 -13 67 -5 0 -10 -7 -10 -15 0 -8
-5 -15 -11 -15 -6 0 -9 12 -7 28 3 27 -2 29 -34 17 -11 -4 -18 -3 -18 4 0 6
-7 11 -15 11 -11 0 -15 -11 -15 -40 0 -35 4 -41 36 -56 20 -10 42 -17 50 -17
10 0 11 -4 3 -13 -7 -8 -6 -14 3 -18 10 -5 10 -7 0 -12 -6 -3 -10 -9 -7 -14 6
-9 -21 -40 -36 -40 -5 0 -9 4 -9 10 0 15 -66 39 -89 33 -12 -3 -21 -13 -22
-22 0 -10 -2 -11 -6 -3 -2 6 -10 9 -15 5 -7 -4 -9 1 -6 15 3 12 0 29 -8 39
-13 17 -13 17 -14 1 0 -10 -5 -18 -11 -18 -6 0 -9 8 -6 19 3 14 -1 19 -20 19
-14 0 -29 6 -34 13 -4 7 -11 10 -16 6 -4 -5 -1 -12 7 -17 12 -7 9 -13 -12 -33
-25 -23 -28 -24 -60 -9 -44 21 -45 22 -28 32 12 8 10 10 -8 10 -20 0 -22 -3
-16 -40 4 -25 3 -40 -4 -40 -15 0 -73 73 -64 81 4 3 36 18 72 32 109 43 180
78 180 89 0 7 16 8 43 5 26 -4 57 -1 82 9 22 8 81 23 130 33 50 11 91 20 92
20 1 1 28 -21 60 -49z m-7183 -8 c3 -5 -56 -12 -132 -15 -75 -4 -182 -16 -237
-28 -145 -30 -156 -31 -98 -10 109 41 451 79 467 53z m2450 -55 c-3 -15 -10
-25 -14 -22 -5 3 -11 -3 -13 -12 -4 -14 -5 -13 -6 4 0 12 4 34 9 49 14 35 34
18 24 -19z m1014 -7 c11 -6 -30 -9 -123 -8 -77 0 -176 -5 -220 -11 -241 -37
-686 -178 -806 -257 -26 -17 -59 -14 -59 6 0 5 13 10 29 10 55 0 102 56 116
138 7 46 20 54 31 20 12 -38 34 -49 84 -42 62 8 250 63 279 81 13 9 67 21 120
29 53 7 116 18 141 23 25 6 64 10 87 11 23 0 44 4 47 9 8 12 253 4 274 -9z
m3719 -56 c-3 -3 -12 -4 -19 -1 -8 3 -5 6 6 6 11 1 17 -2 13 -5z m-3837 -64
c0 -5 -24 -10 -52 -10 -29 0 -91 -3 -138 -6 -47 -4 -82 -3 -78 1 18 19 268 34
268 15z m1227 4 c-3 -3 -12 -4 -19 -1 -8 3 -5 6 6 6 11 1 17 -2 13 -5z m-4647
-19 c0 -2 -9 -9 -20 -15 -15 -8 -20 -8 -20 3 0 7 9 13 20 14 11 1 20 0 20 -2z
m3497 -1 c-3 -3 -12 -4 -19 -1 -8 3 -5 6 6 6 11 1 17 -2 13 -5z m3213 -31 c0
-13 -3 -13 -15 -3 -8 7 -15 19 -15 27 0 13 3 13 15 3 8 -7 15 -19 15 -27z
m-6830 6 c-25 -4 -56 -8 -70 -8 -23 0 -23 1 -5 9 11 5 43 8 70 8 l50 -1 -45
-8z m-140 -9 c0 -5 -12 -10 -27 -9 l-28 1 25 8 c14 4 26 8 28 9 1 1 2 -3 2 -9z
m-80 -20 c0 -5 -8 -10 -17 -10 -15 0 -16 2 -3 10 19 12 20 12 20 0z m2531 -10
c12 0 12 -27 0 -34 -16 -10 -41 6 -41 26 0 14 5 18 16 14 9 -3 20 -6 25 -6z
m-376 -55 c140 -6 213 -14 239 -26 16 -7 13 -8 -14 -4 -88 13 -389 17 -484 6
-213 -25 -361 -50 -448 -77 -10 -3 -18 -2 -18 3 0 10 158 49 260 64 41 6 95
17 118 25 30 9 50 11 62 4 9 -5 20 -7 22 -4 3 2 26 5 51 6 24 0 51 4 58 9 8 5
21 6 29 4 8 -3 65 -7 125 -10z m5166 -50 c0 -5 -7 -12 -16 -13 -23 -5 -47 6
-40 19 8 13 56 8 56 -6z m-5164 -91 c-3 -3 -12 -4 -19 -1 -8 3 -5 6 6 6 11 1
17 -2 13 -5z m132 -3 c9 -6 6 -8 -13 -8 -14 0 -23 3 -20 8 7 11 15 11 33 0z
m367 -63 c-3 -13 -6 -33 -6 -45 0 -14 -5 -21 -12 -18 -7 3 -19 1 -27 -4 -11
-7 -11 -13 0 -32 15 -29 21 -89 8 -89 -5 0 -9 4 -9 9 0 5 -9 7 -20 4 -11 -3
-17 -9 -14 -14 3 -5 9 -7 13 -5 4 3 5 -11 3 -30 -3 -28 -8 -34 -28 -34 -13 0
-24 4 -24 9 0 6 -16 3 -35 -5 -21 -8 -35 -10 -35 -4 0 5 7 10 15 10 8 0 15 5
15 10 0 6 7 10 15 10 8 0 15 4 15 9 0 5 3 16 6 25 3 9 1 16 -6 16 -6 0 -8 -6
-4 -12 4 -7 3 -10 -1 -6 -16 15 -13 60 7 96 32 58 56 80 81 74 12 -3 19 -1 15
3 -9 10 9 45 24 45 6 0 8 -9 4 -22z m-2240 -127 c-4 -5 -39 -15 -79 -21 -172
-29 -515 -134 -679 -209 -88 -40 -168 -68 -168 -60 0 5 5 9 10 9 6 0 44 16 84
35 41 19 77 35 81 35 4 0 21 6 38 14 65 29 277 106 292 106 8 0 23 4 33 10 20
11 174 53 252 69 105 21 143 24 136 12z"/>
<path d="M8735 3580 c-3 -5 1 -10 9 -10 9 0 16 5 16 10 0 6 -4 10 -9 10 -6 0
-13 -4 -16 -10z"/>
<path d="M7842 3438 c-7 -7 -12 -21 -12 -32 0 -20 1 -20 22 2 15 15 19 25 12
32 -7 7 -14 6 -22 -2z"/>
<path d="M7940 3394 c0 -8 5 -12 10 -9 6 3 10 10 10 16 0 5 -4 9 -10 9 -5 0
-10 -7 -10 -16z"/>
<path d="M2105 2980 c-30 -6 -30 -6 9 -13 44 -7 53 -5 34 10 -7 5 -26 7 -43 3z"/>
<path d="M1054 2794 c9 -8 20 -12 26 -9 15 9 2 25 -21 25 -19 0 -19 -1 -5 -16z"/>
<path d="M1296 2665 c-5 -14 8 -65 17 -65 3 0 4 18 4 40 0 40 -10 53 -21 25z"/>
<path d="M1343 2633 c-15 -5 -17 -23 -4 -23 5 0 11 7 15 15 3 8 4 15 3 14 -1
0 -8 -3 -14 -6z"/>
<path d="M1341 2404 c0 -11 3 -14 6 -6 3 7 2 16 -1 19 -3 4 -6 -2 -5 -13z"/>
<path d="M3478 3113 c6 -2 18 -2 25 0 6 3 1 5 -13 5 -14 0 -19 -2 -12 -5z"/>
<path d="M4360 2920 c0 -5 4 -10 9 -10 6 0 13 5 16 10 3 6 -1 10 -9 10 -9 0
-16 -4 -16 -10z"/>
<path d="M4425 2462 c-27 -7 -62 -11 -77 -9 -16 2 -28 0 -28 -5 0 -4 6 -8 13
-8 6 -1 39 -2 72 -4 62 -2 105 9 105 28 0 15 -23 14 -85 -2z"/>
<path d="M4234 2459 c-4 -7 -24 -9 -53 -5 l-46 5 33 -15 c31 -14 38 -13 85 5
48 19 50 20 20 20 -17 1 -35 -4 -39 -10z"/>
<path d="M3490 2410 c0 -5 -9 -10 -20 -10 -11 0 -20 -5 -20 -11 0 -18 64 -6
68 14 2 10 -3 17 -12 17 -9 0 -16 -4 -16 -10z"/>
<path d="M4385 2180 c3 -5 8 -10 11 -10 2 0 4 5 4 10 0 6 -5 10 -11 10 -5 0
-7 -4 -4 -10z"/>
<path d="M2911 2993 c0 -12 -5 -25 -11 -28 -5 -3 -9 -21 -9 -38 1 -21 3 -25 6
-12 7 26 23 45 48 56 19 9 19 9 -2 5 -16 -3 -23 2 -26 18 l-4 21 -2 -22z"/>
<path d="M2527 2833 c-9 -8 -9 -51 -1 -90 5 -25 10 -29 30 -25 21 4 24 10 24
44 0 59 -28 97 -53 71z"/>
<path d="M2750 2765 c0 -25 5 -45 10 -45 6 0 10 20 10 45 0 25 -4 45 -10 45
-5 0 -10 -20 -10 -45z"/>
<path d="M5222 2891 c-17 -24 -19 -30 -7 -35 16 -6 20 -2 29 37 8 34 5 34 -22
-2z"/>
<path d="M8780 999 c0 -5 5 -7 10 -4 6 3 10 8 10 11 0 2 -4 4 -10 4 -5 0 -10
-5 -10 -11z"/>
<path d="M9057 964 c3 -8 11 -14 19 -14 21 0 17 17 -5 23 -14 3 -18 1 -14 -9z"/>
<path d="M8585 910 c-3 -5 1 -10 9 -10 9 0 16 5 16 10 0 6 -4 10 -9 10 -6 0
-13 -4 -16 -10z"/>
<path d="M8623 883 c-13 -2 -23 -8 -23 -13 0 -10 38 -1 46 11 3 5 4 8 2 8 -2
-1 -13 -4 -25 -6z"/>
<path d="M4125 380 c-3 -5 -2 -10 4 -10 5 0 13 5 16 10 3 6 2 10 -4 10 -5 0
-13 -4 -16 -10z"/>
<path d="M4095 350 c4 -6 11 -8 16 -5 14 9 11 15 -7 15 -8 0 -12 -5 -9 -10z"/>
<path d="M8378 4533 c7 -3 16 -2 19 1 4 3 -2 6 -13 5 -11 0 -14 -3 -6 -6z"/>
<path d="M7958 4503 c7 -3 16 -2 19 1 4 3 -2 6 -13 5 -11 0 -14 -3 -6 -6z"/>
<path d="M6287 4393 c-4 -58 -7 -184 -7 -280 l0 -174 34 3 35 3 4 265 c4 178
9 266 16 268 23 8 -2 22 -38 22 l-38 0 -6 -107z"/>
<path d="M6915 4310 c-15 -30 -52 -44 -42 -16 10 27 -6 26 -32 -2 -18 -19 -26
-39 -27 -69 -1 -24 2 -43 7 -43 5 0 9 4 9 9 0 10 66 22 85 15 7 -3 16 -16 19
-30 8 -29 36 -32 36 -5 0 11 -4 22 -8 25 -14 8 -7 45 10 59 12 9 14 18 7 35
-4 12 -13 22 -19 22 -5 0 -10 7 -10 15 0 25 -18 17 -35 -15z"/>
<path d="M1997 4183 c-13 -12 -7 -52 9 -61 24 -13 31 -74 39 -324 5 -166 11
-230 20 -238 10 -8 15 -8 20 1 4 6 3 14 -4 18 -11 7 -35 453 -26 496 2 11 4
23 4 26 1 4 11 7 24 8 53 1 57 3 45 25 -6 12 -10 23 -9 26 1 3 -7 6 -19 8 -11
2 -20 8 -20 13 0 10 -73 13 -83 2z m113 -48 c0 -8 -4 -15 -10 -15 -5 0 -10 7
-10 15 0 8 5 15 10 15 6 0 10 -7 10 -15z"/>
<path d="M8130 4130 c0 -5 5 -10 10 -10 6 0 10 5 10 10 0 6 -4 10 -10 10 -5 0
-10 -4 -10 -10z"/>
<path d="M3853 4093 l-93 -4 0 -129 c0 -71 3 -130 8 -132 4 -2 59 -2 122 1
l115 6 0 130 0 130 -30 1 c-16 0 -72 -1 -122 -3z m123 -48 c9 -22 -15 -48 -32
-34 -10 8 -16 4 -27 -18 -8 -15 -12 -34 -10 -41 3 -7 -7 -1 -22 13 -16 14 -31
25 -34 25 -4 0 -7 12 -6 28 0 24 4 28 45 33 75 10 80 10 86 -6z m-97 -141 c40
-8 30 -24 -15 -24 -24 0 -34 5 -34 15 0 17 4 18 49 9z"/>
<path d="M7741 4077 c-6 -6 -11 -21 -11 -32 0 -12 -8 -30 -19 -39 -10 -9 -21
-30 -24 -46 -5 -23 -10 -27 -28 -23 -15 4 -20 2 -17 -7 5 -16 24 -27 61 -35
l27 -5 0 -95 c0 -95 0 -95 25 -95 24 0 25 2 25 69 0 52 4 70 15 75 8 3 15 14
15 25 0 11 9 25 20 31 31 17 26 65 -10 102 -16 16 -30 40 -30 53 0 25 -31 40
-49 22z m51 -199 c-9 -9 -15 -9 -24 0 -9 9 -7 12 12 12 19 0 21 -3 12 -12z
m-25 -150 c-3 -8 -6 -5 -6 6 -1 11 2 17 5 13 3 -3 4 -12 1 -19z"/>
<path d="M3051 4042 c-7 -2 -11 -54 -11 -154 l0 -150 148 7 c215 9 192 -11
192 161 l0 146 -159 -3 c-87 -2 -164 -5 -170 -7z m309 -137 c0 -84 -3 -117
-12 -119 -7 -3 -73 -7 -145 -10 l-133 -6 0 40 c0 22 5 40 10 40 6 0 10 -4 10
-10 0 -6 35 -10 86 -10 74 0 85 2 80 16 -3 9 -6 20 -6 26 0 6 -7 7 -16 4 -9
-4 -23 -1 -30 5 -11 9 -14 7 -14 -10 0 -22 -25 -39 -38 -26 -4 4 -1 10 6 12
14 5 16 43 2 43 -5 0 -10 -9 -10 -19 0 -27 -27 -34 -55 -13 -29 20 -32 42 -7
42 24 0 23 47 -2 65 -11 8 -16 21 -13 30 5 12 29 15 147 15 l140 0 0 -115z"/>
<path d="M3321 3931 c-8 -5 -15 -23 -16 -39 -3 -30 -2 -31 21 -15 14 9 24 25
24 39 0 26 -7 29 -29 15z"/>
<path d="M1246 3974 c-4 -10 -1 -14 6 -12 15 5 23 28 10 28 -5 0 -13 -7 -16
-16z"/>
<path d="M7472 3900 c0 -14 2 -19 5 -12 2 6 2 18 0 25 -3 6 -5 1 -5 -13z"/>
<path d="M7617 3899 c-3 -11 -2 -32 2 -47 7 -23 13 -27 40 -25 37 1 36 1 45
28 5 16 -3 24 -38 41 -43 21 -44 21 -49 3z"/>
<path d="M140 3836 c0 -2 14 -19 31 -37 16 -19 41 -58 55 -87 14 -30 28 -52
30 -49 12 12 -89 177 -108 177 -4 0 -8 -2 -8 -4z"/>
<path d="M7666 3798 c-8 -13 -16 -39 -18 -58 -3 -34 -2 -35 35 -38 41 -4 43 3
31 81 -7 42 -26 48 -48 15z"/>
<path d="M7575 3750 c-4 -16 -11 -30 -16 -30 -5 0 -9 -4 -9 -10 0 -5 9 -10 20
-10 17 0 20 7 20 40 0 48 -6 51 -15 10z"/>
<path d="M3936 3657 c-16 -12 -16 -16 4 -71 21 -55 23 -57 41 -40 24 21 26 86
3 108 -19 19 -25 20 -48 3z"/>
<path d="M5128 3593 c-10 -2 -18 -12 -18 -21 0 -12 -3 -13 -12 -4 -9 9 -14 7
-23 -5 -29 -39 17 -73 70 -53 23 9 26 15 23 47 -3 37 -10 44 -40 36z"/>
<path d="M1977 3513 c-4 -3 -7 -11 -7 -17 0 -6 5 -5 12 2 6 6 9 14 7 17 -3 3
-9 2 -12 -2z"/>
<path d="M2133 3507 c-4 -8 -15 -17 -23 -20 -10 -4 -8 -6 7 -6 12 -1 27 -9 32
-18 9 -15 10 -12 7 15 -3 39 -11 49 -23 29z"/>
<path d="M0 3490 c0 -19 3 -21 12 -12 9 9 9 15 0 24 -9 9 -12 7 -12 -12z"/>
<path d="M770 3475 c0 -8 2 -15 4 -15 2 0 6 7 10 15 3 8 1 15 -4 15 -6 0 -10
-7 -10 -15z"/>
<path d="M43 3103 c9 -2 25 -2 35 0 9 3 1 5 -18 5 -19 0 -27 -2 -17 -5z"/>
<path d="M0 3068 c0 -21 3 -21 50 -4 l35 13 -42 4 c-36 4 -43 2 -43 -13z"/>
<path d="M8259 170 l-24 -19 23 -1 c12 0 22 4 22 8 0 5 10 14 23 20 22 11 22
11 1 11 -12 1 -32 -8 -45 -19z"/>
</g>
</svg>
