<svg width="456" height="660" viewBox="0 0 456 660" fill="none" xmlns="http://www.w3.org/2000/svg">
<path fill-rule="evenodd" clip-rule="evenodd" d="M376.11 275.71C373.92 278.48 363.27 282.99 359.49 285.13C353.52 288.53 348.85 291.85 343.69 295.39C338.45 298.99 333.7 302.66 329.06 306.86C319.42 315.55 312.02 322.46 303.57 332.72C261.59 383.67 245.31 456.77 236.77 522.46C235.88 529.23 235.27 539.22 233.94 544.79L232.02 581.53C244.58 579.74 251.21 579.21 263.97 580.6C261.76 585.62 258.31 590.94 255.57 596.92C252.85 602.93 250.64 608.88 248.77 615.39C244.94 628.77 242.42 644.72 244.02 659.44C254.8 659.44 269.24 657.79 278.66 656.19C290.49 654.2 299.84 652.3 310.4 649.23C329.81 643.61 347.13 634.78 361.13 623.39C366.15 619.28 371.08 614.73 375.17 609.66C397.46 581.97 406.89 560.39 412.57 520.84C413.22 516.26 413.97 509.19 414.61 504.39L417.71 449.42C418.44 444.69 418.64 436.56 419 432.2C420.08 418.61 419.8 411.13 421.43 395.93C422.52 385.78 422.91 372.28 424.44 361.07C430.47 317.13 432.7 298.93 455.22 256.38C434.22 256.38 404.23 263.86 385.15 272.12C382.26 273.37 379.18 275.01 376.11 275.71Z" fill="#BD3533"/>
<path fill-rule="evenodd" clip-rule="evenodd" d="M166.63 655.9C170.88 651.55 177.06 610.32 212.61 589.3C216.08 587.25 220.68 585.86 224.06 583.8C222.2 581.75 223.37 584.27 222.6 580.44L221.07 557.03C220.5 549.95 218.39 535.83 219.04 529.8C215.06 509.07 213.34 486.88 209.16 465.43C207.11 454.91 205.05 445.23 202.49 435.04C199.4 422.82 196.92 418.66 196.85 404.87L196.18 411.41C195.03 409.9 195.5 410.66 194.57 408.49C182.57 380 176.62 365.15 155.6 338.91C152.8 335.42 150.78 333.41 148.26 330.27C143.31 324.12 137.32 319.55 132.53 314.02C123.09 303.06 88.8698 280 75.7398 275.19C63.0498 265.57 20.2598 256.36 0.00976562 256.36L10.4698 281.23C21.6598 308.95 33.6298 366.46 36.1298 396.95L37.9198 421.24C38.1798 424.51 38.7598 425.35 38.7398 429.68C38.7398 436.62 39.6098 439.98 39.5598 446.52C39.4298 471.23 38.1698 507.79 42.9898 531.45C52.9798 580.66 73.3598 611.56 114.92 636.22C126.02 642.81 139.77 648.38 152.3 651.85C155.71 652.79 164.02 654.58 166.63 655.9Z" fill="#BD3533"/>
<path fill-rule="evenodd" clip-rule="evenodd" d="M280.97 226.07C279.64 228.68 273.89 233.98 271.42 236.63L253.27 257.98C250.78 261.21 247.59 266.69 244.63 269.08L244.3 256.44C244.57 272.31 245.09 269.17 238.22 279.98L229.93 294.42C228.71 296.63 228.62 296.98 226.9 298.42C226.57 301.4 218.46 317.45 216.47 322.18C213.04 330.32 210.22 338.21 207.45 346.81C201.86 364.07 197.5 385.78 196.86 404.86C196.93 418.65 199.42 422.81 202.5 435.03C205.06 445.22 207.12 454.9 209.17 465.42C213.35 486.87 215.07 509.06 219.05 529.79C221.57 534.56 224.38 543.83 228.07 547.25L233.95 544.79C235.28 539.22 235.89 529.23 236.78 522.46C245.33 456.77 261.6 383.67 303.58 332.72C312.04 322.46 319.43 315.55 329.07 306.86C333.71 302.66 338.46 298.99 343.7 295.39C348.85 291.85 353.53 288.53 359.5 285.13C363.28 282.99 373.93 278.48 376.12 275.71C376.67 253.56 364.14 209.24 349.06 195.12C338.67 185.39 320.81 195.76 311.04 202.15C300.45 209.07 280.97 226.07 280.97 226.07Z" fill="#CA646E"/>
<path fill-rule="evenodd" clip-rule="evenodd" d="M75.75 275.19C88.88 279.99 123.1 303.06 132.54 314.02C137.33 319.55 143.32 324.12 148.27 330.27C150.79 333.41 152.81 335.42 155.61 338.91C176.63 365.15 182.58 380 194.58 408.49C195.51 410.66 195.03 409.9 196.19 411.41L196.86 404.87C197.5 385.79 201.86 364.08 207.45 346.82C210.22 338.22 213.04 330.33 216.47 322.19C218.46 317.46 226.57 301.41 226.9 298.43C224.12 293.72 221.15 287.6 218.63 282.65C216.17 277.85 211.91 272.04 210.52 267.56L208.13 264.49C207.24 263.14 206.98 262.54 206.25 261.33C200.09 250.92 196.24 247.31 189.5 239.38C184.86 233.92 177.49 228.42 175.82 225.23C168.75 221.28 124.31 181.31 104.33 195.72C89.46 206.44 75.75 258.25 75.75 275.19Z" fill="#BD2217"/>
<path fill-rule="evenodd" clip-rule="evenodd" d="M211.23 202.49L210.52 267.56C211.91 272.03 216.16 277.84 218.63 282.65C221.15 287.6 224.13 293.72 226.9 298.43C228.62 296.99 228.71 296.64 229.93 294.43L238.22 279.99C245.09 269.18 244.57 272.32 244.3 256.45L243.42 203.35L242.42 141.88C241.65 132.78 242.36 120.26 242.36 110.8C242.36 99.3499 241.52 91.0199 241.52 79.6599C279.91 79.6599 269.24 86.2099 279.5 87.1999C288.23 88.0399 288.54 77.3199 290.09 75.2199C292.96 71.2899 301.98 73.2699 301.98 64.4999C301.98 55.7899 292.92 57.6499 290.09 53.7999C287.79 50.6599 289.51 49.1999 287.15 45.7999C285.71 43.6999 283.11 41.4699 279.5 41.8199C276.85 42.0599 274.04 44.0499 271.97 45.3299C264.08 50.2199 252.52 50.2099 242.35 50.2099C242.35 42.9599 241.86 38.0999 244.58 33.0799C246.86 28.8799 251.05 24.5699 249.09 19.1499C246.26 11.2799 239.98 15.4099 236.62 11.3299C233.86 7.98989 235.85 0.429885 227.21 0.469885C218.39 0.489885 220.34 6.56988 217.97 10.6799C215.48 14.9499 208.65 11.4999 205.28 18.2199C200.57 27.6399 212.05 25.3799 212.05 50.2199C179.71 50.2199 183.91 42.5899 175.76 41.8399C166.25 40.9699 166.59 51.1899 165.42 53.2399C162.74 57.8999 153.9 55.1799 153.17 63.7999C152.4 72.6699 160.88 71.4999 164.27 74.4399C167.81 77.4699 164.78 86.4199 174.3 87.2199C179.8 87.6799 182.52 82.5499 190.35 80.6999C196.76 79.1899 204.43 79.6799 212.05 79.6799C212.05 90.6199 211.21 98.4199 211.21 109.12V202.49H211.23Z" fill="#D7AB68"/>
<path fill-rule="evenodd" clip-rule="evenodd" d="M244.3 256.44L244.63 269.08C247.59 266.69 250.78 261.21 253.27 257.98L271.42 236.63C273.89 233.98 279.64 228.69 280.97 226.07C277.74 224.21 275.58 222.24 272.66 220.18C269.7 218.08 266.74 216.23 263.57 214.12C258.9 211.02 249.29 204.37 243.43 203.34L244.3 256.44Z" fill="#BD3533"/>
<path fill-rule="evenodd" clip-rule="evenodd" d="M175.82 225.23C177.48 228.42 184.86 233.92 189.5 239.38C196.24 247.3 200.09 250.92 206.25 261.33C206.98 262.54 207.24 263.14 208.13 264.49L210.52 267.56L211.23 202.49C201.68 207.08 203.18 205.93 192.9 212.76L175.82 225.23Z" fill="#BD3533"/>
</svg>
