<svg width="235" height="122" viewBox="0 0 235 122" fill="none" xmlns="http://www.w3.org/2000/svg">
<path d="M63.956 57.1817C64.6831 57.3472 63.5066 57.711 63.956 57.1817ZM66.8849 60.0234C67.7795 59.886 66.5176 60.6944 66.8849 60.0234ZM50.4096 60.4747C51.1367 60.6402 49.9602 61.004 50.4096 60.4747ZM51.9001 60.4588C52.6272 60.6244 51.4506 60.9881 51.9001 60.4588ZM44.1765 60.727C45.2563 62.8968 41.9905 61.5365 44.1765 60.727ZM45.9419 60.8538C46.669 61.0193 45.4924 61.3831 45.9419 60.8538ZM74.9224 60.5449C75.6495 60.7105 74.4729 61.0742 74.9224 60.5449ZM45.1074 60.8735C45.7942 62.0576 43.2167 61.5014 45.1074 60.8735ZM47.1146 61.1727C47.8558 61.3666 47.3691 61.9532 47.1146 61.1727ZM49.4278 61.148C49.9698 61.7682 48.6656 61.5562 49.4278 61.148ZM54.2475 61.2588C55.094 61.6891 53.5515 61.7621 54.2475 61.2588ZM46.6112 61.3738C47.7665 61.6655 45.8113 62.1043 46.6112 61.3738ZM49.7533 61.9732C50.6359 61.9265 49.386 62.6783 49.7533 61.9732ZM55.0211 61.9196C55.8739 61.6895 55.0183 62.5557 55.0211 61.9196ZM43.5229 62.0999C42.6309 65.18 37.6845 65.9389 34.5539 66.0162C29.0493 65.6459 25.0789 70.2923 19.6801 69.5333C15.5005 71.3309 19.8166 75.9984 14.7269 74.4685C10.72 75.52 19.877 75.8561 17.1713 78.8753C18.5798 79.8234 14.4792 80.5661 14.5369 80.7571C12.5491 82.4701 9.7165 81.7556 10.2834 82.571C12.5021 84.2048 16.698 86.217 17.4532 88.2783C16.3872 87.9164 15.3594 92.0744 17.0362 92.907C17.8378 95.3031 15.0687 94.1465 15.5821 94.5754C15.5706 96.4274 20.2559 98.5023 16.078 97.9756C18.1574 100.328 21.8456 102.529 24.5213 102.654C24.4145 100.953 30.5735 102.669 27.2678 100.247C30.7571 101.543 35.6205 97.3924 38.0977 102.526C39.8017 101.847 43.0889 102.838 41.7472 101.15C39.7521 101.543 37.1838 101.036 39.0492 98.4486C35.7236 95.5776 40.1333 98.4003 40.6347 98.1428C42.2297 101.264 48.6451 100.437 46.2044 104.082C49.4846 104.443 47.18 106.258 47.0586 107.475C47.7625 106.25 51.0087 107 50.4294 108.58C48.1597 107.203 48.3049 108.281 48.4369 109.46C46.4847 108.996 48.5745 111.832 46.2995 109.86C43.3729 110.047 49.4637 112.484 46.2275 114.339C45.1353 115.772 51.9494 114.674 53.7545 115.052C68.3905 115.089 83.0448 114.597 97.6628 115.557C101.62 113.122 102.565 108.089 96.4379 109.314C94.21 109.63 90.4319 109.655 90.6456 106.45C88.9652 110.333 88.9873 103.724 87.9684 107.531C85.2782 110.045 81.8556 99.7633 82.9161 104.709C81.8752 104.909 79.8072 102.947 81.7945 104.891C79.7235 102.5 76.7195 104.359 76.265 100.096C75.0248 96.363 69.944 97.2024 68.1001 93.4218C66.0499 92.5783 70.2906 90.5746 66.8379 91.4333C63.9699 93.619 68.1465 88.8825 64.445 89.9969C62.8282 90.5439 65.7293 91.9249 63.3663 90.6028C62.3031 92.2136 64.1715 92.0523 61.8226 91.1592C60.7666 93.0444 57.0764 94.9586 59.3765 91.4635C62.5431 86.793 56.3236 85.87 53.2411 85.0682C55.2855 85.1512 57.4445 83.8989 54.1581 83.1021C58.4422 83.6167 51.4917 78.9719 55.677 81.1649C57.7586 82.7655 61.7121 78.5732 60.9625 81.8899C64.101 83.6794 58.6305 82.1345 60.115 83.813C58.7552 85.3065 62.3982 86.7717 63.0885 83.9453C64.7045 83.7489 62.2975 89.234 64.0915 87.3499C65.5653 87.5989 66.7886 84.8934 67.5597 87.4468C69.6422 83.8043 73.1889 88.7286 74.8883 88.6603C72.1253 91.0628 74.0667 91.0204 76.3924 89.6671C78.347 93.8877 86.4164 92.3585 87.1818 95.9777C90.2629 98.3543 94.4778 99.9337 98.1608 101.755C100.172 102.855 101.21 103.415 100.614 101.939C103.751 103.266 108.19 105.326 112.14 105.19C114.911 105.854 121.222 102.593 115.225 101.793C109.429 101.61 106.146 97.1629 101.681 94.4392C97.8265 90.3196 91.4645 91.5157 86.7827 88.93C81.5249 88.3244 78.1484 85.2535 75.1202 81.0944C70.7545 78.5622 65.9362 76.3903 61.201 74.0795C60.1046 71.8472 52.9083 74.7334 56.0752 70.9855C54.8024 68.1648 51.64 71.188 52.3915 72.5557C50.6857 71.7971 47.4032 74.5012 47.3521 71.6695C49.9766 68.8323 42.2833 72.1338 44.3989 74.7134C44.1398 79.0391 37.9823 74.8256 36.9832 75.7173C38.2496 77.9324 35.0309 74.6474 35.7947 77.0498C35.1333 74.9749 29.2803 74.005 33.3091 76.1258C35.5438 78.3636 31.2449 81.2548 29.3283 81.0486C26.67 83.0459 29.7733 78.1555 26.7236 80.3989C24.6014 76.695 27.7873 78.8769 29.5499 79.8325C33.6777 77.2939 25.3577 79.6047 28.7449 76.833C31.6044 77.854 30.2164 70.2597 33.9644 74.0597C36.7334 72.8643 39.2603 72.1102 41.7209 74.7703C43.5349 74.7435 37.1162 71.5775 40.8768 69.8288C43.3125 66.7827 45.7725 67.4048 48.3177 69.7459C51.0723 70.2973 51.8016 69.151 49.5815 66.8748C47.9121 65.301 49.1127 69.1086 47.8008 66.1347C46.7485 65.5025 45.0423 65.2969 43.4236 64.0887C43.0452 63.3134 44.4317 62.5164 43.5238 62.0998L43.5229 62.0999ZM42.113 62.2651C43.4403 62.9037 40.5257 62.792 42.113 62.2651ZM56.8463 62.2316C57.6992 62.0014 56.8436 62.8676 56.8463 62.2316ZM54.4068 62.4049C56.0099 62.2203 53.2829 63.6447 54.4068 62.4049ZM50.1504 62.7975C51.1897 64.2863 49.0432 63.845 50.1504 62.7975ZM57.7142 62.8827C58.8357 63.0286 57.8737 63.827 57.7142 62.8827ZM58.9656 62.925C59.8603 62.7876 58.5984 63.596 58.9656 62.925ZM47.8579 63.2029C48.7473 63.0911 47.825 64.1469 47.8579 63.2029ZM52.4269 63.2704C53.4642 63.2578 51.8621 63.9119 52.4269 63.2704ZM47.2367 63.399C50.2119 65.7423 42.87 63.882 47.2367 63.399ZM26.7692 63.7096C27.9531 64.1781 26.2713 64.5571 26.7692 63.7096ZM42.2823 63.6178C43.2042 63.1396 42.3203 64.424 42.2823 63.6178ZM48.6411 63.6422C49.7825 64.0468 47.9349 64.3111 48.6411 63.6422ZM56.4245 63.5593C56.8851 64.0789 55.701 63.7403 56.4245 63.5593ZM51.4444 63.9627C52.4095 64.0805 50.8135 64.6057 51.4444 63.9627ZM40.7803 64.2231C41.2409 64.7427 40.0568 64.4042 40.7803 64.2231ZM50.2827 64.1219C51.0098 64.2874 49.8333 64.6512 50.2827 64.1219ZM28.632 64.4287C32.9983 63.9274 27.657 68.4675 28.632 64.4287ZM27.759 64.5481C27.9364 64.9485 26.9592 64.2984 27.759 64.5481ZM38.4449 64.4694C39.3543 64.3293 38.0569 65.142 38.4449 64.4694ZM41.5292 64.5466C41.9898 65.0662 40.8057 64.7276 41.5292 64.5466ZM44.656 64.5133C45.3831 64.6788 44.2066 65.0426 44.656 64.5133ZM37.6271 64.6418C38.4768 64.9319 37.2955 65.2636 37.6271 64.6418ZM29.1061 64.9001C30.9964 65.1961 27.9347 66.0633 29.1061 64.9001ZM36.0203 65.2798C37.8102 65.509 35.1091 65.5616 36.0203 65.2798ZM49.1144 65.2944C50.1549 65.4668 48.9598 66.1826 49.1144 65.2944ZM51.9514 65.2641C52.6785 65.4297 51.5019 65.7934 51.9514 65.2641ZM27.0678 65.5832C25.9612 66.8571 25.3549 64.9078 27.0678 65.5832ZM38.5413 65.7385C39.2684 65.904 38.0919 66.2678 38.5413 65.7385ZM24.9101 65.9948C25.9627 66.0245 24.5057 67.3233 24.9101 65.9948ZM51.9569 65.7612C52.684 65.9268 51.5075 66.2905 51.9569 65.7612ZM37.9329 66.0888C39.5155 66.3134 36.9425 67.0642 37.9329 66.0888ZM37.3038 66.1388C38.1985 66.0014 36.9366 66.8098 37.3038 66.1388ZM41.0001 66.2094C42.001 66.1189 40.8283 67.1098 41.0001 66.2094ZM28.9005 66.341C29.7534 66.1108 28.8977 66.977 28.9005 66.341ZM22.8092 66.6785C23.7154 67.1148 20.804 66.6643 22.8092 66.6785ZM36.211 66.6496C37.4091 68.0283 35.291 67.3111 36.211 66.6496ZM35.1759 66.8484C36.1769 67.0074 34.4218 67.3182 35.1759 66.8484ZM47.366 66.8045C48.1051 67.6615 47.0261 68.8749 47.366 66.8045ZM63.809 66.6849C64.7036 66.5476 63.4417 67.3559 63.809 66.6849ZM42.366 66.973C42.8109 68.7791 40.5069 66.6307 42.366 66.973ZM30.2996 67.1787C32.1717 67.6459 29.2156 67.8278 30.2996 67.1787ZM24.1942 67.6532C25.3815 68.2471 23.1657 68.3296 24.1942 67.6532ZM32.5622 67.812C34.245 68.1363 31.2671 68.6236 32.5622 67.812ZM43.6587 67.75C44.5626 68.233 42.6432 68.1959 43.6587 67.75ZM51.0306 67.7597C53.0078 67.7315 51.3148 69.5186 51.0306 67.7597ZM21.6871 68.0755C23.1282 69.3666 20.9962 68.9271 21.6871 68.0755ZM26.8023 68.0384C27.1397 68.4353 25.9544 67.8314 26.8023 68.0384ZM40.2579 67.9582C41.8317 68.5561 38.5629 69.0116 40.2579 67.9582ZM27.4703 68.1765C28.1974 68.3421 27.0209 68.7058 27.4703 68.1765ZM52.8449 67.9292C54.0164 69.3187 51.4805 68.843 52.8449 67.9292ZM41.1634 68.2598C42.0842 68.5208 40.4212 68.9309 41.1634 68.2598ZM49.8412 68.2952C51.4093 68.0539 50.0136 69.2371 49.8412 68.2952ZM44.3483 68.5536C42.7827 70.0252 40.3483 71.5152 44.1774 70.4463C45.9714 70.4312 45.7901 69.3279 44.3483 68.5536ZM41.7391 68.6873C42.1997 69.2069 41.0157 68.8684 41.7391 68.6873ZM26.529 68.8616C26.5571 69.4539 25.8419 68.6771 26.529 68.8616ZM30.3797 68.8273C30.0897 69.6718 29.4485 68.4811 30.3797 68.8273ZM46.0795 68.8423C47.3634 68.6059 45.3317 69.8938 46.0795 68.8423ZM21.1719 69.018C22.0601 68.8279 20.9106 69.7661 21.1719 69.018ZM41.154 69.1659C42.0022 69.4945 40.313 69.5124 41.154 69.1659ZM30.5609 69.3036C31.6589 69.6562 29.7213 69.9997 30.5609 69.3036ZM18.5065 69.4704C19.2503 70.3898 17.4369 70.3934 18.5065 69.4704ZM26.7171 69.3842C28.5275 70.5318 24.748 69.8677 26.7171 69.3842ZM20.4258 70.3752C21.2833 71.7656 19.2666 71.2746 20.4258 70.3752ZM50.0032 69.7593C50.965 70.5799 49.0181 70.0566 50.0032 69.7593ZM55.4583 69.7012C56.2501 70.055 54.8707 70.2169 55.4583 69.7012ZM29.2397 70.0642C30.1468 70.6151 27.9682 70.3592 29.2397 70.0642ZM69.0673 69.7219C69.8145 70.0786 68.3279 70.0944 69.0673 69.7219ZM17.2872 70.0771C18.6657 71.5848 16.5681 70.6688 17.2872 70.0771ZM58.8599 70.2357C58.8391 71.0425 57.9281 69.7773 58.8599 70.2357ZM56.9645 70.348C57.8471 70.3013 56.5972 71.0532 56.9645 70.348ZM54.9918 70.3781C57.0262 72.7484 52.2757 70.4588 54.9918 70.3781ZM30.2085 70.6523C32.9948 71.5989 29.1287 72.1101 30.2085 70.6523ZM60.2042 70.3692C61.0988 70.2318 59.8369 71.0402 60.2042 70.3692ZM51.3419 70.4908C52.1845 71.0392 49.9987 71.0344 51.3419 70.4908ZM22.0338 70.886C22.7609 71.0515 21.5843 71.4153 22.0338 70.886ZM47.7022 70.6125C48.4293 70.778 47.2528 71.1418 47.7022 70.6125ZM39.8252 70.749C41.3927 72.3382 38.4796 72.4194 39.8252 70.749ZM24.6495 70.9213C26.1892 72.2741 22.3083 71.631 24.6495 70.9213ZM50.1786 70.7518C51.0612 70.7051 49.8113 71.457 50.1786 70.7518ZM59.7521 70.6524C60.6049 70.4222 59.7493 71.2884 59.7521 70.6524ZM43.8517 70.8327C45.984 70.9371 42.7342 72.4834 43.8517 70.8327ZM61.5757 70.6971C62.4992 70.8831 61.2125 71.6746 61.5757 70.6971ZM17.1929 70.9235C17.5006 71.9017 14.9691 70.7136 17.1929 70.9235ZM29.748 71.1352C30.4747 71.3891 29.0686 71.461 29.748 71.1352ZM27.6782 71.1788C28.4335 71.2947 26.9256 71.3108 27.6782 71.1788ZM53.5202 70.9042C54.7059 71.1686 52.8562 71.5884 53.5202 70.9042ZM49.0989 70.9725C50.2586 71.1728 48.745 71.9736 49.0989 70.9725ZM40.641 71.0689C41.8383 71.1595 40.834 72.5001 40.641 71.0689ZM40.0994 71.1907C40.8465 71.5473 39.3599 71.5632 40.0994 71.1907ZM60.3644 71.0319C60.8721 71.4113 59.9783 71.4689 60.3644 71.0319ZM18.6655 71.5848C20.5912 72.0301 18.5806 73.2429 18.6655 71.5848ZM22.713 71.5416C23.4601 71.8983 21.9735 71.9142 22.713 71.5416ZM38.1661 71.4192C39.8834 71.4553 37.0185 72.471 38.1661 71.4192ZM42.256 71.4991C43.0031 71.8558 41.5166 71.8716 42.256 71.4991ZM58.439 71.3554C59.565 72.6633 56.6232 71.6209 58.439 71.3554ZM21.2832 71.7656C22.3045 71.6989 21.1349 72.6858 21.2832 71.7656ZM41.667 71.5611C42.5617 71.4237 41.2998 72.2321 41.667 71.5611ZM10.9778 71.9091C11.6995 72.5817 10.1163 72.4267 10.9778 71.9091ZM57.3295 71.4335C57.4131 72.2851 55.8379 70.7574 57.3295 71.4335ZM28.1503 71.7476C29.6885 71.6712 27.2625 72.2996 28.1503 71.7476ZM29.472 71.8011C32.3956 71.4051 30.5109 74.7765 29.472 71.8011ZM60.7948 71.4673C61.5219 71.6328 60.3453 71.9966 60.7948 71.4673ZM40.5612 71.8486C41.8722 71.6009 40.8363 72.8282 40.5612 71.8486ZM45.6957 71.7939C46.6966 71.7034 45.5239 72.6942 45.6957 71.7939ZM38.9719 71.9147C39.3131 73.5861 37.1235 72.14 38.9719 71.9147ZM84.0942 71.4492C84.7927 71.9158 83.1945 71.9351 84.0942 71.4492ZM62.0092 71.7858C63.1736 72.3348 61.406 72.4588 62.0092 71.7858ZM57.377 71.8434C57.356 72.7308 56.3864 71.4563 57.377 71.8434ZM37.8839 72.2086C38.3445 72.7282 37.1605 72.3896 37.8839 72.2086ZM59.1341 71.9821C60.0167 71.9354 58.7668 72.6873 59.1341 71.9821ZM89.7997 71.6553C90.2603 72.1749 89.0763 71.8364 89.7997 71.6553ZM24.7576 72.3547C24.6203 73.0057 23.7548 72.5935 24.7576 72.3547ZM26.7782 72.3479C25.5033 74.0417 30.1944 72.3233 27.9448 74.733C32.1452 71.0859 28.448 80.2654 26.555 75.6807C30.8987 76.952 25.109 73.9625 25.625 72.5451L26.045 72.3939L26.7782 72.3479ZM54.0937 72.0915C54.9884 71.9542 53.7265 72.7625 54.0937 72.0915ZM29.3873 72.3739C29.9298 73.0329 28.1687 72.9869 29.3873 72.3739ZM32.9432 72.3397C33.7481 72.8246 31.5059 72.8451 32.9432 72.3397ZM53.4871 72.237C54.9891 72.848 52.6077 73.7901 53.4871 72.237ZM33.9901 72.4808C34.9635 73.4671 30.8719 72.7416 33.9901 72.4808ZM42.5091 72.4907C44.2174 72.7051 42.5583 73.8931 42.5091 72.4907ZM46.0972 72.4525C46.9771 72.9805 45.3478 73.8186 46.0972 72.4525ZM23.5833 72.695C25.1748 72.6538 23.1608 73.2174 23.5833 72.695ZM51.2634 72.4606C51.6594 73.1342 50.5525 72.6686 51.2634 72.4606ZM16.515 72.9886C17.6455 73.3477 15.6236 73.4707 16.515 72.9886ZM32.2555 72.8455C33.2564 73.0045 31.5013 73.3153 32.2555 72.8455ZM23.4218 73.0414C24.0446 74.1268 22.203 73.4078 23.4218 73.0414ZM43.9383 72.8499C44.7719 72.9755 44.4897 73.6071 43.9383 72.8499ZM17.1034 72.4523C17.8596 73.1063 16.1889 72.7338 17.1034 72.4523ZM18.5783 73.2429C21.3591 73.5625 18.1288 73.7722 18.5783 73.2429ZM22.1575 73.2845C23.1584 73.4436 21.4033 73.7544 22.1575 73.2845ZM48.2088 73.0085C50.1908 73.6151 46.7556 74.3771 48.2088 73.0085ZM34.7885 73.1683C36.3267 73.0919 33.9006 73.7204 34.7885 73.1683ZM14.5772 73.4014C15.6804 72.398 12.8258 73.184 14.5772 73.4014ZM24.2022 73.5144C25.0848 73.4677 23.8349 74.2196 24.2022 73.5144ZM9.02338 73.7663C10.4231 73.6048 8.58419 74.4573 9.02338 73.7663ZM10.6444 73.8246C12.1905 75.3452 11.5597 73.4775 10.6444 73.8246ZM30.6586 73.6142C32.2332 73.5529 30.1383 74.6191 30.6586 73.6142ZM10.2989 73.8487C10.4762 74.2492 9.49909 73.599 10.2989 73.8487ZM23.79 73.7495C23.4844 75.1644 22.7973 74.037 23.79 73.7495ZM25.9879 73.7722C27.5819 74.3307 25.8831 75.1712 25.9879 73.7722ZM47.1618 73.6014C49.0806 74.4219 45.6101 74.4134 47.1618 73.6014ZM31.5131 73.7819C32.6362 73.288 31.7648 74.551 31.5131 73.7819ZM37.4344 73.7398C39.2369 73.94 36.1999 74.133 37.4344 73.7398ZM38.2314 73.8621C38.692 74.3817 37.508 74.0431 38.2314 73.8621ZM50.1595 73.736C52.1786 74.0227 49.4691 74.601 50.1595 73.736ZM42.9815 73.8524C44.0706 73.9432 42.4391 75.1134 42.9815 73.8524ZM45.1531 73.8601C47.3342 74.1084 44.6101 76.2313 45.1531 73.8601ZM20.424 74.1355C21.7721 74.2867 20.0385 75.0908 20.424 74.1355ZM36.6824 73.9713C37.5993 73.9823 36.5123 74.7622 36.6824 73.9713ZM5.76444 74.3738C6.66109 74.5643 4.76865 74.6984 5.76444 74.3738ZM39.8457 74.0264C40.5132 74.1783 39.6982 74.7046 39.8457 74.0264ZM19.2474 74.2506C19.5848 74.6475 18.3995 74.0436 19.2474 74.2506ZM28.5883 74.1647C29.6196 74.1872 28.1993 74.9378 28.5883 74.1647ZM66.6942 73.8902C68.5248 74.7632 66.8002 75.4971 66.6942 73.8902ZM44.6494 74.1412C45.317 74.2932 44.502 74.8193 44.6494 74.1412ZM34.8401 74.3824C36.0364 74.9427 34.126 75.1021 34.8401 74.3824ZM18.6165 74.5685C20.4683 76.4874 16.1318 75.692 18.6165 74.5685ZM46.5059 74.3247C47.2388 74.6157 46.1756 74.9174 46.5059 74.3247ZM72.5173 74.1596C72.9779 74.6792 71.7938 74.3406 72.5173 74.1596ZM40.9629 74.515C42.4692 74.709 39.6521 75.4053 40.9629 74.515ZM24.3197 74.7457C24.893 75.9201 23.249 74.7785 24.3197 74.7457ZM11.9151 74.982C13.5296 75.4999 11.61 76.03 11.9151 74.982ZM22.6299 74.9204C24.8645 74.3167 21.2502 76.2077 22.6299 74.9204ZM15.8227 75.061C17.2622 75.0804 15.7468 76.1943 15.8227 75.061ZM65.6338 74.5644C66.5678 74.647 65.1479 75.3202 65.6338 74.5644ZM20.5845 75.0447C22.107 75.2753 19.4593 75.5631 20.5845 75.0447ZM19.5295 75.2217C19.9901 75.7413 18.8061 75.4027 19.5295 75.2217ZM29.4553 75.1159C31.098 75.6522 27.5006 75.4262 29.4553 75.1159ZM61.6551 74.7728C62.3822 74.9383 61.2057 75.3021 61.6551 74.7728ZM69.5628 74.6908C70.4156 74.4607 69.56 75.3269 69.5628 74.6908ZM65.0713 74.7605C65.8804 75.1227 64.635 75.5912 65.0713 74.7605ZM66.7872 74.8004C67.6297 75.3489 65.4435 75.3442 66.7872 74.8004ZM40.1346 75.1026C41.33 75.6751 39.3236 75.8633 40.1346 75.1026ZM23.5827 75.4421C24.8825 75.6806 22.8347 76.1722 23.5827 75.4421ZM8.9685 75.7123C9.79438 76.232 7.06433 75.5582 8.9685 75.7123ZM19.4478 75.7197C20.2185 76.1115 18.9191 76.3513 19.4478 75.7197ZM7.95542 75.8634C8.76441 76.0499 7.6322 76.626 7.95542 75.8634ZM9.65405 75.9895C10.5367 75.9429 9.28676 76.6947 9.65405 75.9895ZM17.1216 75.3529C18.125 75.6283 16.6261 76.6824 17.1216 75.3529ZM56.3278 75.5007C57.3099 75.0927 56.3678 76.3875 56.3278 75.5007ZM20.4029 75.9208C21.2236 79.6192 16.428 75.4095 20.4029 75.9208ZM22.3338 75.9104C23.2433 75.7702 21.9459 76.5829 22.3338 75.9104ZM15.2067 76.0094C16.5192 77.7393 14.8979 77.6315 15.2067 76.0094ZM43.4078 75.7982C44.2607 75.568 43.405 76.4342 43.4078 75.7982ZM54.6486 75.7004C55.4577 76.0626 54.2123 76.5312 54.6486 75.7004ZM28.9593 76.0055C29.8688 75.8653 28.5714 76.678 28.9593 76.0055ZM40.0417 75.8887C40.5494 76.2681 39.6557 76.3257 40.0417 75.8887ZM44.5059 75.8518C46.4341 75.9886 43.9296 76.5157 44.5059 75.8518ZM69.9002 75.7194C70.6708 76.4493 69.0575 76.2335 69.9002 75.7194ZM25.7762 76.2406C27.2181 76.3003 25.0508 76.9549 25.7762 76.2406ZM16.1899 76.4207C18.4079 77.1302 16.3888 77.9842 16.1899 76.4207ZM71.1522 76.0186C71.7596 76.3172 70.9488 76.7334 71.1522 76.0186ZM45.4442 76.4371C46.1713 76.6026 44.9947 76.9664 45.4442 76.4371ZM21.6814 76.746C22.5909 76.6058 21.2935 77.4185 21.6814 76.746ZM31.8995 76.7469C34.0491 76.9708 30.7661 79.5939 31.8995 76.7469ZM20.8591 76.8787C21.9951 76.7131 21.179 77.8834 20.8591 76.8787ZM70.2995 76.6683C71.0505 77.2597 69.7857 77.2996 70.2995 76.6683ZM24.4919 77.222C25.4018 77.6886 23.8035 77.7034 24.4919 77.222ZM22.5937 77.3434C24.9941 77.5417 22.2903 78.8201 22.5937 77.3434ZM28.1581 77.4496C28.8444 77.7609 27.437 77.7189 28.1581 77.4496ZM18.8229 77.5685C20.7887 77.5287 18.8599 78.4847 18.8229 77.5685ZM28.963 77.4907C29.8859 77.3458 28.8908 78.4593 28.963 77.4907ZM35.2906 77.5396C36.2788 78.1829 34.1387 77.8196 35.2906 77.5396ZM12.6206 77.8169C15.9004 77.9299 10.8832 78.4797 12.6206 77.8169ZM21.0211 77.8574C22.9538 78.7072 20.2559 79.7986 21.0211 77.8574ZM18.2231 77.9496C21.356 78.005 20.3494 82.0126 18.2231 77.9496ZM14.0176 78.1731C15.2457 78.3388 13.7065 79.5562 14.0176 78.1731ZM9.71184 78.3091C12.7464 79.4645 8.597 80.7354 9.71184 78.3091ZM31.7564 78.4056C33.2872 79.5827 29.8243 78.8259 31.7564 78.4056ZM40.7028 78.3131C42.2943 78.2718 40.2804 78.8354 40.7028 78.3131ZM12.0142 78.7817C12.7413 78.9472 11.5648 79.311 12.0142 78.7817ZM4.58345 79.0266C5.04405 79.5462 3.85999 79.2076 4.58345 79.0266ZM18.9512 78.8737C20.8533 78.8527 18.1304 79.5342 18.9512 78.8737ZM59.7716 78.8173C61.0635 79.0858 59.2803 79.7988 59.7716 78.8173ZM2.84926 79.5422C3.30986 80.0618 2.1258 79.7232 2.84926 79.5422ZM24.2332 79.3172C25.0696 79.11 24.2254 79.9469 24.2332 79.3172ZM33.9764 79.2665C35.6241 79.024 33.4503 78.9057 33.5867 79.5865L33.9764 79.2665ZM60.7085 79.0916C61.7459 79.079 60.1437 79.7331 60.7085 79.0916ZM64.6632 79.0549C67.0402 78.4129 64.1647 80.1859 64.6632 79.0549ZM31.6582 79.4372C32.5365 80.0235 29.694 79.2293 31.6582 79.4372ZM39.3479 79.485C40.075 79.6505 38.8985 80.0143 39.3479 79.485ZM61.8425 79.411C62.6348 80.2084 61.1937 80.2907 61.8425 79.411ZM70.6263 79.3503C70.7295 80.5705 68.5906 79.4884 70.6263 79.3503ZM25.6345 79.8779C26.8061 79.9938 24.2769 80.5873 25.6345 79.8779ZM66.5346 79.456C67.8074 79.6729 65.744 80.1854 66.5346 79.456ZM8.17697 80.1509C9.02984 79.9207 8.17419 80.7869 8.17697 80.1509ZM58.5829 79.7772C59.4561 80.5617 57.3508 79.9694 58.5829 79.7772ZM44.7364 79.9804C45.6459 79.8403 44.3485 80.6529 44.7364 79.9804ZM45.1867 80.0074C46.4897 80.2384 45.13 81.2613 45.1867 80.0074ZM16.2341 80.3175C17.415 80.0197 16.342 81.3037 16.2341 80.3175ZM65.2539 79.7993C66.7617 79.9764 65.1627 80.8072 65.2539 79.7993ZM19.6302 80.4569C19.8874 83.8116 15.4169 79.5767 19.4156 80.6963L19.5988 80.4919L19.6302 80.4569ZM38.7526 80.3709C40.0586 80.3913 38.3703 81.2305 38.7526 80.3709ZM12.6577 80.6679C13.8385 81.123 10.8458 82.0116 12.6577 80.6679ZM56.8729 80.2514C59.1048 80.9207 54.397 81.3428 56.8729 80.2514ZM39.7836 80.6404C40.5102 80.8942 39.1041 80.9662 39.7836 80.6404ZM62.7992 80.4694C64.466 80.1719 63.2925 81.6655 62.7992 80.4694ZM18.3479 80.9853C19.2452 81.5001 17.6965 81.5903 18.3479 80.9853ZM32.2325 80.8866C32.6215 81.9071 30.7716 82.0392 32.2325 80.8866ZM13.668 81.0961C14.2044 81.9754 11.6579 81.536 13.668 81.0961ZM20.9167 81.0628C24.5712 83.9314 16.7869 84.3846 21.0317 81.7361L21.0718 81.4183L20.9167 81.0628ZM42.5921 80.8319C43.5015 80.6917 42.2041 81.5044 42.5921 80.8319ZM47.1372 80.8935C48.0198 80.8468 46.7699 81.5986 47.1372 80.8935ZM23.9612 81.1811C25.1253 81.3975 23.1878 81.9677 23.9612 81.1811ZM9.12863 81.348C10.0515 81.203 9.05636 82.3165 9.12863 81.348ZM64.3115 80.763C65.4212 81.3256 63.3676 81.7439 64.3115 80.763ZM62.4497 80.8121C64.5729 80.5957 62.6973 82.3874 62.4497 80.8121ZM25.8597 81.347C27.3647 80.8126 25.8257 82.4909 25.8597 81.347ZM44.932 81.1624C45.9329 81.3215 44.1778 81.6322 44.932 81.1624ZM52.8854 81.0803C54.9036 82.5566 50.8371 82.7116 52.8854 81.0803ZM73.9209 80.8603C75.2338 80.8561 73.616 81.902 73.9209 80.8603ZM34.4818 81.3598C35.5563 81.4322 33.9046 81.864 34.4818 81.3598ZM23.544 81.5398C24.328 82.1918 22.6335 81.8416 23.544 81.5398ZM16.196 81.7336C19.6694 81.32 15.2288 84.8608 16.196 81.7336ZM25.3523 81.6386C26.0201 81.7905 25.2046 82.3168 25.3523 81.6386ZM24.7234 81.6846C25.3771 81.9831 24.0762 81.9969 24.7234 81.6846ZM45.4505 81.4886C46.3154 81.105 45.3723 82.1924 45.4505 81.4886ZM39.38 81.639C40.1272 81.9957 38.6406 82.0115 39.38 81.639ZM51.9382 81.5052C52.7046 82.0186 51.1828 82.0353 51.9382 81.5052ZM15.5096 81.8962C16.7567 81.977 15.0454 82.7738 15.5096 81.8962ZM8.22861 82.1364C9.11121 82.0897 7.86132 82.8416 8.22861 82.1364ZM22.9037 81.9803C23.7976 82.1838 21.9212 82.2954 22.9037 81.9803ZM55.3517 81.6817C56.9176 81.6399 55.1124 82.8321 55.3517 81.6817ZM6.80273 82.2412C8.35597 81.8897 6.66607 83.273 6.80273 82.2412ZM59.4109 81.7567C60.138 81.9223 58.9614 82.286 59.4109 81.7567ZM26.4559 82.1082C27.183 82.2737 26.0065 82.6375 26.4559 82.1082ZM75.1832 81.6174C76.4274 81.8443 74.6901 83.0768 75.1832 81.6174ZM76.5938 81.6741C78.4408 82.4404 75.8417 83.2541 76.5938 81.6741ZM19.2245 82.3595C21.1095 82.0199 18.4914 83.2171 19.2245 82.3595ZM28.275 82.275C28.6125 82.672 27.4272 82.068 28.275 82.275ZM30.287 82.4822C30.9254 83.2249 29.4013 82.6199 30.287 82.4822ZM74.113 82.1001C74.9494 81.8929 74.1051 82.7298 74.113 82.1001ZM23.9278 82.6766C25.5667 82.4248 24.2089 83.8828 23.9278 82.6766ZM44.4695 82.4828C45.1666 83.153 43.4317 83.263 44.4695 82.4828ZM40.8071 82.5293C41.8073 82.5301 40.2575 82.9561 40.8071 82.5293ZM66.1193 82.2759C67.7957 81.9472 66.3038 83.2663 66.1193 82.2759ZM61.0015 82.3385C62.2088 82.1627 60.3827 83.3316 61.0015 82.3385ZM34.9602 82.683C35.8627 83.2912 34.1304 83.4415 34.9602 82.683ZM27.5223 82.8027C30.2159 83.2899 33.4667 87.271 29.0091 85.9916C26.2322 87.8605 29.2636 83.4208 27.5223 82.8027ZM42.6439 82.6558C43.8172 83.8426 41.9873 84.5104 42.6439 82.6558ZM45.0173 82.7113C47.3382 82.7491 44.839 84.3643 45.0173 82.7113ZM31.0447 82.8915C32.1362 83.2676 31.2336 83.6604 31.0447 82.8915ZM52.6911 82.6689C54.2953 82.8032 51.7401 83.0662 52.6911 82.6689ZM64.382 82.6147C65.8303 83.5026 62.8704 83.8135 64.382 82.6147ZM6.59892 83.2621C7.29077 83.9914 6.11642 84.3587 6.59892 83.2621ZM14.783 83.2269C15.554 83.6192 14.2541 83.8582 14.783 83.2269ZM40.7711 82.9839C41.8024 83.0063 40.3821 83.7569 40.7711 82.9839ZM74.8948 82.6441C76.0007 82.5773 74.686 83.5171 74.8948 82.6441ZM16.6492 83.2865C16.6563 85.8426 23.4056 84.2118 20.9834 87.3378C20.068 89.759 18.4156 84.2143 16.6616 86.2728C15.47 85.6879 15.4971 83.9009 16.6492 83.2865ZM74.0207 82.6816C74.9634 83.0213 72.9723 83.0494 74.0207 82.6816ZM30.3453 83.1476C31.2128 84.0182 28.8725 82.9975 30.3453 83.1476ZM56.6916 82.9458C58.0199 83.1419 55.7972 83.5195 56.6916 82.9458ZM80.8894 82.6879C81.35 83.2075 80.166 82.8689 80.8894 82.6879ZM28.6744 83.2614C29.881 83.4523 27.8254 84.0937 28.6744 83.2614ZM27.1826 83.3201C28.5583 86.0997 24.8734 83.226 27.1826 83.3201ZM54.8089 83.1316C55.2695 83.6512 54.0854 83.3126 54.8089 83.1316ZM21.1624 83.4904C22.045 83.4437 20.7951 84.1956 21.1624 83.4904ZM30.9324 83.3863C32.2787 83.6677 30.1039 84.5009 30.9324 83.3863ZM41.4483 83.332C42.5542 83.2652 41.2395 84.205 41.4483 83.332ZM32.0499 83.4388C32.7484 83.9054 31.1502 83.9248 32.0499 83.4388ZM23.0745 83.5775C23.7499 84.4987 22.0037 83.8256 23.0745 83.5775ZM24.7669 83.6156C24.6973 84.9798 23.1643 83.09 24.7669 83.6156ZM14.3234 83.8667C16.2898 83.3245 14.5006 85.3266 14.3234 83.8667ZM39.9087 83.622C40.3693 84.1416 39.1853 83.8031 39.9087 83.622ZM77.836 83.3665C79.2085 83.8975 76.2843 84.2552 77.836 83.3665ZM45.4263 83.7862C45.933 84.1666 45.0414 84.222 45.4263 83.7862ZM17.8036 84.189C18.2642 84.7086 17.0801 84.3701 17.8036 84.189ZM22.5147 84.1388C23.9075 85.3271 21.5644 85.5905 22.5147 84.1388ZM34.0957 84.0154C35.1331 84.0028 33.5309 84.6569 34.0957 84.0154ZM75.1228 83.5782C75.9647 83.6482 75.2128 84.3068 75.1228 83.5782ZM9.01339 84.3291C10.2217 85.0016 8.85936 85.4779 9.01339 84.3291ZM53.3884 83.8655C54.2831 83.7281 53.0211 84.5365 53.3884 83.8655ZM80.534 83.5776C81.0417 83.957 80.1479 84.0145 80.534 83.5776ZM24.7085 84.2838C26.6325 84.5293 25.1303 89.1924 24.6626 85.9937C22.2715 88.7077 23.0211 84.3047 24.7085 84.2838ZM10.3011 84.4397C12.8237 84.5379 8.82691 84.947 10.3011 84.4397ZM6.85575 84.5269C7.75043 84.3895 6.48849 85.1979 6.85575 84.5269ZM31.365 84.266C32.2597 84.1286 30.9977 84.937 31.365 84.266ZM28.9844 84.4014C29.445 84.921 28.2609 84.5824 28.9844 84.4014ZM74.6616 83.9146C75.5442 83.8679 74.2943 84.6198 74.6616 83.9146ZM44.4797 84.2521C46.2735 84.5808 44.5054 85.4126 44.4797 84.2521ZM53.167 84.2022C54.4703 84.4464 52.215 84.72 53.167 84.2022ZM90.1561 83.8176C91.0991 83.7723 89.8992 84.5829 90.1561 83.8176ZM15.9847 84.6158C16.9768 85.2434 15.0894 85.0952 15.9847 84.6158ZM56.8119 84.1952C59.0932 83.9748 57.6229 86.0412 56.8119 84.1952ZM78.398 84.0403C80.0032 84.1853 77.2914 84.6708 78.398 84.0403ZM23.0046 84.6308C24.0419 84.6182 22.4398 85.2723 23.0046 84.6308ZM40.0762 84.4489C40.847 84.8407 39.5476 85.0805 40.0762 84.4489ZM51.5075 84.3271C51.968 84.8467 50.784 84.5081 51.5075 84.3271ZM83.4941 83.9982C83.1612 85.0355 82.8598 83.8832 83.4941 83.9982ZM12.4762 84.8C12.9829 85.1802 12.0912 85.236 12.4762 84.8ZM34.0944 84.6784C34.9926 84.6923 33.9382 85.4595 34.0944 84.6784ZM39.1714 84.6243C39.7574 85.1394 38.1268 84.7053 39.1714 84.6243ZM65.0902 84.3481C66.7299 84.8607 63.9733 85.1892 65.0902 84.3481ZM36.4702 84.6634C36.9186 85.8381 36.0696 85.0727 36.4702 84.6634ZM34.8676 84.747C35.8679 84.7478 34.3181 85.1738 34.8676 84.747ZM13.0956 84.9873C14.1983 85.9304 12.1116 85.2568 13.0956 84.9873ZM53.4783 84.6375C54.2054 84.8031 53.0289 85.1668 53.4783 84.6375ZM79.6477 84.3701C80.8911 85.1954 78.6019 85.1285 79.6477 84.3701ZM42.7554 84.7635C44.3324 84.6215 42.4591 85.3165 42.7554 84.7635ZM83.518 84.3804C83.9141 85.054 82.8071 84.5883 83.518 84.3804ZM10.0286 85.266C10.4892 85.7856 9.30514 85.447 10.0286 85.266ZM15.3067 85.2101C17.3003 86.2228 15.1214 86.4375 15.3067 85.2101ZM68.0494 84.6685C68.3868 85.0654 67.2015 84.4615 68.0494 84.6685ZM83.8082 84.5013C84.8767 84.3517 83.968 85.5243 83.8082 84.5013ZM21.1697 85.2118C22.6026 85.3771 20.4729 86.1348 21.1697 85.2118ZM43.6604 85.0229C46.2168 84.9571 43.4791 86.0867 43.6604 85.0229ZM24.1808 85.2812C24.8843 85.7519 23.3045 85.6519 24.1808 85.2812ZM67.0272 84.8591C68.7557 84.7801 66.7247 85.8112 67.0272 84.8591ZM16.851 85.4028C18.8567 85.5627 15.5409 87.1171 16.851 85.4028ZM52.0277 85.1554C53.225 85.3516 51.6738 85.9585 52.0277 85.1554ZM45.599 85.2526C46.6303 85.275 45.2101 86.0257 45.599 85.2526ZM40.17 85.3426C40.3951 85.9362 39.3076 85.6389 40.17 85.3426ZM1.2415 85.7616C2.49749 84.9165 1.01162 86.9096 1.2415 85.7616ZM81.3602 84.9192C82.3468 85.1291 80.8377 85.5943 81.3602 84.9192ZM41.5485 85.3924C43.0831 85.6664 41.2981 86.4042 41.5485 85.3924ZM11.6066 85.7456C15.2023 86.9063 7.52054 88.0795 11.6066 85.7456ZM59.7281 85.2336C60.6035 85.786 58.9769 86.6004 59.7281 85.2336ZM31.0924 85.6926C29.9066 85.6026 31.1035 85.9032 31.3783 86.0238L31.0924 85.6926ZM13.1014 85.8954C13.562 86.415 12.3779 86.0764 13.1014 85.8954ZM58.0725 85.417C59.0883 85.3118 58.228 86.3061 58.0725 85.417ZM43.2729 85.5775C45.1665 85.8834 42.1882 85.8765 43.2729 85.5775ZM65.384 85.4429C66.6022 86.1422 64.2766 85.5791 65.384 85.4429ZM71.0449 85.4447C71.772 85.6102 70.5955 85.974 71.0449 85.4447ZM21.8902 85.9872C23.4474 85.7776 21.3757 86.9924 21.8902 85.9872ZM44.8416 85.7514C45.8219 86.2172 43.9857 86.2515 44.8416 85.7514ZM35.3863 85.8882C36.3072 86.1492 34.6441 86.5593 35.3863 85.8882ZM34.4582 86.0003C34.2643 86.7419 33.6782 86.2552 34.4582 86.0003ZM40.4199 85.9368C41.1671 86.2935 39.6805 86.3093 40.4199 85.9368ZM53.2541 85.8C54.1479 86.0038 52.2718 86.1148 53.2541 85.8ZM86.198 85.5272C86.8341 86.7672 84.2347 84.7997 86.198 85.5272ZM6.62364 86.4821C6.98864 86.8327 5.79493 86.3505 6.62364 86.4821ZM76.4675 85.7919C77.3897 85.3141 76.5053 86.5982 76.4675 85.7919ZM19.7973 86.5504C20.8043 86.7423 19.2566 87.2221 19.7973 86.5504ZM37.3737 86.368C38.4453 86.6911 36.5412 86.9546 37.3737 86.368ZM83.6681 85.977C84.5161 86.5665 82.9872 86.7673 83.6681 85.977ZM58.7976 86.4038C59.5247 86.5694 58.3482 86.9331 58.7976 86.4038ZM53.3406 86.469C53.4498 87.3894 52.2581 86.1551 53.3406 86.469ZM79.065 86.2218C80.0962 86.2442 78.676 86.9948 79.065 86.2218ZM34.3576 86.7073C35.3558 86.6862 34.2353 87.5927 34.3576 86.7073ZM15.328 86.922C16.2225 86.7838 14.9611 87.593 15.328 86.922ZM59.5586 86.461C60.7883 86.51 59.1224 87.4162 59.5586 86.461ZM70.2108 86.3835C71.2425 86.9684 69.2515 86.713 70.2108 86.3835ZM9.87625 87.0686C10.9684 87.4879 9.30981 87.9086 9.87625 87.0686ZM12.761 87.0591C13.4881 87.2246 12.3115 87.5884 12.761 87.0591ZM27.2612 86.9056C27.9878 87.1595 26.5817 87.2314 27.2612 86.9056ZM14.4416 87.0842C15.2744 87.2095 14.994 87.842 14.4416 87.0842ZM42.9708 86.8317C44.7498 86.9114 42.4037 87.6856 42.9708 86.8317ZM54.9907 86.7054C56.7331 86.1377 55.4065 87.7092 54.9907 86.7054ZM82.0372 86.5653C82.9739 87.0628 81.9713 87.2817 82.0372 86.5653ZM24.0321 87.2715C25.7166 88.1452 22.6964 88.818 24.0321 87.2715ZM6.89556 87.5776C8.66981 87.5384 7.07309 88.7184 6.89556 87.5776ZM84.2643 86.7969C85.1171 86.5667 84.2615 87.4329 84.2643 86.7969ZM69.2143 86.9581C70.2634 87.1412 68.3477 87.2864 69.2143 86.9581ZM60.5187 87.064C61.1865 87.2158 60.3709 87.7423 60.5187 87.064ZM18.9556 87.554C20.5734 89.3407 16.655 88.3891 18.9556 87.554ZM22.7643 87.5253C25.8168 88.7199 22.4415 91.8197 23.1494 88.9151C24.1236 89.6236 22.8277 87.7368 22.7643 87.5253ZM70.4515 87.0402C71.0811 88 69.1377 87.6295 70.4515 87.0402ZM82.8271 86.9754C83.6124 87.2135 83.0366 87.7127 82.8271 86.9754ZM85.3044 86.949C86.8449 87.0902 85.0647 88.2492 85.3044 86.949ZM40.7639 87.4247C41.5111 87.7814 40.0245 87.7972 40.7639 87.4247ZM61.9744 87.2036C63.9959 87.8331 59.4579 88.0447 61.9744 87.2036ZM32.5197 87.5247C32.548 88.117 31.8322 87.3404 32.5197 87.5247ZM31.2028 87.5522C32.1962 87.9037 30.7016 88.3695 31.2028 87.5522ZM58.4072 87.3138C59.6466 87.8318 57.5856 87.9052 58.4072 87.3138ZM8.75862 87.8828C9.70438 88.4213 7.65181 88.1206 8.75862 87.8828ZM66.4029 87.3873C66.92 88.4535 65.0272 87.7878 66.4029 87.3873ZM13.2499 87.9753C13.4623 89.2318 11.9769 88.7699 13.2499 87.9753ZM3.48993 88.1523C4.66169 88.2948 2.8198 88.8878 3.48993 88.1523ZM25.0355 87.9237C26.2828 88.2849 23.7962 88.3114 25.0355 87.9237ZM56.6656 87.5867C57.4128 87.9434 55.9262 87.9592 56.6656 87.5867ZM26.9901 88.0749C28.6364 88.2962 27.0946 89.365 26.9901 88.0749ZM14.1067 88.2538C15.1928 88.5425 13.1048 88.9201 14.1067 88.2538ZM15.1631 88.3594C13.6704 89.7013 10.4033 90.4564 14.5946 90.4739C15.7732 90.3866 16.5027 88.8717 15.1631 88.3594ZM21.5432 88.2924C22.6458 88.7513 20.7905 88.9233 21.5432 88.2924ZM40.2643 88.0929C40.9914 88.2585 39.8148 88.6222 40.2643 88.0929ZM70.9772 87.8464C72.0425 87.852 70.7961 88.7669 70.9772 87.8464ZM58.5022 88.0643C58.9628 88.5839 57.7788 88.2453 58.5022 88.0643ZM65.0727 88.081C66.4021 87.6758 65.4372 89.0094 65.0727 88.081ZM41.2327 88.3548C44.5113 88.6232 39.268 90.4692 41.2327 88.3548ZM24.7521 88.5467C26.616 88.3027 25.8065 90.6646 24.7521 88.5467ZM9.13549 88.7551C9.8626 88.9206 8.68606 89.2844 9.13549 88.7551ZM70.4059 88.1029C72.2916 88.0734 70.2134 89.1786 70.4059 88.1029ZM19.9729 88.6694C20.8725 90.4269 17.8864 89.1523 19.9729 88.6694ZM37.7973 88.5048C41.1683 88.5866 36.7698 90.4285 37.7973 88.5048ZM37.7227 88.6172C38.1833 89.1368 36.9992 88.7982 37.7227 88.6172ZM39.6166 88.6019C41.5093 89.3994 39.132 90.3477 39.6166 88.6019ZM10.2219 88.9628C11.0716 89.2529 9.89027 89.5847 10.2219 88.9628ZM21.8553 88.9701C23.1542 89.4682 22.1373 90.7589 21.8553 88.9701ZM58.2259 88.6074C59.224 88.5864 58.1035 89.4928 58.2259 88.6074ZM57.7517 88.6231C58.4847 88.9136 57.4216 89.2157 57.7517 88.6231ZM5.09291 89.2057C6.23787 90.5909 4.30927 90.3306 5.09291 89.2057ZM39.6153 88.8578C40.3937 88.4085 39.7492 89.5706 39.6153 88.8578ZM56.5128 88.7453C57.7508 88.731 56.8143 89.6787 56.5128 88.7453ZM4.66724 89.2998C5.39434 89.4654 4.21781 89.8291 4.66724 89.2998ZM16.5574 89.1889C17.458 90.0354 15.0574 89.2881 16.5574 89.1889ZM38.7615 88.9603C41.0412 89.9902 37.5422 91.861 38.7615 88.9603ZM28.1012 89.1068C28.9959 88.9694 27.734 89.7778 28.1012 89.1068ZM20.7445 89.2062C22.1542 89.6988 20.8349 91.1203 20.7445 89.2062ZM35.9794 89.1143C37.6871 88.8635 36.4242 90.4843 35.9794 89.1143ZM18.2205 89.3323C19.5745 88.9858 17.8974 90.1549 18.2205 89.3323ZM67.0353 88.8569C67.9397 88.9293 66.4025 89.376 67.0353 88.8569ZM73.3564 88.8118C74.2603 89.2948 72.3409 89.2577 73.3564 88.8118ZM71.3816 88.8528C73.6061 88.7326 71.0782 90.8351 71.3816 88.8528ZM25.3072 89.4929C26.527 89.3952 24.9084 90.3233 25.3072 89.4929ZM58.0869 89.2288C58.9489 89.8581 56.8663 89.6487 58.0869 89.2288ZM58.7433 89.2702C59.71 89.2549 58.8349 90.5939 58.7433 89.2702ZM13.8929 89.7632C14.5914 90.2298 12.9932 90.2491 13.8929 89.7632ZM43.4695 89.5624C43.4978 90.1547 42.782 89.3782 43.4695 89.5624ZM83.7297 89.1552C84.7598 89.1738 83.3523 89.9266 83.7297 89.1552ZM65.1363 89.3901C66.637 89.7364 64.3312 90.003 65.1363 89.3901ZM51.2166 89.5591C51.928 90.6228 50.2298 89.6708 51.2166 89.5591ZM41.2993 89.7391C42.0608 90.3422 40.7455 90.489 41.2993 89.7391ZM84.9522 89.2765C85.7886 89.0694 84.9444 89.9062 84.9522 89.2765ZM87.872 89.247C89.2354 89.5207 87.279 90.1733 87.872 89.247ZM60.9066 89.5364C62.2204 89.3369 60.3624 90.7521 60.9066 89.5364ZM10.6709 90.0896C11.6664 91.5518 9.76681 91.0375 10.6709 90.0896ZM66.8622 89.5221C67.7569 89.3848 66.495 90.1931 66.8622 89.5221ZM8.63123 90.1647C8.60918 91.6056 6.55243 90.0356 8.63123 90.1647ZM38.1139 89.8538C39.1354 90.8444 36.8319 89.731 38.1139 89.8538ZM77.3579 89.453C78.8961 89.377 76.4707 90.0049 77.3579 89.453ZM33.7098 89.9883C35.0319 90.0712 33.1604 90.4229 33.7098 89.9883ZM40.7757 89.9309C41.1132 90.3278 39.9279 89.7239 40.7757 89.9309ZM22.5689 90.2701C23.6055 90.8531 21.4779 90.6558 22.5689 90.2701ZM31.0139 90.1802C32.4088 90.6248 30.6439 91.0914 31.0139 90.1802ZM1.04282 91.0317C2.02763 92.0864 0.56329 91.2453 1.04282 91.0317ZM21.2769 90.4496C22.1224 90.9714 20.1321 90.7594 21.2769 90.4496ZM64.4436 89.9896C65.3628 89.9011 64.2158 90.7309 64.4436 89.9896ZM33.1754 90.3485C34.7319 90.1104 32.8968 91.4249 33.1754 90.3485ZM18.4967 90.5365C19.0034 90.9169 18.1118 90.9723 18.4967 90.5365ZM35.6777 90.4176C37.0191 90.2683 35.6568 91.9118 35.6777 90.4176ZM72.3823 90.0705C73.3833 89.98 72.2106 90.9708 72.3823 90.0705ZM68.3395 90.1936C68.4328 90.8956 67.4666 89.8285 68.3395 90.1936ZM28.1524 90.6221C29.6314 90.3 27.6661 91.3176 28.1524 90.6221ZM9.67202 90.9037C10.0791 91.2946 9.02412 90.8876 9.67202 90.9037ZM17.0679 90.9145C18.3682 90.9464 16.4135 91.4563 17.0679 90.9145ZM37.3152 90.7021C38.179 91.5009 36.3982 90.9861 37.3152 90.7021ZM12.4689 91.0396C13.5063 91.027 11.9041 91.681 12.4689 91.0396ZM32.6566 90.8255C33.8794 90.751 32.6279 91.9097 32.6566 90.8255ZM28.9878 90.8672C29.8241 90.6601 28.9799 91.4969 28.9878 90.8672ZM19.896 91.0242C20.469 91.9154 18.4637 91.5151 19.896 91.0242ZM78.5672 90.4073C79.7842 90.4384 77.7143 90.9233 78.5672 90.4073ZM13.1962 91.1976C13.6219 92.3888 11.788 91.5266 13.1962 91.1976ZM63.37 90.68C64.038 90.8313 63.2222 91.3584 63.37 90.68ZM18.8471 91.1941C19.7418 91.0567 18.4799 91.8651 18.8471 91.1941ZM60.4508 90.7748C61.3157 90.3912 60.3725 91.4786 60.4508 90.7748ZM33.9433 91.141C35.3804 92.2179 33.6555 92.1475 33.9433 91.141ZM38.404 91.0957C40.5393 91.19 38.026 92.397 38.404 91.0957ZM42.1355 91.056C42.5961 91.5756 41.412 91.237 42.1355 91.056ZM78.2427 90.7233C79.7872 91.1397 77.0618 91.3041 78.2427 90.7233ZM17.7641 91.4389C19.4319 92.5193 17.5385 93.8692 17.7641 91.4389ZM31.3507 91.3571C31.6882 91.7541 30.5029 91.1501 31.3507 91.3571ZM89.9584 90.7499C91.8048 90.7627 89.1677 91.7359 89.9584 90.7499ZM29.5894 91.4338C30.4162 91.6831 28.9808 91.9467 29.5894 91.4338ZM31.7371 91.4148C32.7467 91.4232 31.5868 92.2031 31.7371 91.4148ZM11.6695 91.711C12.8053 92.2052 10.1525 91.9742 11.6695 91.711ZM65.6282 91.1368C66.7914 91.531 64.9642 91.8509 65.6282 91.1368ZM19.1111 91.6328C19.8582 91.9895 18.3717 92.0053 19.1111 91.6328ZM32.5249 91.4899C33.2721 91.8465 31.7855 91.8624 32.5249 91.4899ZM14.8789 91.7328C15.7734 91.5947 14.512 92.4038 14.8789 91.7328ZM76.0722 91.1913C77.4587 91.8406 75.5519 92.3177 76.0722 91.1913ZM20.6735 91.7819C21.0426 92.8327 19.1555 91.7636 20.6735 91.7819ZM24.2736 91.7435C26.4353 91.9515 23.5897 93.6839 24.2736 91.7435ZM58.0194 91.3839C59.5116 91.7583 57.2052 92.635 58.0194 91.3839ZM88.2731 91.0641C89.3671 91.0434 88.1049 91.9681 88.2731 91.0641ZM38.0148 91.6183C38.2456 92.2584 37.1269 91.7465 38.0148 91.6183ZM92.5488 91.0716C93.4435 90.9342 92.1816 91.7426 92.5488 91.0716ZM47.2747 91.5821C47.8053 92.4787 46.2315 91.5537 47.2747 91.5821ZM10.6774 92.0642C11.7154 92.0973 10.8096 93.6961 10.6774 92.0642ZM13.8076 92.0819C15.6235 91.9858 13.0218 92.8087 13.8076 92.0819ZM33.1012 91.8931C33.5087 92.6894 31.7444 91.6529 33.1012 91.8931ZM90.6179 91.368C92.3387 91.1789 90.9778 92.76 90.6179 91.368ZM80.0898 91.4918C81.6669 91.3499 79.7936 92.0448 80.0898 91.4918ZM98.5425 91.3459C99.4632 91.6069 97.8006 92.017 98.5425 91.3459ZM23.1122 92.253C23.4944 92.9502 22.2288 92.2252 23.1122 92.253ZM81.9542 91.626C83.0287 91.6985 81.377 92.1302 81.9542 91.626ZM23.8769 92.2713C24.4699 92.8877 23.2477 92.892 23.8769 92.2713ZM44.5497 92.0774C45.7002 93.1098 43.6056 92.8497 44.5497 92.0774ZM77.1615 91.7304C78.0112 92.0206 76.8299 92.3523 77.1615 91.7304ZM28.1631 92.2627C29.084 92.5237 27.4209 92.9338 28.1631 92.2627ZM14.9406 92.5048C16.163 92.8834 14.4613 93.3534 14.9406 92.5048ZM38.8141 92.2719C39.2152 92.6449 37.9685 92.1191 38.8141 92.2719ZM68.8614 91.9807C69.7507 91.8682 68.8286 92.925 68.8614 91.9807ZM67.8818 91.9971C68.7912 91.857 67.4939 92.6697 67.8818 91.9971ZM36.1448 92.3757C37.2601 93.2142 34.7842 92.5632 36.1448 92.3757ZM12.4817 92.7076C12.4016 93.5505 11.3302 92.3113 12.4817 92.7076ZM48.2933 92.3633C49.4086 93.1435 47.4971 93.5933 48.2933 92.3633ZM57.7822 92.271C58.6768 92.1328 57.4153 92.942 57.7822 92.271ZM62.1027 92.2363C63.2059 92.2152 61.7635 93.2465 62.1027 92.2363ZM36.6504 92.5231C37.8077 93.2375 36.756 93.6564 36.6504 92.5231ZM14.3312 92.7723C15.1227 93.3063 13.6337 93.4052 14.3312 92.7723ZM75.3891 92.1929C76.39 92.1024 75.2173 93.0932 75.3891 92.1929ZM33.2014 92.6427C34.0644 93.1631 32.3497 93.1813 33.2014 92.6427ZM19.4922 92.7961C21.4067 93.2806 18.2547 93.2828 19.4922 92.7961ZM20.6613 92.8072C21.6668 92.8592 20.7722 94.3176 20.6613 92.8072ZM29.6336 92.7331C30.6721 92.7516 29.3288 93.9271 29.6336 92.7331ZM62.7649 92.3906C63.995 92.5849 62.5139 93.2472 62.7649 92.3906ZM45.272 92.5812C46.737 92.2581 44.5921 93.5145 45.272 92.5812ZM58.4434 92.4447C59.3385 92.0173 58.9066 93.6131 58.4434 92.4447ZM64.9703 92.4023C66.5084 92.3263 64.083 92.9543 64.9703 92.4023ZM97.5562 92.1128C99.3145 93.168 95.918 92.3847 97.5562 92.1128ZM40.316 92.7326C41.0431 92.8982 39.8666 93.2619 40.316 92.7326ZM60.6116 92.5699C61.3445 92.861 60.2814 93.1626 60.6116 92.5699ZM16.1491 93.1548C16.8962 93.5115 15.4097 93.5274 16.1491 93.1548ZM41.4134 92.8867C41.874 93.4063 40.69 93.0677 41.4134 92.8867ZM66.6015 92.6654C66.7799 95.016 63.6898 92.3463 66.6015 92.6654ZM100.868 92.4424C101.673 92.8013 100.434 93.2705 100.868 92.4424ZM35.3029 93.2832C36.2905 93.8913 33.8283 94.5906 35.3029 93.2832ZM12.1095 93.5472C13.2408 93.6916 11.8091 94.3933 12.1095 93.5472ZM14.7782 93.5563C16.5882 96.2994 11.639 94.1267 14.7782 93.5563ZM18.4924 93.6281C18.8746 94.3253 17.609 93.6002 18.4924 93.6281ZM33.8736 93.4642C34.6208 93.8209 33.1342 93.8367 33.8736 93.4642ZM52.6278 93.2669C53.95 93.3498 52.0785 93.7015 52.6278 93.2669ZM32.6814 93.4849C34.1456 93.758 32.392 94.643 32.6814 93.4849ZM79.2705 93.0312C80.3944 93.2622 78.5621 93.7606 79.2705 93.0312ZM45.3737 93.3976C46.2681 93.2595 45.0068 94.0686 45.3737 93.3976ZM58.9635 93.3623C59.8601 93.5528 57.9677 93.6869 58.9635 93.3623ZM74.8057 93.1935C75.4922 93.6061 74.0688 93.6366 74.8057 93.1935ZM96.4017 92.9693C98.0408 93.0922 96.9484 94.3278 96.4017 92.9693ZM30.4469 93.6825C31.1144 93.8343 30.2996 94.3603 30.4469 93.6825ZM41.3648 93.5899C42.5785 93.9049 40.6541 94.8606 41.3648 93.5899ZM98.9936 93.0136C103.642 94.7402 97.2646 94.6582 98.9936 93.0136ZM35.6879 93.7763C36.415 93.9418 35.2385 94.3056 35.6879 93.7763ZM57.4057 93.5449C58.3804 93.8023 56.1979 94.0604 57.4057 93.5449ZM34.3376 93.8875C34.249 97.6801 31.4287 96.0208 34.3376 93.8875ZM52.911 93.7585C53.8972 93.9983 52.427 94.5415 52.911 93.7585ZM18.2087 94.1353C20.3026 94.2767 17.0721 94.9586 18.2087 94.1353ZM25.1608 94.0987C26.0683 94.4869 24.6788 95.0018 25.1608 94.0987ZM12.6096 94.2426C13.0346 94.3755 12.3395 94.4281 12.6096 94.2426ZM20.3736 94.1612C21.268 94.0231 20.0067 94.8322 20.3736 94.1612ZM19.0916 94.2872C20.9837 94.2233 19.6937 95.93 19.0916 94.2872ZM95.6952 93.5708C97.1673 93.8088 95.4067 94.6629 95.6952 93.5708ZM25.8513 94.3835C26.6893 94.0969 25.9812 95.146 25.8513 94.3835ZM13.0943 94.6769C15.0829 95.0804 13.224 95.898 13.0943 94.6769ZM70.7761 94.1021C71.7131 94.2861 69.8466 94.9606 70.7761 94.1021ZM58.3415 94.2618C60.0757 95.6422 56.9685 95.8281 58.3415 94.2618ZM100.853 93.946C103.561 94.7579 100.887 96.9471 100.853 93.946ZM18.7454 94.9512C19.206 95.4708 18.022 95.1322 18.7454 94.9512ZM36.3722 94.7633C36.1777 95.5041 35.5925 95.0201 36.3722 94.7633ZM83.5173 94.2633C84.3702 94.0331 83.5145 94.8993 83.5173 94.2633ZM56.4117 94.5744C58.0001 94.7496 55.761 97.9575 58.0536 96.8286C55.9217 98.62 55.5875 96.0658 56.4117 94.5744ZM30.562 94.8664C31.611 94.8209 30.0947 96.0175 30.562 94.8664ZM23.0167 94.9487C24.015 94.9279 22.8943 95.8342 23.0167 94.9487ZM43.8974 94.7391C44.7918 94.601 43.5305 95.4101 43.8974 94.7391ZM55.5733 94.7245C55.8416 95.9117 53.666 95.228 55.5733 94.7245ZM57.5703 94.7032C58.3175 95.0599 56.8309 95.0757 57.5703 94.7032ZM32.5618 94.9824C32.7671 95.7716 31.5953 94.7235 32.5618 94.9824ZM20.301 95.266C21.0281 95.4316 19.8516 95.7953 20.301 95.266ZM98.1319 94.4631C99.6112 94.0571 98.223 95.7117 98.1319 94.4631ZM18.2707 95.3547C20.5517 96.4494 16.7921 96.6787 18.2707 95.3547ZM22.782 95.4452C24.4379 95.5312 22.3833 96.5792 22.782 95.4452ZM34.8227 95.4427C35.9616 96.121 33.3534 95.7897 34.8227 95.4427ZM57.3274 95.2029C58.6612 95.793 56.1244 95.7976 57.3274 95.2029ZM70.387 95.1132C71.3099 94.9682 70.3147 96.0817 70.387 95.1132ZM71.2686 95.124C74.4777 95.6138 72.4593 97.3134 71.2686 95.124ZM38.1162 95.4781C39.1263 95.243 37.868 96.2961 38.1162 95.4781ZM67.9539 95.1632C68.8827 94.6626 68.0015 95.9664 67.9539 95.1632ZM41.5286 95.5357C42.8394 96.8938 42.6099 95.3131 41.5286 95.5357ZM20.7621 95.7609C21.5985 95.5537 20.7543 96.3906 20.7621 95.7609ZM30.4922 95.7105C31.3866 95.5725 30.1253 96.3815 30.4922 95.7105ZM32.3008 95.6928C32.8078 96.0729 31.9159 96.1285 32.3008 95.6928ZM16.2787 95.8895C17.043 96.8734 14.81 96.3523 16.2787 95.8895ZM14.5869 95.9114C16.6667 96.0331 13.8833 97.5684 14.5869 95.9114ZM100.802 95.0716C101.438 96.3865 99.6357 95.4999 100.802 95.0716ZM46.164 95.819C47.2492 96.0469 45.9091 96.6702 46.164 95.819ZM76.8141 95.5248C77.8823 96.2561 75.1094 95.5684 76.8141 95.5248ZM108.67 95.2055C109.519 95.4962 108.338 95.8274 108.67 95.2055ZM39.6366 96.0134C41.5236 96.4502 39.4317 97.3856 39.6366 96.0134ZM36.4303 96.0885C37.9766 96.2154 36.1637 97.2895 36.4303 96.0885ZM34.3749 96.1542C36.3681 98.985 32.9793 99.8915 34.3749 96.1542ZM26.1935 96.2535C27.0879 96.1154 25.8266 96.9245 26.1935 96.2535ZM19.8917 96.4305C21.3306 96.3933 19.2798 97.0328 19.8917 96.4305ZM43.0032 96.1842C44.4876 96.1344 42.1337 96.7009 43.0032 96.1842ZM43.8509 96.1751C44.4293 96.8043 42.8135 96.1847 43.8509 96.1751ZM44.6626 96.1665C46.2452 96.0469 44.7717 97.278 44.6626 96.1665ZM30.8693 96.387C31.7981 95.8864 30.917 97.1902 30.8693 96.387ZM42.0984 96.3595C43.6577 97.4107 40.6039 96.748 42.0984 96.3595ZM88.1866 95.7634C89.8097 96.166 87.6058 96.811 88.1866 95.7634ZM105.406 95.7662C105.617 96.4529 104.634 95.7812 105.406 95.7662ZM21.2176 96.7988C22.2788 96.6676 21.0671 98.1386 21.2176 96.7988ZM19.77 96.8616C22.6675 95.3188 19.025 98.298 19.77 96.8616ZM55.529 96.5478C56.115 97.0629 54.4844 96.6289 55.529 96.5478ZM58.5693 96.5359C58.9704 96.9089 57.7237 96.3831 58.5693 96.5359ZM28.37 96.8582C29.7106 97.5014 27.5751 97.9158 28.37 96.8582ZM15.5234 97.1399C16.4535 97.5634 14.7426 98.0153 15.5234 97.1399ZM28.9412 96.9969C29.6884 97.3536 28.2018 97.3694 28.9412 96.9969ZM33.4027 96.9494C34.7039 96.9768 32.4983 97.4944 33.4027 96.9494ZM43.2758 96.8441C43.7364 97.3637 42.5523 97.0252 43.2758 96.8441ZM54.1695 96.7281C55.6978 96.9525 54.1185 97.7448 54.1695 96.7281ZM44.5615 96.8535C45.7085 97.2937 43.5476 97.515 44.5615 96.8535ZM53.2493 96.7746C54.3834 97.6295 51.9402 97.8122 53.2493 96.7746ZM84.6452 96.4603C85.1528 96.8396 84.2591 96.8972 84.6452 96.4603ZM36.1104 96.9881C37.3765 97.2757 35.6702 97.9178 36.1104 96.9881ZM31.8092 97.2274C32.8396 98.8657 30.9143 98.0855 31.8092 97.2274ZM123.421 96.3741C124.27 96.6647 123.089 96.9959 123.421 96.3741ZM22.6414 97.4512C22.6828 99.9164 20.2225 96.7182 22.6414 97.4512ZM29.8372 97.3825C30.6215 98.0346 28.9268 97.6839 29.8372 97.3825ZM85.9038 96.8045C86.7922 96.9232 85.2813 97.5606 85.9038 96.8045ZM51.8388 97.3029C53.0168 97.0947 52.0461 98.6579 51.8388 97.3029ZM79.5394 97.1203C80.428 97.6516 78.6798 97.6694 79.5394 97.1203ZM42.1204 97.5748C43.0247 97.6468 41.4876 98.0937 42.1204 97.5748ZM31.0362 97.7012C31.957 97.9618 30.2938 98.3723 31.0362 97.7012ZM43.6559 97.6682C46.4028 100.127 41.7976 100.04 43.6559 97.6682ZM22.6456 97.8926C23.3727 98.0581 22.1961 98.4219 22.6456 97.8926ZM23.2351 97.8863C24.3733 98.4547 22.1164 98.4294 23.2351 97.8863ZM32.6266 97.7862C33.599 98.2651 31.7793 98.5907 32.6266 97.7862ZM124.385 96.8234C125.053 96.9751 124.238 97.5014 124.385 96.8234ZM26.3366 97.882C28.9692 98.7802 24.3474 99.7862 26.3366 97.882ZM91.1988 97.209C92.893 97.4191 90.6601 98.1894 91.1988 97.209ZM35.1364 97.8178C36.7864 98.2968 34.8052 99.002 35.1364 97.8178ZM74.3037 97.4185C75.1774 97.9293 73.5941 98.1121 74.3037 97.4185ZM36.9236 97.9256C37.5694 100.429 35.1192 99.5988 36.9236 97.9256ZM33.8232 98.0027C34.1549 99.5773 32.1549 97.8666 33.8232 98.0027ZM107.729 97.2754C109.545 97.1871 105.965 98.1101 107.729 97.2754ZM92.9194 97.4837C94.8041 97.1441 92.1861 98.3418 92.9194 97.4837ZM20.5709 98.2552C22.9377 98.1606 20.0418 99.3044 20.5709 98.2552ZM30.5592 98.1804C32.9214 98.6099 28.956 99.6563 30.5592 98.1804ZM30.0201 98.2014C30.9145 98.0633 29.6532 98.8724 30.0201 98.2014ZM44.9417 98.0509C45.6561 98.413 44.196 98.3709 44.9417 98.0509ZM24.7316 98.2723C26.5951 98.5647 22.5938 98.6637 24.7316 98.2723ZM110.565 97.4518C112.41 97.5628 110.498 98.6001 110.565 97.4518ZM79.8942 97.7795C80.4364 98.3993 79.1316 98.1881 79.8942 97.7795ZM51.9921 98.0771C52.3743 98.7742 51.1087 98.0492 51.9921 98.0771ZM109.596 97.7936C110.323 97.9591 109.147 98.3229 109.596 97.7936ZM94.178 97.959C95.4177 97.7431 94.0567 98.9 94.178 97.959ZM92.7894 98.0072C98.0145 99.3733 89.4287 98.8367 92.7894 98.0072ZM18.3517 98.9322C21.7533 100.464 15.4402 100.329 18.3517 98.9322ZM24.7323 98.8642C26.351 100.02 21.2156 101.146 24.7323 98.8642ZM22.8802 98.9091C21.8369 100.052 21.1312 98.4021 22.8802 98.9091ZM32.4836 98.9486C33.3508 99.8497 30.9171 100.442 32.4836 98.9486ZM37.6481 98.8952C39.4919 98.3705 38.0905 100.06 37.6481 98.8952ZM28.647 99.0333C30.117 99.0899 27.8852 99.8227 28.647 99.0333ZM92.9939 98.3766C93.9129 97.9013 92.9953 99.1957 92.9939 98.3766ZM124.12 98.136C124.613 98.8618 123.063 98.2313 124.12 98.136ZM43.0279 99.0012C44.0653 98.9886 42.4631 99.6427 43.0279 99.0012ZM31.2419 99.1271C32.2605 99.4582 30.6188 100.027 31.2419 99.1271ZM28.1009 99.1629C30.2335 98.8356 27.4764 100.116 28.1009 99.1629ZM80.9613 98.6019C81.1228 99.4256 79.1092 98.1745 80.9613 98.6019ZM40.1635 99.1658C40.3405 99.566 39.3637 98.916 40.1635 99.1658ZM37.0694 99.1836C38.42 99.5107 36.885 100.416 37.0694 99.1836ZM27.4368 99.338C29.0149 99.2757 27.6775 100.635 27.4368 99.338ZM73.5849 98.8973C74.4793 98.7592 73.218 99.5683 73.5849 98.8973ZM29.1317 99.4803C30.8384 99.3713 29.2573 100.651 29.1317 99.4803ZM45.4209 99.3569C46.3442 99.2122 45.3481 100.326 45.4209 99.3569ZM95.2819 98.8318C96.1763 98.6937 94.9151 99.5028 95.2819 98.8318ZM90.7854 98.0996C92.7906 98.0072 89.3024 99.308 90.7854 98.0996ZM96.1224 98.9494C97.9389 99.0988 95.3578 99.8689 96.1224 98.9494ZM74.7495 99.2163C75.6439 99.079 74.382 99.8872 74.7495 99.2163ZM20.0729 99.8088C23.1041 100.011 19.1892 100.579 20.0729 99.8088ZM92.8848 99.1323C94.1692 99.3212 91.9414 100.078 92.8848 99.1323ZM30.6276 99.81C31.7502 99.3162 30.8797 100.578 30.6276 99.81ZM25.0347 99.9281C27.8695 101.908 22.7627 100.633 25.0347 99.9281ZM112.262 99.091C112.989 99.2565 111.813 99.6203 112.262 99.091ZM94.9995 99.2755C96.0517 100.1 93.7712 99.9819 94.9995 99.2755ZM100.504 99.2169C101.231 99.3824 100.055 99.7462 100.504 99.2169ZM97.0593 99.2639C98.8247 100.247 96.7246 100.954 97.0593 99.2639ZM22.0043 100.072C23.148 100.427 21.1811 100.976 22.0043 100.072ZM108.942 99.1816C110.052 100.028 107.222 99.1931 108.942 99.1816ZM33.9861 100.084C35.4621 100.454 32.6829 100.695 33.9861 100.084ZM39.4905 100.032C41.9863 102.154 36.5273 101.191 39.4905 100.032ZM45.2038 99.9719C45.9509 100.329 44.4643 100.344 45.2038 99.9719ZM36.9381 100.066C38.4219 101.422 36.5403 101.134 36.9381 100.066ZM78.9696 99.6351C78.6709 100.668 77.7318 99.526 78.9696 99.6351ZM45.9426 100.185C46.8372 100.048 45.5753 100.856 45.9426 100.185ZM80.2701 99.8256C80.9847 100.806 78.0798 99.166 80.2701 99.8256ZM37.7876 100.334C38.5967 100.696 37.3513 101.165 37.7876 100.334ZM105.396 99.7176C106.29 99.5802 105.028 100.389 105.396 99.7176ZM35.395 100.484C37.6063 100.879 34.7673 102.433 35.395 100.484ZM113.775 99.7378C114.546 100.13 113.246 100.369 113.775 99.7378ZM47.9433 100.44C48.67 100.694 47.2639 100.766 47.9433 100.44ZM82.5954 100.076C84.1999 99.8176 82.3715 101.39 82.5954 100.076ZM104.774 99.9078C105.696 99.4297 104.812 100.714 104.774 99.9078ZM22.2837 100.793C23.2846 100.952 21.5295 101.263 22.2837 100.793ZM31.2984 100.741C33.0424 100.573 30.592 101.73 31.2984 100.741ZM33.4864 100.762C35.3207 100.898 32.7804 101.137 33.4864 100.762ZM107.44 99.9995C109.943 101.058 107.307 102.362 107.44 99.9995ZM40.649 100.739C41.5584 100.599 40.261 101.412 40.649 100.739ZM26.4497 100.906C27.9018 100.903 27.813 102.308 26.4497 100.906ZM81.2025 100.381C83.8184 100.091 79.9712 101.245 81.2025 100.381ZM32.2971 100.938C33.9593 101.847 31.7084 102.387 32.2971 100.938ZM24.5002 101.042C24.9009 101.414 23.6542 100.889 24.5002 101.042ZM47.6798 100.84C48.3694 101.634 46.6848 101.635 47.6798 100.84ZM34.9846 101.528C34.7995 102.86 33.0101 101.013 34.9846 101.528ZM96.5536 100.419C97.3007 100.776 95.8142 100.792 96.5536 100.419ZM35.9072 100.94C36.2451 101.338 35.0598 100.733 35.9072 100.94ZM22.8198 101.263C25.8239 101.656 21.1998 101.703 22.8198 101.263ZM105.508 100.418C107.743 100.541 105.585 102.474 105.508 100.418ZM28.9707 101.304C29.8533 101.258 28.6034 102.01 28.9707 101.304ZM82.6353 100.733C83.3624 100.899 82.1859 101.263 82.6353 100.733ZM23.6811 101.402C24.7485 102.019 22.7028 102.572 23.6811 101.402ZM77.4201 100.845C78.3147 100.707 77.0528 101.516 77.4201 100.845ZM104.964 100.73C106.014 100.841 104.535 101.792 104.964 100.73ZM81.1024 100.989C82.0208 100.514 81.104 101.808 81.1024 100.989ZM37.9683 101.279C39.4103 101.339 37.243 101.993 37.9683 101.279ZM75.2792 101.118C76.278 101.519 74.3036 101.55 75.2792 101.118ZM48.8651 101.424C50.3823 101.706 47.7538 102.076 48.8651 101.424ZM98.9903 100.942C100.048 100.778 99.2778 102.34 98.9903 100.942ZM106.57 100.862C107.609 100.88 106.265 102.056 106.57 100.862ZM78.2075 101.217C82.1489 101.185 77.3198 104.023 78.2075 101.217ZM26.5302 101.769C27.9535 101.497 26.4363 102.646 26.5302 101.769ZM30.4729 101.806C30.6507 102.207 29.673 101.556 30.4729 101.806ZM35.6918 101.761C36.7929 101.623 36.4978 102.876 35.6918 101.761ZM29.2225 101.856C29.7304 102.235 28.8363 102.293 29.2225 101.856ZM44.9483 101.705C46.0248 102.387 44.0045 102.09 44.9483 101.705ZM31.5452 101.854C32.6486 102.342 30.4191 102.152 31.5452 101.854ZM82.4621 101.319C83.027 101.773 81.6837 101.762 82.4621 101.319ZM33.6141 101.918C34.8606 103.202 32.178 103.531 33.6141 101.918ZM29.9052 102.062C32.3407 101.108 29.5945 103.116 29.9052 102.062ZM48.8084 101.922C50.4972 101.858 48.7342 103.031 48.8084 101.922ZM85.6252 101.53C86.3523 101.696 85.1758 102.059 85.6252 101.53ZM95.7004 101.276C98.0563 102.979 94.1751 102.638 95.7004 101.276ZM74.0848 101.657C75.1 101.351 76.3237 103.478 74.7304 102.292L74.0848 101.657ZM43.0778 102.149C44.003 104.057 40.466 102.955 43.0778 102.149ZM117.515 101.409C118.364 101.699 117.183 102.031 117.515 101.409ZM33.0667 102.31C32.683 103.429 31.6087 101.791 33.0667 102.31ZM30.8968 102.334C31.8064 102.193 30.5091 103.007 30.8968 102.334ZM109.741 101.518C110.742 101.677 108.987 101.988 109.741 101.518ZM26.206 102.423C26.5742 103.208 24.3813 101.906 26.206 102.423ZM40.2366 102.339C38.3943 102.363 38.4088 104.5 40.2366 102.339ZM110.702 101.657C111.098 102.331 109.991 101.865 110.702 101.657ZM81.168 102.003C82.4288 102.234 80.0277 102.632 81.168 102.003ZM35.2584 102.564C37.2718 102.107 34.2109 104.544 35.2584 102.564ZM77.5175 102.114C78.2447 102.279 77.0681 102.643 77.5175 102.114ZM23.4066 102.693C24.9981 102.651 22.9841 103.215 23.4066 102.693ZM36.5819 102.561C38.6251 102.414 36.0064 103.525 36.5819 102.561ZM45.1575 102.477C46.0814 102.111 45.4653 103.315 45.1575 102.477ZM44.4315 102.539C45.9324 105.835 41.516 104.482 44.4315 102.539ZM28.1279 102.808C28.9808 102.577 28.1251 103.444 28.1279 102.808ZM20.9312 102.423C21.5017 104.733 18.2358 102.879 20.9312 102.423ZM38.1038 102.885C38.4689 103.235 37.2751 102.753 38.1038 102.885ZM42.9362 104.106C43.0294 104.808 42.0632 103.741 42.9362 104.106ZM104.467 102.248C106.361 102.374 104.843 103.219 104.164 102.427L104.467 102.248ZM73.5408 102.644C74.4234 102.954 72.814 103.287 73.5408 102.644ZM26.1348 103.158C27.8146 103.419 26.1007 104.422 26.1348 103.158ZM118.187 102.182C119.025 101.895 118.317 102.944 118.187 102.182ZM103.332 102.345C104.779 102.876 103.149 104.139 103.332 102.345ZM76.6893 102.678C78.6877 104.391 74.3493 103.528 76.6893 102.678ZM49.7131 103.073C50.4603 103.429 48.9737 103.445 49.7131 103.073ZM84.6372 102.866C85.5197 102.82 84.2699 103.572 84.6372 102.866ZM32.7626 103.432C33.4503 104.099 31.5492 103.689 32.7626 103.432ZM106.607 102.651C109.112 103.397 105.88 103.066 106.607 102.651ZM36.406 103.413C36.329 105.006 37.8461 105.814 36.8096 103.992C37.8671 104.072 37.2474 102.569 36.406 103.413ZM28.3725 103.505C28.9647 104.511 26.9277 104.325 28.3725 103.505ZM31.9059 103.65C32.8003 103.512 31.539 104.321 31.9059 103.65ZM33.4168 103.743C34.5368 104.35 31.8149 103.923 33.4168 103.743ZM38.2095 103.692C38.8957 104.004 37.4884 103.962 38.2095 103.692ZM41.9031 103.661C42.1717 104.795 40.7587 103.711 41.9031 103.661ZM109.847 102.972C110.681 103.097 110.398 103.729 109.847 102.972ZM36.0346 103.773C36.5426 104.152 35.6484 104.21 36.0346 103.773ZM49.9309 103.646C51.3449 104.119 49.1632 104.158 49.9309 103.646ZM39.6049 103.864C39.9701 104.214 38.7763 103.732 39.6049 103.864ZM48.7601 103.826C50.5698 103.339 48.2713 105.084 48.7601 103.826ZM40.3867 103.929C40.0589 103.225 39.7511 104.781 40.3867 103.929ZM105.53 103.306C106.316 103.544 105.74 104.044 105.53 103.306ZM38.8593 104.079C40.6485 104.239 38.0884 105.399 38.8593 104.079ZM108.247 103.359C109.472 103.394 107.651 104.192 108.247 103.359ZM52.0424 104.042C52.8276 104.28 52.2518 104.78 52.0424 104.042ZM118.191 103.393C119.086 103.255 117.824 104.064 118.191 103.393ZM85.8379 103.749C86.8991 103.634 85.952 104.434 85.8379 103.749ZM79.7586 103.827C80.5752 103.574 79.7215 104.57 79.7586 103.827ZM33.7034 104.403C35.3733 104.331 33.1802 105.045 33.7034 104.403ZM101.94 103.692C102.607 103.844 101.792 104.37 101.94 103.692ZM29.1767 104.472C29.5418 104.822 28.348 104.34 29.1767 104.472ZM110.224 103.622C111.254 103.641 109.847 104.393 110.224 103.622ZM26.1074 104.532C27.5243 105.224 24.858 104.733 26.1074 104.532ZM115.585 103.581C117.148 103.373 115.625 104.787 115.585 103.581ZM29.7706 104.501C30.4244 104.799 29.1233 104.813 29.7706 104.501ZM88.0274 103.915C88.5238 104.417 86.4086 103.772 88.0274 103.915ZM35.0834 104.72C35.544 105.24 34.36 104.901 35.0834 104.72ZM51.3787 104.547C52.5515 106.529 50.6685 105.489 51.3787 104.547ZM103.858 103.991C104.96 105.917 102.998 105.75 103.858 103.991ZM49.2551 104.575C51.8656 103.673 49.9802 106.226 49.2551 104.575ZM101.467 104.066C102.42 104.444 101.304 104.906 101.467 104.066ZM41.334 104.91C41.8305 105.412 39.7152 104.767 41.334 104.91ZM27.1287 105.136C27.8779 105.239 26.5532 105.383 27.1287 105.136ZM46.4208 104.931C47.168 105.288 45.6814 105.303 46.4208 104.931ZM53.6147 104.854C54.6893 104.927 53.0376 105.358 53.6147 104.854ZM86.1855 104.509C88.1982 106.884 84.012 106.479 86.1855 104.509ZM105.913 104.3C108.461 105.182 104.646 106.764 105.913 104.3ZM79.7326 104.609C79.9022 105.487 78.6109 104.512 79.7326 104.609ZM28.5152 105.169C30.6557 104.886 27.7921 106.229 28.5152 105.169ZM23.5616 103.698C23.5299 105.523 21.2762 103.215 23.5616 103.698ZM80.5918 104.647C81.008 105.359 79.2199 104.344 80.5918 104.647ZM39.7122 105.113C41.1157 105.302 38.0488 105.648 39.7122 105.113ZM33.9971 105.229C35.6065 105.453 33.9534 106.583 33.9971 105.229ZM38.5615 105.18C39.5857 105.48 37.8106 105.782 38.5615 105.18ZM77.8557 104.762C79.6581 104.993 77.6027 106.728 77.8557 104.762ZM35.4738 105.258C36.9328 106.06 33.7277 106.111 35.4738 105.258ZM47.3246 105.143C48.234 105.003 46.9366 105.815 47.3246 105.143ZM43.8478 105.185C45.3568 105.319 43.6165 106.341 43.8478 105.185ZM87.8811 104.733C88.2891 105.386 86.9975 104.678 87.8811 104.733ZM30.7375 105.342C32.1852 105.817 29.943 105.844 30.7375 105.342ZM106.864 104.618C107.406 105.238 106.102 105.026 106.864 104.618ZM40.9078 105.324C41.7607 105.093 40.905 105.96 40.9078 105.324ZM45.173 105.331C46.0824 105.191 44.785 106.004 45.173 105.331ZM49.9035 105.405C51.0261 104.911 50.1556 106.174 49.9035 105.405ZM43.0339 105.63C44.4174 105.989 42.4306 106.476 43.0339 105.63ZM41.5243 105.71C42.2808 106.364 40.6099 105.991 41.5243 105.71ZM41.057 105.817C41.5176 106.336 40.3336 105.998 41.057 105.817ZM30.8491 105.946C31.0269 106.346 30.0493 105.696 30.8491 105.946ZM83.1944 105.406C83.7773 106.31 81.6141 105.397 83.1944 105.406ZM36.9146 105.927C37.1735 106.447 36.3126 106.126 36.9146 105.927ZM107.935 105.327C110.026 105.187 108.896 106.634 107.935 105.327ZM17.7762 101.761C20.9324 102.423 17.3282 102.847 17.7762 101.761ZM34.6274 106.266C35.8456 106.957 33.1322 106.625 34.6274 106.266ZM50.9784 106.098C51.8878 105.958 50.5905 106.77 50.9784 106.098ZM86.9515 105.739C88.3166 105.407 86.5508 106.46 86.9515 105.739ZM84.005 105.882C84.8011 108.629 81.6389 107.179 84.005 105.882ZM90.3464 105.854C90.4323 107.007 88.7689 105.207 90.3464 105.854ZM78.2322 105.989C79.1071 106.273 77.3634 106.292 78.2322 105.989ZM104.602 105.745C106.426 105.857 104.824 106.806 104.602 105.745ZM44.2702 106.466C44.448 106.866 43.4704 106.216 44.2702 106.466ZM81.7086 106.09C82.7634 106.489 80.8801 106.892 81.7086 106.09ZM35.4515 106.618C36.4299 106.297 35.3745 107.656 35.4515 106.618ZM78.8395 106.157C80.3179 105.834 78.3531 106.853 78.8395 106.157ZM33.5386 106.651C34.63 106.921 32.7154 107.275 33.5386 106.651ZM36.9894 106.689C37.7165 106.854 36.5399 107.218 36.9894 106.689ZM51.8847 106.683C51.4106 107.711 49.8926 106.398 51.8847 106.683ZM36.4374 106.863C37.7752 106.928 36.2189 107.812 36.4374 106.863ZM31.5497 107.244C32.8696 107.448 30.7726 108.202 31.5497 107.244ZM40.4922 107.148C40.9528 107.668 39.7687 107.329 40.4922 107.148ZM45.8353 107.125C46.8666 107.148 45.4463 107.898 45.8353 107.125ZM40.8627 107.192C41.8589 107.063 40.6087 108.052 40.8627 107.192ZM39.5735 107.337C40.4962 108.769 37.9122 108.742 39.5735 107.337ZM45.1949 107.32C46.0894 107.182 44.8279 107.991 45.1949 107.32ZM38.1655 107.429C39.0227 107.673 37.4103 108.412 38.1655 107.429ZM33.2918 107.651C35.6871 108.583 32.3841 109.668 33.2918 107.651ZM45.0009 107.697C45.356 108.576 42.8936 107.979 45.0009 107.697ZM45.9271 107.724C47.8839 108.087 45.9948 109.25 45.9271 107.724ZM32.5271 107.917C32.7041 108.317 31.7273 107.667 32.5271 107.917ZM41.6001 107.877C42.9227 108.403 40.5806 108.595 41.6001 107.877ZM50.9871 107.785C51.669 108.772 49.0715 107.466 50.9871 107.785ZM106.615 107.197C104.088 107.627 103.919 108.537 106.615 107.197ZM37.5754 108.008C38.3464 108.4 37.0466 108.639 37.5754 108.008ZM43.3405 108.016C44.2215 108.7 42.387 108.589 43.3405 108.016ZM43.9808 108.102C44.8273 108.532 43.2848 108.605 43.9808 108.102ZM36.4454 108.186C37.0332 108.678 35.3727 108.281 36.4454 108.186ZM93.9005 107.593C94.6089 109.245 91.9394 108.099 93.9005 107.593ZM45.3928 108.172C46.2408 109.537 44.584 108.894 45.3928 108.172ZM51.5945 108.343C52.3467 108.925 50.855 109.103 51.5945 108.343ZM40.5081 108.64C40.9687 109.159 39.7846 108.821 40.5081 108.64ZM94.0459 108.113C95.3548 108.331 94.19 109.298 94.0459 108.113ZM88.6703 108.292C89.5529 108.245 88.303 108.997 88.6703 108.292ZM89.518 108.283C90.3033 108.521 89.7275 109.021 89.518 108.283ZM92.5287 108.257C94.3298 109.497 91.8605 109.844 92.5287 108.257ZM34.9682 108.925C36.0351 109.306 34.1113 109.469 34.9682 108.925ZM37.7359 108.903C38.3203 109.867 36.7059 109.048 37.7359 108.903ZM53.8429 108.829C54.3035 109.349 53.1194 109.01 53.8429 108.829ZM90.452 108.469C92.2122 108.941 88.7099 109.87 90.452 108.469ZM44.9471 109.089C45.7388 109.443 44.3595 109.605 44.9471 109.089ZM88.4353 108.715C90.0621 108.205 89.3696 109.808 88.4353 108.715ZM50.5955 109.221C50.8422 110.2 49.0884 109.948 50.5955 109.221ZM41.4125 109.459C42.2668 110.137 40.3223 109.834 41.4125 109.459ZM36.2621 109.571C36.7698 109.95 35.876 110.007 36.2621 109.571ZM42.7505 109.509C43.8823 109.887 41.7858 109.942 42.7505 109.509ZM93.6745 109.009C95.2161 108.674 93.2146 110.017 93.6745 109.009ZM44.0111 109.689C45.1277 109.9 43.3657 110.588 44.0111 109.689ZM39.1753 109.814C39.9024 109.979 38.7258 110.343 39.1753 109.814ZM52.7657 109.835C53.5129 110.191 52.0263 110.207 52.7657 109.835ZM46.8649 109.955C47.3726 110.334 46.4788 110.392 46.8649 109.955ZM96.8079 109.531C97.535 109.697 96.3585 110.06 96.8079 109.531ZM35.8623 110.201C36.0393 110.601 35.0625 109.951 35.8623 110.201ZM40.733 110.184C42.4246 110.612 40.2894 111.03 40.733 110.184ZM89.3703 109.705C89.4849 110.548 87.9302 109.068 89.3703 109.705ZM53.1384 110.155C53.6839 110.62 52.3111 110.327 53.1384 110.155ZM48.5659 110.274C49.4867 110.535 47.8237 110.946 48.5659 110.274ZM35.7568 110.537C38.3497 111.123 34.9904 113.358 35.7568 110.537ZM99.0955 110.012C100.077 109.604 99.136 110.899 99.0955 110.012ZM50.628 110.879C51.5082 111.044 51.2284 111.979 50.628 110.879ZM43.1632 110.961C44.3107 111.272 42.3845 111.674 43.1632 110.961ZM53.3469 110.879C54.2416 110.741 52.9797 111.55 53.3469 110.879ZM45.1497 111.076C46.9483 112.174 45.3645 112.421 45.1497 111.076ZM49.6632 111.03C51.2547 110.989 49.2407 111.553 49.6632 111.03ZM40.6467 111.151C43.2064 112.312 40.3751 113.293 40.6467 111.151ZM42.1928 111.439C42.6534 111.959 41.4694 111.62 42.1928 111.439ZM51.9338 111.335C52.8164 111.288 51.5665 112.04 51.9338 111.335ZM44.4975 111.58C46.0834 112.964 43.861 113.312 44.4975 111.58ZM96.9698 111.026C98.288 110.778 96.942 111.892 96.9698 111.026ZM49.0856 111.55C51.2662 113.115 46.749 111.065 49.0856 111.55ZM43.944 111.691C44.6726 112.572 42.4347 111.883 43.944 111.691ZM43.1664 111.76C45.2422 113.271 40.6349 112.662 43.1664 111.76ZM41.5945 112.557C43.02 112.69 40.9288 112.938 41.5945 112.557ZM36.8925 112.324C37.6397 112.681 36.1531 112.697 36.8925 112.324ZM37.3813 112.485C38.1084 112.65 36.9318 113.014 37.3813 112.485ZM48.2071 112.454C49.5538 112.152 48.4645 114.052 48.2071 112.454ZM44.8882 112.739C46.2103 112.821 44.3388 113.173 44.8882 112.739ZM43.9519 112.833C45.6065 113.722 44.1433 114.186 43.9519 112.833ZM40.2731 112.905C41.9541 113.864 37.3536 113.574 40.2731 112.905ZM37.7196 113.144C38.4467 113.309 37.2702 113.673 37.7196 113.144ZM38.5592 113.301C39.3064 113.657 37.8198 113.673 38.5592 113.301ZM43.3652 113.581C44.1124 113.937 42.6258 113.953 43.3652 113.581ZM43.9494 113.593C45.7549 114.121 43.1923 113.814 43.9494 113.593ZM48.9822 113.541C49.3196 113.938 48.1343 113.334 48.9822 113.541ZM41.97 113.761C42.697 114.507 40.1564 113.964 41.97 113.761ZM42.8905 113.767C44.0515 114.687 41.4035 114.395 42.8905 113.767ZM38.6144 113.813C39.2819 113.965 38.4669 114.491 38.6144 113.813ZM39.4611 114.171C40.54 114.221 38.9927 115.15 39.4611 114.171ZM44.3194 114.31C45.1493 114.73 43.1804 114.687 44.3194 114.31ZM46.1794 114.379C46.9065 114.545 45.73 114.909 46.1794 114.379ZM37.9542 114.493C38.8719 115.225 36.9194 115.742 37.9542 114.493ZM53.0148 114.465C54.0455 114.101 53.2664 115.695 53.0148 114.465ZM42.5366 114.581C44.5895 114.356 42.8938 115.77 42.5366 114.581ZM41.5583 114.596C42.9763 114.648 40.7022 115.64 41.5583 114.596ZM46.9966 114.589C48.2484 114.285 47.0508 115.541 46.9966 114.589ZM40.65 114.77C41.6742 115.069 39.8991 115.371 40.65 114.77Z" fill="white"/>
<path d="M232.878 0.00070202C232.731 0.00227376 232.552 0.105561 232.48 0.230229C232.409 0.354897 230.693 2.32012 228.667 4.59748C226.642 6.87485 224.961 8.82347 224.933 8.92785C224.868 9.16263 225.489 8.49875 228.507 5.10511C229.812 3.6375 231.39 1.88804 232.013 1.21733C232.718 0.458655 233.045 -0.00107585 232.878 0.00070202ZM211.776 0.226899L211.775 0.22718C211.601 0.230891 210.22 1.70302 209.108 3.07589C202.872 9.63009 196.907 17.4327 191.713 23.5892C189.18 25.8124 187.149 28.8919 185.144 31.2464C183.29 33.4037 182.99 33.6777 182.481 33.6831C182.094 33.6873 181.702 34.0538 180.105 35.9042C179.054 37.1231 177.948 38.3839 177.647 38.7063C177.346 39.0285 176.696 39.7811 176.203 40.3788C175.71 40.9766 175.238 41.5036 175.155 41.5501C175.071 41.5965 174.992 41.3281 174.979 40.9538C174.96 40.4231 174.818 40.1175 174.336 39.5662C173.829 38.9851 173.754 38.8152 173.919 38.6118C174.09 38.4021 174.064 38.3829 173.75 38.4862C173.525 38.5605 173.379 38.5392 173.378 38.4314C173.377 38.3341 173.604 38.2521 173.883 38.2491C174.543 38.2421 174.37 37.981 173.618 37.848C173.295 37.7909 173.068 37.682 173.114 37.6061C173.219 37.4312 172.233 37.2363 171.997 37.3855C171.887 37.4552 171.86 37.3941 171.924 37.2216C171.999 37.0178 171.909 36.9223 171.575 36.8529C171.327 36.8015 171.031 36.7317 170.917 36.6979C170.803 36.664 170.543 36.7005 170.338 36.7799C170.07 36.8839 169.842 36.8377 169.517 36.6126C169.081 36.3114 168.222 36.3378 168.225 36.6522C168.227 36.8185 167.394 37.041 167.261 36.9101C167.205 36.8557 167.269 36.7408 167.402 36.6545C167.593 36.5307 167.565 36.4979 167.271 36.499C167.066 36.4999 166.897 36.5939 166.896 36.7078C166.894 36.8228 166.816 36.7868 166.721 36.6268C166.458 36.1852 166.213 36.2841 166.343 36.7797C166.419 37.0697 166.398 37.1815 166.281 37.1108C166.183 37.0521 166.061 37.0984 166.009 37.2134C165.956 37.3285 165.941 37.1987 165.976 36.9253L166.039 36.4282L165.737 36.8092C165.514 37.091 165.33 37.1652 165.032 37.0936C164.675 37.008 164.634 37.0464 164.679 37.4238C164.708 37.6588 164.666 37.812 164.587 37.7643C164.508 37.7166 164.369 37.8196 164.279 37.9934C164.188 38.1672 163.9 38.3545 163.639 38.4096C163.308 38.4796 162.997 38.763 162.608 39.3496C162.078 40.1499 161.663 40.4842 161.861 39.9516C161.912 39.8144 161.875 39.7029 161.778 39.7039C161.619 39.7056 161.635 40.0365 161.89 41.9117C161.913 42.0783 162.029 42.2739 162.15 42.3465C162.3 42.4377 162.336 42.6606 162.264 43.0672C162.008 44.5173 163.122 50.1618 164.339 53.5868C164.763 54.779 164.744 55.0713 163.657 55.5698C162.569 56.0684 162.36 56.1253 160.902 56.2421C159.444 56.3589 158.75 56.4776 156.731 56.606C154.288 56.5998 152.152 57.263 150.471 57.9172C149.837 58.4957 149.596 58.727 148.53 59.0027C147.465 59.2784 146.573 59.5073 146.028 59.6477C143.992 60.1722 139.995 60.5457 139.515 60.2562C139.431 60.2052 138.537 60.064 137.528 59.9423C134.947 59.6309 131.962 60.0395 128.542 61.0148C125.122 61.99 123.947 62.2378 123.647 62.3378C122.942 62.573 122.29 62.4195 122.286 62.017C122.284 61.8476 122.164 61.6127 122.019 61.495C121.8 61.3167 121.666 61.3309 121.217 61.5789C120.697 61.8661 120.659 61.8653 120.142 61.5582C119.702 61.2967 119.408 61.2574 118.5 61.3383C117.892 61.3925 117.357 61.4954 117.311 61.5672C117.265 61.6389 116.783 61.8662 116.239 62.0724C115.696 62.2785 115.182 62.5134 115.096 62.5942C115.01 62.675 114.807 62.7425 114.643 62.7442C114.48 62.746 114.255 62.8975 114.144 63.081C114.032 63.2645 113.862 63.4155 113.767 63.4165C113.495 63.4194 112.582 65.0976 112.46 65.8173L112.35 66.465L112.867 66.356C113.152 66.2959 113.377 66.3007 113.368 66.3667C113.286 66.9495 113.41 67.0547 114.099 66.9876C115.125 66.8878 115.36 66.7435 115.465 66.1483C115.621 65.2614 116.197 65.1626 117.783 65.7507C120.186 66.476 118.657 66.4937 120.899 67.3754C124.007 68.577 125.622 69.1563 130.617 68.9442C133.685 68.8139 134.344 68.826 134.48 68.8163C134.616 68.8066 135.964 68.7562 136.288 68.7026C136.612 68.6491 136.659 68.643 136.908 68.8639C137.329 69.2372 140.896 70.2282 143.08 70.5784C143.673 70.6735 146.738 70.7728 149.891 70.7989C153.874 70.8319 155.696 70.9048 155.859 71.0375C155.989 71.1426 156.234 71.6611 156.8 73.0618C157.366 74.4626 157.373 74.5521 157.142 74.9133C157.003 75.13 156.81 75.6996 156.266 77.0434C155.722 78.3871 155.712 78.3913 154.701 78.3713C153.528 78.3481 152.435 78.6567 150.854 79.4571C149.599 80.0929 147.835 81.6563 147.84 82.1291C147.842 82.3016 147.75 82.4464 147.636 82.4511C145.435 82.5403 143.561 82.7575 141.888 83.1182C140.752 83.3631 139.413 83.6231 138.913 83.6958C138.413 83.7684 137.633 83.9855 137.179 84.1783C136.726 84.371 135.833 84.5679 135.196 84.6158C133.124 84.7717 132.344 85.3623 131.361 87.3099C130.377 89.2576 129.243 91.4458 128.169 93.2584C127.223 94.8554 125.987 97.5482 125.571 98.9206C125.24 100.009 125.203 100.064 124.999 99.7503C124.868 99.5473 124.843 99.5551 124.843 99.7984C124.844 99.9579 124.906 100.088 124.981 100.087C125.057 100.086 125.051 100.486 124.967 100.976L124.816 101.867L122.317 102.177C120.943 102.348 119.074 102.597 118.164 102.731C117.672 102.804 117.321 102.85 117.052 102.873L110.859 104.425L108.105 105.02C108.014 105.142 107.767 105.253 107.363 105.325C107.123 105.368 106.882 105.371 106.644 105.336L105.97 105.482C105.966 105.52 105.93 105.585 105.864 105.667C105.748 105.81 105.479 105.929 105.267 105.931C105.055 105.933 104.816 106.054 104.737 106.2C104.657 106.346 104.525 106.466 104.442 106.467C104.172 106.47 103.212 106.93 102.711 107.295C102.203 107.665 102.094 107.655 101.401 107.176L100.985 106.888L101.362 107.362C101.746 107.845 101.868 108.218 101.586 108.048C101.448 107.965 100.194 108.898 99.1516 109.86C98.9487 110.047 98.614 110.21 98.4078 110.221C98.3955 110.222 98.3822 110.221 98.3695 110.221L98.0767 110.721C98.0767 110.721 98.007 110.933 97.8889 111.288C97.9019 111.287 97.9144 111.284 97.9274 111.284L97.9274 111.284C98.2431 111.272 98.594 111.468 98.7078 111.756C98.8141 112.024 98.5978 112.028 98.3269 111.763C98.2119 111.65 98.0468 111.549 97.9602 111.539C97.8961 111.531 97.8609 111.525 97.8117 111.518C97.5466 112.311 97.1064 113.616 96.567 115.155C109.601 115.877 124.466 117.222 139.128 119.554L139.13 119.554C143.188 120 146.588 120.374 146.685 120.384C147.647 119.871 147.907 118.825 148.211 117.874C147.054 116.227 145.955 114.542 144.894 112.831C147.393 111.784 149.708 110.769 152.156 109.696L153.418 109.861C154.589 110.014 154.816 109.99 156.579 109.525C159.347 108.795 161.818 107.714 163.616 106.448C163.996 106.181 165.554 105.494 167.079 104.922C171.752 103.168 172.966 102.426 174.617 100.315C175.246 99.5099 176.288 98.2677 176.933 97.5539C177.932 96.4488 178.123 96.141 178.215 95.4794C178.457 94.4053 178.97 94.0211 179.702 93.2516L179.932 95.2565C180.251 98.0395 180.178 97.8769 181.286 98.2672L182.25 98.6068C182.556 98.2148 182.861 97.8226 183.167 97.4305C182.726 94.6879 182.427 92.2028 182.01 89.7842L183.043 89.8304C184.057 89.8758 184.074 89.8695 183.968 89.4891C183.908 89.2759 183.857 88.9338 183.853 88.7288C183.848 88.3874 183.77 88.3568 182.931 88.3657C181.952 88.3762 181.634 88.1119 181.967 87.5653C182.331 86.5682 182.479 85.7507 182.718 84.6822C182.455 84.4782 182.06 84.2065 182.064 83.8958C182.235 83.6117 182.412 81.9145 182.26 82.0105C181.978 81.8796 182.542 81.2444 182.857 81.3446C184.152 81.0872 183.835 76.928 183.982 76.0084C184.276 76.9951 184.97 77.8571 185.548 78.5184C186.173 79.2268 186.739 80.0154 186.806 80.2709C186.907 80.6543 186.999 80.7213 187.333 80.6537C188.796 80.6281 190.904 82.4098 192.124 82.4675C192.411 82.4644 193.273 81.5944 193.829 80.7473C194.281 80.059 194.823 77.7024 194.814 76.4636C194.812 76.0484 194.645 75.2366 194.443 74.6594L194.076 73.6099C196.824 70.8649 198.974 68.5576 201.565 65.7635L201.293 65.3006C201.027 64.8476 201.034 64.8221 201.618 64.1161C201.946 63.7193 204.03 61.5089 206.25 59.2039C214.642 50.6258 222.567 42.9724 229.439 34.9008C229.375 34.8379 229.156 34.9555 228.953 35.1623C219.614 44.5794 209.796 55.4054 201.25 63.9097C200.843 64.3139 200.615 64.416 200.233 64.3654C199.781 64.3056 199.476 64.574 196.542 67.6181C192.731 71.5721 192.855 71.4612 192.527 71.1938C192.154 70.8908 191.3 69.174 191.16 68.4476C190.866 66.2236 189.989 64.0503 189.468 62.1113C188.785 59.3806 187.478 57.4981 185.495 56.3898C185.083 56.1593 184.715 55.9476 184.677 55.9193C184.639 55.8909 185.242 55.208 186.016 54.4016C189.962 50.1513 192.799 45.6168 196.473 41.4004C196.809 41.0156 197.325 40.629 197.619 40.5412C197.947 40.4435 198.25 40.1952 198.401 39.9008C198.536 39.6365 198.776 39.2823 198.934 39.1134C199.092 38.9446 199.22 38.7318 199.219 38.6407C199.218 38.5495 199.281 38.4743 199.36 38.4734C199.619 38.4707 199.781 41.2399 199.559 41.8759C199.385 42.3743 199.397 42.5227 199.644 42.9314C199.802 43.193 199.934 43.5681 199.936 43.7647C199.938 43.9614 200.064 44.4894 200.216 44.9378C200.51 45.8074 200.786 45.9395 201.494 45.5506C202.205 45.1598 202.283 44.9743 201.911 44.5547C201.437 44.0207 201.089 43.1605 201.082 42.5067C201.076 41.9923 200.799 41.5433 200.409 41.4178C200.314 41.3875 200.185 40.7608 200.12 40.025C200.012 38.789 200.03 38.6609 200.363 38.3434C200.954 37.781 201.843 36.2523 201.842 35.8009C201.841 35.5089 202.457 34.6298 203.863 32.9148C204.975 31.5582 206.188 30.1381 206.558 29.7591C206.929 29.3802 207.232 29.0068 207.231 28.9293C207.23 28.8518 207.41 28.6908 207.631 28.5716C207.851 28.4524 208.208 28.0921 208.425 27.7708C208.641 27.4495 208.91 27.2061 209.022 27.23C209.134 27.2538 209.178 27.1978 209.12 27.1057C209.001 26.9185 210.063 25.7211 210.236 25.8473C210.296 25.8914 210.308 25.8779 210.262 25.8175C210.129 25.6452 210.693 25.0905 210.883 25.2055C210.976 25.262 211.003 25.2289 210.942 25.1321C210.818 24.9369 211.611 23.8821 211.797 23.9942C213.579 21.7225 209.675 25.9776 209.639 26.0178C209.473 26.2019 209.249 26.3534 209.14 26.3546C209.032 26.3557 208.94 26.4686 208.938 26.6053C208.935 26.7421 208.838 26.8344 208.721 26.8106C208.604 26.7868 208.545 26.8255 208.59 26.8967C208.635 26.9678 208.584 27.1486 208.477 27.2985C208.263 27.5987 206.971 27.8036 206.968 27.5378C206.967 27.4466 207.022 27.3901 207.091 27.4122C207.159 27.4342 207.206 27.3964 207.194 27.3282C207.143 27.0265 207.219 26.7764 207.339 26.8489C207.411 26.8924 207.468 26.7833 207.467 26.6065C207.464 26.3387 207.399 26.369 207.078 26.7885C206.839 27.1014 206.541 27.2937 206.292 27.2964C205.983 27.2997 205.815 27.4637 205.561 28.0085C205.38 28.3978 204.71 29.2812 204.071 29.9716C203.102 31.0187 200.811 33.5595 199.622 34.9047C198.818 35.8146 195.936 39.9004 194.261 42.5052C191.601 46.6103 188.355 50.3066 185.412 53.9277C184.617 54.9062 183.913 55.7074 183.848 55.7081C183.783 55.7087 183.112 55.4911 182.357 55.2244C181.602 54.9578 180.523 54.6738 179.958 54.5931C179.394 54.5123 178.447 54.3334 177.853 54.1955C177.26 54.0576 176.567 53.9043 176.314 53.8551C175.926 53.7798 175.733 53.5237 175.096 52.2388C174.679 51.399 174.34 50.5722 174.343 50.4017C174.346 50.2312 174.627 49.8018 174.968 49.447C175.395 49.0039 175.653 48.5345 175.794 47.9468C175.906 47.4763 176.066 47.0041 176.149 46.8974C176.242 46.7769 176.233 46.6633 176.124 46.5978C175.83 46.4203 175.925 46.0589 176.292 45.9588C176.529 45.8941 176.595 45.7951 176.5 45.6471C176.308 45.3478 176.311 44.9773 176.506 44.7006C176.638 44.5137 176.598 44.4918 176.301 44.5897C175.764 44.7664 175.839 44.4806 176.524 43.7442C178.631 41.4763 179.462 40.5653 180.847 39.0023C183.69 35.7944 184.137 34.9999 183.494 34.3038C183.235 34.0238 183.235 33.9808 183.484 33.7107C183.632 33.5505 184.682 32.2725 185.816 30.8704C195.855 20.3008 201.957 11.2986 211.35 0.897299C211.641 0.577931 211.838 0.277462 211.789 0.229737C211.786 0.22672 211.782 0.22528 211.776 0.225474L211.776 0.226899ZM227.57 0.0645543C227.55 0.0630416 227.52 0.0714397 227.482 0.0864525C227.296 0.160409 221.394 7.95119 221.103 8.50753C220.932 8.83312 222.14 7.37977 223.134 6.06199C223.673 5.34816 224.905 3.74001 225.871 2.48827C227.359 0.559738 227.708 0.0750095 227.57 0.0645543ZM215.438 16.038C215.413 16.0415 215.3 16.1504 215.111 16.3476C214.706 16.7699 212.785 19.2675 212.22 20.1071C211.797 20.7351 213.279 18.9758 214.22 17.7325C215.128 16.5335 215.495 16.0304 215.438 16.038ZM218.079 16.7168C218.055 16.7027 217.68 17.0708 217.05 17.7355C216.133 18.7023 215.236 19.7186 215.056 19.994C214.678 20.5715 216.655 18.4666 217.886 16.9809C218.029 16.8084 218.09 16.7232 218.079 16.7168ZM207.56 27.9456C207.748 27.9436 207.856 28.0171 207.8 28.1088C207.745 28.2005 207.592 28.2767 207.461 28.2781C207.33 28.2795 207.222 28.2061 207.221 28.115C207.22 28.0238 207.372 27.9476 207.56 27.9456ZM205.376 29.2053C205.473 29.2999 203.282 31.9685 203.106 31.9704C203.035 31.9712 202.631 32.4229 202.207 32.9743C201.527 33.8598 201.157 34.1801 201.154 33.8859C201.152 33.7204 205.296 29.1268 205.376 29.2053ZM205.704 29.6931C205.727 29.6902 205.739 29.7032 205.741 29.7325C205.745 29.8388 204.968 30.8911 204.013 32.071C201.979 34.5836 201.825 34.7585 201.828 34.5467C201.829 34.4588 202.096 34.0858 202.421 33.7177C202.746 33.3497 203.398 32.5224 203.87 31.8794C204.877 30.5079 205.546 29.713 205.705 29.693L205.704 29.6931ZM173.873 37.4193C173.788 37.4202 173.672 37.496 173.617 37.5877C173.561 37.6795 173.632 37.7533 173.774 37.7518C173.916 37.7503 174.032 37.6744 174.031 37.5833C174.03 37.4922 173.959 37.4184 173.873 37.4193ZM196.692 39.7806C196.699 39.779 196.706 39.7791 196.712 39.7809C196.733 39.7874 196.744 39.816 196.745 39.8662C196.746 40.0035 196.447 40.4457 196.079 40.8487C195.464 41.5236 195.44 41.5353 195.781 40.9975C196.288 40.1952 196.58 39.8033 196.692 39.7806ZM153.947 81.4195C153.972 81.806 154.703 83.2096 154.353 83.3449C153.506 83.123 152.33 83.1564 151.817 82.413C152.428 81.7411 153.106 81.6388 153.947 81.4195ZM123.242 96.0159C123.154 96.0169 123.096 96.0653 123.084 96.1346L123.085 96.197C123.087 96.2101 123.091 96.2236 123.096 96.2373C123.144 96.3578 123.249 96.4145 123.33 96.3632C123.556 96.2206 123.503 96.0131 123.242 96.0159ZM123.991 96.9461C123.895 96.9471 123.817 97.0225 123.818 97.1136C123.819 97.2048 123.852 97.279 123.892 97.2786C123.933 97.2781 124.011 97.2027 124.066 97.111C124.121 97.0193 124.088 96.945 123.991 96.9461ZM135.882 98.1441C135.957 98.1409 136.134 98.2755 136.309 98.473C136.656 98.8657 136.758 98.8834 138.66 98.8833C140.623 98.8831 140.685 98.895 143.804 99.8782C145.541 100.425 147.357 101.012 147.841 101.181C148.367 101.521 149.238 101.322 149.7 101.603C146.631 103.451 143.886 106.609 141.161 108.365C141.104 108.365 140.887 108.069 140.285 107.049C139.684 106.029 137.432 102.77 136.669 102.153C135.905 101.536 135.557 101.463 135.18 101.438L134.494 101.392L135.13 99.8191C135.48 98.9538 135.807 98.2046 135.856 98.1542C135.863 98.1479 135.871 98.1445 135.882 98.1441Z" fill="white"/>
</svg>
