<svg width="396" height="447" viewBox="0 0 396 447" fill="none" xmlns="http://www.w3.org/2000/svg">
<path fill-rule="evenodd" clip-rule="evenodd" d="M316.11 275.71C313.92 278.48 303.27 282.99 299.49 285.13C293.52 288.53 288.85 291.85 283.69 295.39C278.45 298.99 273.7 302.66 269.06 306.86C259.42 315.55 252.02 322.46 243.57 332.72C201.59 383.67 185.31 456.77 176.77 522.46C175.88 529.23 175.27 539.22 173.94 544.79L172.02 581.53C184.58 579.74 191.21 579.21 203.97 580.6C201.76 585.62 198.31 590.94 195.57 596.92C192.85 602.93 190.64 608.88 188.77 615.39C184.94 628.77 182.42 644.72 184.02 659.44C194.8 659.44 209.24 657.79 218.66 656.19C230.49 654.2 239.84 652.3 250.4 649.23C269.81 643.61 287.13 634.78 301.13 623.39C306.15 619.28 311.08 614.73 315.17 609.66C337.46 581.97 346.89 560.39 352.57 520.84C353.22 516.26 353.97 509.19 354.61 504.39L357.71 449.42C358.44 444.69 358.64 436.56 359 432.2C360.08 418.61 359.8 411.13 361.43 395.93C362.52 385.78 362.91 372.28 364.44 361.07C370.47 317.13 372.7 298.93 395.22 256.38C374.22 256.38 344.23 263.86 325.15 272.12C322.26 273.37 319.18 275.01 316.11 275.71Z" fill="#BD3533"/>
<path fill-rule="evenodd" clip-rule="evenodd" d="M106.63 655.9C110.88 651.55 117.06 610.32 152.61 589.3C156.08 587.25 160.68 585.86 164.06 583.8C162.2 581.75 163.37 584.27 162.6 580.44L161.07 557.03C160.5 549.95 158.39 535.83 159.04 529.8C155.06 509.07 153.34 486.88 149.16 465.43C147.11 454.91 145.05 445.23 142.49 435.04C139.4 422.82 136.92 418.66 136.85 404.87L136.18 411.41C135.03 409.9 135.5 410.66 134.57 408.49C122.57 380 116.62 365.15 95.5998 338.91C92.7998 335.42 90.7798 333.41 88.2598 330.27C83.3098 324.12 77.3197 319.55 72.5298 314.02C63.0898 303.06 28.8698 280 15.7398 275.19C3.04977 265.57 -39.7402 256.36 -59.9902 256.36L-49.5302 281.23C-38.3402 308.95 -26.3702 366.46 -23.8702 396.95L-22.0802 421.24C-21.8202 424.51 -21.2402 425.35 -21.2602 429.68C-21.2602 436.62 -20.3902 439.98 -20.4402 446.52C-20.5702 471.23 -21.8302 507.79 -17.0102 531.45C-7.02024 580.66 13.3598 611.56 54.9198 636.22C66.0198 642.81 79.7698 648.38 92.2998 651.85C95.7098 652.79 104.02 654.58 106.63 655.9Z" fill="#BD3533"/>
<path fill-rule="evenodd" clip-rule="evenodd" d="M220.97 226.07C219.64 228.68 213.89 233.98 211.42 236.63L193.27 257.98C190.78 261.21 187.59 266.69 184.63 269.08L184.3 256.44C184.57 272.31 185.09 269.17 178.22 279.98L169.93 294.42C168.71 296.63 168.62 296.98 166.9 298.42C166.57 301.4 158.46 317.45 156.47 322.18C153.04 330.32 150.22 338.21 147.45 346.81C141.86 364.07 137.5 385.78 136.86 404.86C136.93 418.65 139.42 422.81 142.5 435.03C145.06 445.22 147.12 454.9 149.17 465.42C153.35 486.87 155.07 509.06 159.05 529.79C161.57 534.56 164.38 543.83 168.07 547.25L173.95 544.79C175.28 539.22 175.89 529.23 176.78 522.46C185.33 456.77 201.6 383.67 243.58 332.72C252.04 322.46 259.43 315.55 269.07 306.86C273.71 302.66 278.46 298.99 283.7 295.39C288.85 291.85 293.53 288.53 299.5 285.13C303.28 282.99 313.93 278.48 316.12 275.71C316.67 253.56 304.14 209.24 289.06 195.12C278.67 185.39 260.81 195.76 251.04 202.15C240.45 209.07 220.97 226.07 220.97 226.07Z" fill="#CA646E"/>
<path fill-rule="evenodd" clip-rule="evenodd" d="M15.75 275.19C28.88 279.99 63.1 303.06 72.54 314.02C77.33 319.55 83.32 324.12 88.27 330.27C90.79 333.41 92.81 335.42 95.61 338.91C116.63 365.15 122.58 380 134.58 408.49C135.51 410.66 135.03 409.9 136.19 411.41L136.86 404.87C137.5 385.79 141.86 364.08 147.45 346.82C150.22 338.22 153.04 330.33 156.47 322.19C158.46 317.46 166.57 301.41 166.9 298.43C164.12 293.72 161.15 287.6 158.63 282.65C156.17 277.85 151.91 272.04 150.52 267.56L148.13 264.49C147.24 263.14 146.98 262.54 146.25 261.33C140.09 250.92 136.24 247.31 129.5 239.38C124.86 233.92 117.49 228.42 115.82 225.23C108.75 221.28 64.31 181.31 44.33 195.72C29.46 206.44 15.75 258.25 15.75 275.19Z" fill="#BD2217"/>
<path fill-rule="evenodd" clip-rule="evenodd" d="M151.23 202.49L150.52 267.56C151.91 272.03 156.16 277.84 158.63 282.65C161.15 287.6 164.13 293.72 166.9 298.43C168.62 296.99 168.71 296.64 169.93 294.43L178.22 279.99C185.09 269.18 184.57 272.32 184.3 256.45L183.42 203.35L182.42 141.88C181.65 132.78 182.36 120.26 182.36 110.8C182.36 99.35 181.52 91.02 181.52 79.66C219.91 79.66 209.24 86.21 219.5 87.2C228.23 88.04 228.54 77.32 230.09 75.22C232.96 71.29 241.98 73.27 241.98 64.5C241.98 55.79 232.92 57.65 230.09 53.8C227.79 50.66 229.51 49.2 227.15 45.8C225.71 43.7 223.11 41.47 219.5 41.82C216.85 42.06 214.04 44.05 211.97 45.33C204.08 50.22 192.52 50.21 182.35 50.21C182.35 42.96 181.86 38.1 184.58 33.08C186.86 28.88 191.05 24.57 189.09 19.15C186.26 11.28 179.98 15.41 176.62 11.33C173.86 7.99001 175.85 0.430007 167.21 0.470007C158.39 0.490007 160.34 6.57001 157.97 10.68C155.48 14.95 148.65 11.5 145.28 18.22C140.57 27.64 152.05 25.38 152.05 50.22C119.71 50.22 123.91 42.59 115.76 41.84C106.25 40.97 106.59 51.19 105.42 53.24C102.74 57.9 93.8998 55.18 93.1698 63.8C92.3998 72.67 100.88 71.5 104.27 74.44C107.81 77.47 104.78 86.42 114.3 87.22C119.8 87.68 122.52 82.55 130.35 80.7C136.76 79.19 144.43 79.68 152.05 79.68C152.05 90.62 151.21 98.42 151.21 109.12V202.49H151.23Z" fill="#D7AB68"/>
<path fill-rule="evenodd" clip-rule="evenodd" d="M184.3 256.44L184.63 269.08C187.59 266.69 190.78 261.21 193.27 257.98L211.42 236.63C213.89 233.98 219.64 228.69 220.97 226.07C217.74 224.21 215.58 222.24 212.66 220.18C209.7 218.08 206.74 216.23 203.57 214.12C198.9 211.02 189.29 204.37 183.43 203.34L184.3 256.44Z" fill="#BD3533"/>
<path fill-rule="evenodd" clip-rule="evenodd" d="M115.82 225.23C117.48 228.42 124.86 233.92 129.5 239.38C136.24 247.3 140.09 250.92 146.25 261.33C146.98 262.54 147.24 263.14 148.13 264.49L150.52 267.56L151.23 202.49C141.68 207.08 143.18 205.93 132.9 212.76L115.82 225.23Z" fill="#BD3533"/>
</svg>
