<svg width="66" height="47" viewBox="0 0 66 47" fill="none" xmlns="http://www.w3.org/2000/svg">
<path d="M64.6199 7.21502C63.8595 4.37356 61.6263 2.1406 58.7848 1.37998C53.64 4.13079e-07 32.9999 0 32.9999 0C32.9999 0 12.36 4.13079e-07 7.215 1.37998C4.37356 2.1406 2.1406 4.37356 1.37998 7.21502C4.13079e-07 12.36 0 23.1011 0 23.1011C0 23.1011 4.13079e-07 33.8422 1.37998 38.9872C2.1406 41.8287 4.37356 44.0616 7.215 44.8221C12.36 46.2021 32.9999 46.2021 32.9999 46.2021C32.9999 46.2021 53.64 46.2021 58.7848 44.8221C61.6263 44.0616 63.8595 41.8287 64.6199 38.9872C66 33.8422 66 23.1011 66 23.1011C66 23.1011 65.9945 12.36 64.6199 7.21502Z" fill="#FF0000"/>
<path d="M26.3933 29.5368C26.3933 31.0764 28.0599 32.0386 29.3933 31.2689L40.5396 24.834C41.873 24.0643 41.873 22.1397 40.5396 21.3699L29.3933 14.9349C28.0599 14.1652 26.3933 15.1274 26.3933 16.667V29.5368Z" fill="white"/>
</svg>
